<?xml version="1.0" standalone="no"?>
<!DOCTYPE svg PUBLIC "-//W3C//DTD SVG 1.1//EN" "http://www.w3.org/Graphics/SVG/1.1/DTD/svg11.dtd" >
<svg xmlns="http://www.w3.org/2000/svg">
<metadata>
This is a custom SVG webfont generated by Font Squirrel.
Copyright   : eurofurence  19952000 tobias b khler uncitigerdencom
</metadata>
<defs>
<font id="eurofurencelightRegular" horiz-adv-x="942" >
<font-face units-per-em="2048" ascent="1638" descent="-410" />
<missing-glyph horiz-adv-x="401" />
<glyph unicode=" "  horiz-adv-x="401" />
<glyph unicode="&#x09;" horiz-adv-x="401" />
<glyph unicode="&#xa0;" horiz-adv-x="401" />
<glyph unicode="!" horiz-adv-x="325" d="M98 65q0 63 65 63t65 -63q0 -26 -19.5 -45.5t-45.5 -19.5t-45.5 19.5t-19.5 45.5zM132 361v859q0 31 31 31t31 -31v-859q0 -31 -31 -31t-31 31z" />
<glyph unicode="&#x22;" horiz-adv-x="613" d="M44 889q0 9 61.5 165.5t72.5 176.5t28 20q33 0 33 -30q0 -9 -62 -166t-73.5 -176.5t-26.5 -19.5q-33 0 -33 30zM374 889q0 9 62 165.5t73 176.5t27 20q33 0 33 -30q0 -9 -61.5 -166t-73 -176.5t-27.5 -19.5q-33 0 -33 30z" />
<glyph unicode="#" horiz-adv-x="1338" d="M44 427q0 31 31 31h365v335h-365q-31 0 -31 31t31 30h365v366q0 31 31 31t31 -31v-366h335v366q0 31 31 31t30 -31v-366h366q31 0 31 -30q0 -31 -31 -31h-366v-335h366q31 0 31 -31t-31 -31h-366v-365q0 -31 -30 -31q-31 0 -31 31v365h-335v-365q0 -31 -31 -31t-31 31 v365h-365q-31 0 -31 31zM502 458h335v335h-335v-335z" />
<glyph unicode="$" horiz-adv-x="767" d="M44 197q0 30 33 30q14 0 25 -16q69 -94 141 -125v599q-80 35 -128 109.5t-48 161.5t48 161t128 109v258q0 31 31 31t31 -31v-238q28 5 57 5t57 -5v238q0 31 31 31t31 -31v-258q38 -18 85 -58q56 -48 56 -80q0 -30 -33 -30q-14 0 -25 15q-45 61 -83 84v-455 q108 -38 175 -132t67 -209t-67 -209t-175 -132v-253q0 -31 -31 -31t-31 31v237q-28 -4 -57 -4t-57 4v-237q0 -31 -31 -31t-31 31v253q-135 47 -195 161q-4 9 -4 16zM129 956q0 -133 114 -201v402q-114 -68 -114 -201zM305 67q28 -5 57 -5t57 5v588q-39 2 -114 11v-599z M305 729q38 -3 114 -11v464q-28 7 -57 7t-57 -7v-453zM481 86q82 35 131.5 110.5t49.5 164.5t-49.5 164.5t-131.5 110.5v-550z" />
<glyph unicode="%" horiz-adv-x="1339" d="M44 31q0 12 10 22l1189 1189q10 10 21 10q32 0 32 -32q0 -12 -10 -22l-1189 -1189q-10 -10 -21 -10q-32 0 -32 32zM45 956q0 122 86.5 208.5t208.5 86.5t208.5 -87t86.5 -208q0 -122 -86.5 -208.5t-208.5 -86.5t-208.5 86.5t-86.5 208.5zM107 956q0 -96 68 -165t165 -69 q96 0 164.5 69t68.5 165t-68.5 164.5t-164.5 68.5q-97 0 -165 -68.5t-68 -164.5zM706 295q0 122 86 208.5t209 86.5q122 0 208.5 -86.5t86.5 -208.5t-87 -208.5t-208 -86.5q-122 0 -208.5 86.5t-86.5 208.5zM767 295q0 -96 68.5 -164.5t165.5 -68.5q96 0 164.5 68.5 t68.5 164.5t-68.5 165t-164.5 69q-97 0 -165.5 -69t-68.5 -165z" />
<glyph unicode="&#x26;" horiz-adv-x="1031" d="M44 361q0 106 57.5 195t153.5 134q-79 78 -103 116q-41 65 -42 150q0 122 87 208.5t208 86.5q122 0 208.5 -87t86.5 -208q0 -122 -86.5 -208.5t-208.5 -86.5q-17 0 -33 -2l606 -606q10 -10 9 -22q0 -32 -31 -32q-12 0 -22 10l-201 201q-44 -95 -133 -152.5t-195 -57.5 q-150 0 -255.5 105.5t-105.5 255.5zM106 361q0 -123 88 -211t211 -88q93 0 171 53.5t110 141.5l-385 385q-88 -33 -141.5 -110.5t-53.5 -170.5zM172 956q0 -75 46 -138q17 -23 101 -106q42 11 86 10q96 0 165 69t69 165t-69 164.5t-165 68.5t-164.5 -68.5t-68.5 -164.5z" />
<glyph unicode="'" horiz-adv-x="282" d="M44 889q0 9 61.5 165.5t72.5 176.5t28 20q33 0 33 -30q0 -9 -62 -166t-73.5 -176.5t-26.5 -19.5q-33 0 -33 30z" />
<glyph unicode="(" horiz-adv-x="362" d="M44 427q0 360 154 690q63 133 87 133q33 0 33 -30q0 -8 -4 -16q-208 -393 -208 -777t207 -776q5 -9 5 -17q0 -30 -33 -30q-25 0 -87 134q-154 329 -154 689z" />
<glyph unicode=")" horiz-adv-x="362" d="M44 -366q0 8 4 17q208 392 208 776t-208 777q-4 8 -4 16q0 30 33 30q25 0 87 -133q154 -329 154 -690q0 -360 -154 -689q-63 -133 -87 -134q-33 0 -33 30z" />
<glyph unicode="*" d="M44 824q0 32 31 30l341 -7l-247 235q-10 10 -10 22q0 32 32 31q12 0 22 -9l235 -247l-8 341q-1 31 31 31t31 -31l-8 -341l235 247q10 10 22 9q32 0 32 -31q0 -12 -10 -22l-246 -235l341 7q31 1 30 -30q0 -32 -30 -31l-341 8l246 -235q10 -10 10 -23q0 -32 -32 -31 q-12 0 -22 9l-235 247l8 -341q1 -31 -31 -31t-31 31l8 341l-235 -247q-10 -10 -22 -9q-32 0 -32 31q0 12 10 23l247 235l-341 -8q-31 -1 -31 31z" />
<glyph unicode="+" d="M44 526q0 31 31 31h365v365q0 31 31 31t31 -31v-365h366q31 0 30 -31q0 -31 -30 -31l-366 1v-367q0 -30 -31 -29q-31 0 -31 29v367l-365 -1q-31 0 -31 31z" />
<glyph unicode="," horiz-adv-x="266" d="M44 -250q0 11 10 22q107 130 107 259q0 31 31 31t31 -31q0 -82 -33 -165q-35 -88 -93 -138q-11 -10 -21 -10q-32 0 -32 32z" />
<glyph unicode="-" horiz-adv-x="546" d="M44 427q0 31 31 31h396q31 0 31 -31t-31 -31h-396q-31 0 -31 31z" />
<glyph unicode="." horiz-adv-x="218" d="M44 65q0 63 65 63t65 -63q0 -26 -19 -45.5t-46 -19.5q-26 0 -45.5 19.5t-19.5 45.5z" />
<glyph unicode="/" horiz-adv-x="943" d="M44 -367q0 18 669 1346l92 185l35 70q11 17 27 17q33 0 32 -30q0 -18 -668 -1346l-93 -185l-35 -71q-11 -17 -26 -16q-33 0 -33 30z" />
<glyph unicode="0" d="M44 526q0 200 112 355q123 172 315 172t316 -172q112 -155 111 -355q0 -199 -111 -354q-123 -172 -316 -172q-192 0 -315 172q-112 155 -112 354zM106 526q0 -173 94 -310q106 -154 271 -154q166 0 272 154q94 137 94 310q0 174 -94 311q-106 154 -272 154t-271 -154 q-94 -137 -94 -311zM439 526q0 31 32 31q33 0 33 -31q0 -33 -33 -33q-32 0 -32 33z" />
<glyph unicode="1" d="M154 691q0 12 10 22l326 326q13 14 25 15q31 0 31 -38v-954h212q31 0 30 -31q0 -31 -30 -31h-485q-31 0 -31 31t31 31h211v886l-277 -279q-10 -10 -21 -9q-32 -1 -32 31z" />
<glyph unicode="2" d="M107 27q0 15 17 28l566 429q84 63 83 207q0 123 -88 211.5t-211 88.5q-124 0 -212 -88t-88 -212q0 -31 -30 -30q-31 0 -31 30q0 150 105.5 256t255.5 106q149 0 255 -106t106 -256q0 -175 -108 -257l-492 -372h569q31 0 31 -31t-31 -31h-660q-37 0 -37 27z" />
<glyph unicode="3" d="M100 15q0 30 31 30q14 0 26 -15q11 -18 37 -52q99 -115 251 -115q137 0 235 98t98 235t-98 235t-235 98q-86 0 -174 -53.5t-83 -53.5q-31 0 -31 31q0 13 11 24l561 514h-599q-31 0 -30 31q0 31 30 31h679q34 0 34 -27q0 -14 -14 -27l-451 -414q32 5 67 5 q163 0 278.5 -115.5t115.5 -278.5t-115.5 -278.5t-278.5 -115.5q-104 0 -197 53q-95 54 -144 143q-4 9 -4 17z" />
<glyph unicode="4" d="M43 225q0 11 7 21l529 793q12 18 29 18q27 0 27 -35v-762h234q31 0 30 -31q0 -31 -30 -31h-234v-365q0 -31 -31 -31t-31 31v365h-497q-33 1 -33 27zM134 260h439v660z" />
<glyph unicode="5" d="M70 32q0 30 32 30q15 0 27 -15q11 -18 36 -52q107 -131 280 -132q152 0 258.5 107.5t106.5 258.5q0 152 -107 259t-258 107q-173 0 -280 -132l-36 -52q-15 -19 -30 -19q-31 0 -29 33l1 7l93 594q4 26 30 27h647q31 0 31 -31t-31 -31h-621l-70 -453q124 118 295 118 q177 0 302 -125t125 -302t-125 -302t-302 -125q-113 0 -214.5 57.5t-155.5 155.5q-5 9 -5 17z" />
<glyph unicode="6" d="M44 427q0 341 241.5 582.5t582.5 241.5q31 0 30 -31q0 -31 -30 -31q-228 0 -419.5 -126t-281.5 -336q125 128 304 127q177 0 302 -125t125 -302t-125 -302t-302 -125t-302 125t-125 302zM106 427q0 -152 107 -258.5t258 -106.5q152 0 259 107t107 258q0 152 -107 259 t-259 107t-258.5 -107t-106.5 -259z" />
<glyph unicode="7" d="M43 1022q0 31 31 31h793q33 0 32 -27q0 -9 -5 -19l-639 -1189q-9 -16 -26 -16q-32 0 -32 30q0 8 4 16l615 1143h-742q-31 0 -31 31z" />
<glyph unicode="8" d="M110 361q0 109 61.5 200.5t161.5 133.5q-157 84 -157 261q0 122 87 208.5t208 86.5q122 0 208.5 -87t86.5 -208q0 -177 -156 -261q100 -42 161 -133.5t61 -200.5q0 -150 -105.5 -255.5t-255.5 -105.5t-255.5 105.5t-105.5 255.5zM172 361q0 -123 88 -211t211 -88 t211.5 88t88.5 211t-88 211.5t-212 88.5q-123 0 -211 -88.5t-88 -211.5zM238 956q0 -96 68.5 -165t164.5 -69t165 69t69 165t-69 164.5t-165 68.5t-164.5 -68.5t-68.5 -164.5z" />
<glyph unicode="9" d="M44 -167q0 31 31 30q228 0 419 126t281 337q-125 -128 -304 -128q-177 0 -302 125t-125 302t125 302.5t302 125.5t302 -125.5t125 -302.5q0 -341 -241 -582t-582 -241q-31 0 -31 31zM106 625q0 -152 107 -258.5t258 -106.5q152 0 259 107t107 258q0 152 -107 259 t-259 107t-258.5 -107t-106.5 -259z" />
<glyph unicode=":" horiz-adv-x="218" d="M44 65q0 63 65 63t65 -63q0 -26 -19 -45.5t-46 -19.5q-26 0 -45.5 19.5t-19.5 45.5zM44 792q0 63 65 62q65 0 65 -62q0 -26 -19 -45.5t-46 -19.5q-26 0 -45.5 19.5t-19.5 45.5z" />
<glyph unicode=";" horiz-adv-x="318" d="M44 -250q0 11 10 22q107 130 107 259q0 31 31 31t31 -31q0 -82 -33 -165q-35 -88 -93 -138q-11 -10 -21 -10q-32 0 -32 32zM127 792q0 63 65 62q65 0 65 -62q0 -26 -19.5 -45.5t-45.5 -19.5t-45.5 19.5t-19.5 45.5z" />
<glyph unicode="&#x3c;" d="M44 526q0 18 22 31q63 35 424 214q367 183 379 183q30 0 29 -33q0 -18 -16 -26l-738 -368l738 -369q17 -9 16 -27q0 -33 -29 -32q-11 0 -380 183q-364 181 -423 214q-22 13 -22 30z" />
<glyph unicode="=" d="M44 394q0 31 31 31h793q31 0 30 -31q0 -31 -30 -31h-793q-31 0 -31 31zM44 658q0 31 31 31h793q31 0 30 -31q0 -31 -30 -31h-793q-31 0 -31 31z" />
<glyph unicode="&#x3e;" d="M44 131q0 18 17 27l738 369l-738 368q-17 9 -17 26q0 33 30 33q11 0 379 -183q361 -180 423 -214q22 -13 22 -31q0 -17 -22 -30q-63 -34 -423 -214q-367 -183 -379 -183q-30 -1 -30 32z" />
<glyph unicode="?" horiz-adv-x="678" d="M44 956q0 122 87 208.5t208 86.5q122 0 208.5 -87t86.5 -208q0 -122 -86.5 -208.5t-208.5 -86.5q-55 0 -95 -40t-40 -95t40 -94.5t95 -39.5q20 0 48 11.5t36 11.5q30 0 30 -33q0 -25 -46 -40q-35 -11 -68 -12q-81 0 -138.5 58t-57.5 138q0 81 57.5 138.5t138.5 57.5 q96 0 165 69t69 165t-69 164.5t-165 68.5t-164.5 -68.5t-68.5 -164.5q0 -31 -31 -31t-31 31zM274 65q0 63 65 63t65 -63q0 -26 -19 -45.5t-46 -19.5q-26 0 -45.5 19.5t-19.5 45.5z" />
<glyph unicode="@" horiz-adv-x="1184" d="M44 625q0 259 183 442.5t442 183.5q195 0 333.5 -138.5t138.5 -332.5q0 -196 -138 -334t-334 -138q-131 0 -224 93t-93 224t93 224.5t224 93.5t224.5 -93t93.5 -225q0 -75 -33 -141q125 121 125 296q0 169 -120 289t-290 120q-233 0 -398 -165t-165 -399q0 -233 165 -398 t398 -165q206 0 399 165q11 10 23 10q32 0 31 -32q0 -11 -9 -21q-181 -184 -444 -184q-259 0 -442 183t-183 442zM414 625q0 -106 75 -180.5t181 -74.5q105 0 180 75.5t75 179.5q0 106 -75 181t-181 75t-180.5 -75t-74.5 -181z" />
<glyph unicode="A" horiz-adv-x="1339" d="M44 30q0 11 275 564q274 550 321 635q12 22 29 22q18 0 31 -22q47 -85 321 -635q275 -553 275 -564q0 -30 -33 -30q-18 0 -26 17l-190 379h-2h-753l-189 -379q-9 -17 -26 -17q-33 0 -33 30zM323 458h694l-347 693z" />
<glyph unicode="B" horiz-adv-x="898" d="M132 31v1189q0 31 31 31h330q122 0 208.5 -87t86.5 -208q0 -178 -156 -261q100 -42 161 -133.5t61 -201.5q0 -150 -105.5 -255.5t-256.5 -105.5l-329 1q-31 0 -31 31zM194 62l299 -1q124 0 212 88t88 211q0 124 -88 212.5t-212 88.5h-299v-599zM194 722h299q96 0 165 69 t69 165t-69 164.5t-165 68.5h-299v-467z" />
<glyph unicode="C" horiz-adv-x="1165" d="M44 625q0 259 183 442.5t442 183.5q267 0 443 -183q10 -10 9 -22q0 -32 -31 -31q-11 0 -22 9q-192 165 -399 165q-233 0 -398 -165t-165 -399q0 -233 165 -398t398 -165q206 0 399 164q11 10 22 10q32 0 31 -32q0 -11 -9 -21q-175 -183 -443 -183q-259 0 -442 183 t-183 442z" />
<glyph unicode="D" horiz-adv-x="1228" d="M132 31v1189q0 31 31 31h396q259 0 442.5 -183.5t183.5 -442.5t-183.5 -442t-442.5 -183h-396q-31 0 -31 31zM194 62h365q233 0 398.5 165t165.5 398t-165 398.5t-399 165.5h-365v-1127z" />
<glyph unicode="E" horiz-adv-x="898" d="M132 31v1189q0 31 31 31h661q31 0 30 -31q0 -31 -30 -31h-630v-533h497q31 0 31 -31t-31 -30h-497v-533h630q31 0 30 -31q0 -31 -30 -31h-661q-31 0 -31 31z" />
<glyph unicode="F" horiz-adv-x="854" d="M132 31v1189q0 31 31 31h661q31 0 30 -31q0 -31 -30 -31h-630v-533h497q31 0 31 -31t-31 -30h-497v-564q0 -31 -31 -31t-31 31z" />
<glyph unicode="G" horiz-adv-x="1209" d="M44 625q0 259 183 442.5t442 183.5q267 0 443 -183q10 -10 9 -22q0 -32 -31 -31q-11 0 -22 9q-192 165 -399 165q-233 0 -398 -165t-165 -399q0 -233 165 -398t398 -165q226 0 390 156v407q0 31 31 31t30 -31v-421q0 -11 -8 -21q-74 -85 -203 -135q-121 -48 -240 -48 q-259 0 -442 183t-183 442z" />
<glyph unicode="H" horiz-adv-x="1118" d="M132 31v1189q0 31 31 31t31 -31v-564h731v564q0 31 31 31t31 -31v-1189q0 -31 -31 -31t-31 31v564h-731v-564q0 -31 -31 -31t-31 31z" />
<glyph unicode="I" horiz-adv-x="325" d="M132 31v1189q0 31 31 31t31 -31v-1189q0 -31 -31 -31t-31 31z" />
<glyph unicode="J" horiz-adv-x="436" d="M-252 -232q0 30 33 30q11 0 40 -34q36 -44 66 -64q52 -34 122 -35q96 0 164.5 69t68.5 165v1321q0 31 31 31t31 -31v-1321q0 -122 -87 -208.5t-208 -86.5q-78 0 -149 40.5t-107 107.5q-5 8 -5 16z" />
<glyph unicode="K" horiz-adv-x="894" d="M132 31v1189q0 31 31 31t31 -31v-595q0 12 9 22l595 595q10 10 21 10q32 0 32 -32q0 -12 -10 -22l-572 -573l572 -572q10 -10 10 -22q0 -32 -32 -32q-11 0 -21 10l-595 594q-10 10 -9 22v-594q0 -31 -31 -31t-31 31z" />
<glyph unicode="L" horiz-adv-x="898" d="M132 31v1189q0 31 31 31t31 -31v-1158h630q31 0 30 -31q0 -31 -30 -31h-661q-31 0 -31 31z" />
<glyph unicode="M" horiz-adv-x="1471" d="M44 30q0 4 1 8l263 1184q6 29 32 29q19 0 30 -24l366 -854l366 854q10 24 30 24q25 0 32 -29l262 -1184q1 -4 1 -8q0 -30 -32 -30q-24 0 -29 24l-243 1096l-357 -832q-11 -24 -30 -24q-20 0 -31 24l-356 832l-244 -1096q-5 -24 -29 -24q-32 0 -32 30z" />
<glyph unicode="N" horiz-adv-x="1251" d="M132 1220q0 31 32 31q14 0 27 -16l867 -1114v1099q0 31 31 31t31 -31v-1189q0 -31 -32 -31q-14 0 -27 16l-866 1114v-1099q0 -31 -31 -31t-31 31z" />
<glyph unicode="O" horiz-adv-x="1338" d="M44 625q0 259 183 442.5t442 183.5t442.5 -183.5t183.5 -442.5t-183.5 -442t-442.5 -183t-442 183t-183 442zM106 625q0 -233 165 -398t398 -165t398.5 165t165.5 398t-165 398.5t-399 165.5q-233 0 -398 -165.5t-165 -398.5z" />
<glyph unicode="P" horiz-adv-x="898" d="M132 31v1189q0 31 31 31h330q150 0 255.5 -106t105.5 -255q0 -150 -105.5 -255.5t-255.5 -105.5h-268q-31 0 -31 30q0 31 31 31h268q124 0 212 87.5t88 212.5q0 124 -88 211.5t-212 87.5h-299v-1158q0 -31 -31 -31t-31 31z" />
<glyph unicode="Q" horiz-adv-x="1338" d="M44 625q0 259 183 442.5t442 183.5t442.5 -183.5t183.5 -442.5q0 -236 -157 -414t-391 -207q67 -154 208 -246.5t309 -92.5q31 0 31 -31t-31 -30q-193 0 -352.5 108.5t-229.5 287.5h-13h-7q-257 0 -436 180q-182 183 -182 445zM106 625q0 -231 162.5 -395.5t393.5 -167.5 q-23 82 -23 167q0 31 30 31q31 0 31 -31q0 -85 25 -165q216 21 362 183t146 378q0 233 -165 398.5t-399 165.5q-233 0 -398 -165.5t-165 -398.5z" />
<glyph unicode="R" horiz-adv-x="899" d="M132 31v1191q0 29 31 29h330q150 0 255.5 -106t105.5 -255q0 -150 -105.5 -255.5t-255.5 -105.5h-124l477 -476q10 -10 9 -22q0 -32 -31 -32q-12 0 -22 10l-525 525q-14 13 -14 25q0 31 38 31h192q123 0 211.5 88t88.5 212q0 123 -88 211t-212 88h-299v-1158 q0 -31 -31 -31t-31 31z" />
<glyph unicode="S" horiz-adv-x="767" d="M44 197q0 30 33 30q14 0 25 -16q9 -14 29 -42q89 -107 231 -107q123 0 211.5 88t88.5 211t-88.5 211.5t-211 88.5t-209 86.5t-86.5 208.5t86.5 208.5t208.5 86.5q168 0 255 -146q5 -8 5 -17q0 -30 -33 -30q-11 0 -40 33q-36 43 -67 64q-52 34 -120 34q-97 0 -165 -68.5 t-68 -164.5t68 -165t165 -69q149 0 255 -105.5t106 -255.5t-106 -255.5t-255 -105.5q-97 0 -181 49t-133 132q-4 8 -4 16z" />
<glyph unicode="T" horiz-adv-x="898" d="M44 1220q0 31 31 31h793q31 0 30 -31q0 -31 -30 -31h-366v-1158q0 -31 -31 -31t-31 31v1158h-365q-31 0 -31 31z" />
<glyph unicode="U" horiz-adv-x="1030" d="M88 427v793q0 31 31 31t31 -31v-793q0 -152 107 -258.5t258 -106.5q152 0 259 107t107 258v793q0 31 31 31t31 -31v-793q0 -177 -125.5 -302t-302.5 -125t-302 125t-125 302z" />
<glyph unicode="V" horiz-adv-x="1295" d="M44 1221q0 30 33 30q18 0 26 -17l567 -1134l567 1134q9 17 26 17q33 0 33 -30q0 -11 -275 -564q-274 -550 -321 -635q-12 -22 -30 -22t-30 22q-47 85 -321 635q-275 553 -275 564z" />
<glyph unicode="W" horiz-adv-x="1890" d="M44 1221q0 30 33 30q18 0 26 -17l567 -1134l263 525q-294 587 -294 596q0 30 32 30q18 0 27 -17l269 -540l270 540q9 17 26 17q33 0 33 -30q0 -9 -294 -596l263 -525l566 1134q9 17 27 17q33 0 32 -30q0 -11 -275 -564q-274 -550 -320 -635q-12 -22 -31 -22q-18 0 -30 22 l-267 535l-267 -535q-11 -22 -30 -22q-18 0 -30 22q-47 85 -321 635q-275 553 -275 564z" />
<glyph unicode="X" horiz-adv-x="1075" d="M44 31q0 10 7 18l448 576l-448 576q-7 9 -7 19q0 32 32 32q14 0 24 -14l438 -562l438 562q10 13 24 14q32 0 31 -32q0 -10 -7 -19l-447 -576l447 -576q7 -9 7 -18q0 -32 -31 -32q-14 0 -24 13l-438 563l-438 -563q-10 -13 -24 -13q-32 0 -32 32z" />
<glyph unicode="Y" horiz-adv-x="1031" d="M44 1220q0 32 32 32q14 0 24 -14l438 -562l438 562q10 13 24 14q32 0 31 -32q0 -10 -7 -19l-455 -586v-584q0 -31 -31 -31t-31 31v584l-456 586q-7 9 -7 19z" />
<glyph unicode="Z" horiz-adv-x="1075" d="M44 31q0 10 11 24l882 1134h-861q-31 0 -31 31t31 31l924 1q32 0 31 -32q0 -10 -10 -24l-883 -1134h863q31 0 30 -31q0 -31 -30 -31l-925 -1q-32 0 -32 32z" />
<glyph unicode="[" horiz-adv-x="634" d="M132 -366v1586q0 31 31 31h396q31 0 31 -31t-31 -31h-365v-1524h365q31 0 31 -31t-31 -30h-396q-31 -1 -31 30z" />
<glyph unicode="\" horiz-adv-x="943" d="M44 1221q0 30 33 30q16 0 26 -17l128 -255q669 -1328 668 -1346q0 -30 -32 -30q-16 0 -27 16l-127 256q-669 1328 -669 1346z" />
<glyph unicode="]" horiz-adv-x="634" d="M44 -366q0 31 31 31h365v1524h-365q-31 0 -31 31t31 31h396q31 0 31 -31v-1586q0 -31 -31 -30h-396q-31 -1 -31 30z" />
<glyph unicode="^" horiz-adv-x="679" d="M44 956q0 12 10 22l264 264q10 10 20 10q14 0 23 -10l264 -264q10 -10 10 -22q0 -32 -32 -32q-11 0 -21 10l-242 243l-243 -243q-10 -10 -21 -10q-32 0 -32 32z" />
<glyph unicode="_" d="M44 31q0 31 31 31h793q31 0 30 -31q0 -31 -30 -31h-793q-31 0 -31 31z" />
<glyph unicode="`" horiz-adv-x="282" d="M44 1221q0 30 33 30q16 0 27 -20t73 -176.5t62 -165.5q0 -30 -33 -30q-17 0 -28 19.5t-72.5 176.5t-61.5 166z" />
<glyph unicode="a" horiz-adv-x="722" d="M44 295q0 122 87 208.5t208 86.5q144 0 234 -114v83q0 96 -69 165t-165 69q-63 0 -125.5 -39.5t-61.5 -39.5q-32 0 -31 32q0 11 9 22q79 86 209 86q122 0 208.5 -86.5t86.5 -208.5v-528q0 -31 -31 -31t-30 31v84q-89 -115 -234 -115q-122 0 -208.5 86.5t-86.5 208.5z M106 295q0 -96 68.5 -164.5t164.5 -68.5t165 68.5t69 164.5t-69 165t-165 69t-164.5 -69t-68.5 -165z" />
<glyph unicode="b" horiz-adv-x="986" d="M88 427v793q0 31 31 31t31 -31v-572q58 96 155.5 151t209.5 55q177 0 302.5 -125t125.5 -302t-125.5 -302t-302.5 -125t-302 125t-125 302zM150 427q0 -152 107 -258.5t258 -106.5q152 0 259 107t107 258q0 152 -107 259t-259 107t-258.5 -107t-106.5 -259z" />
<glyph unicode="c" horiz-adv-x="827" d="M44 427q0 177 125 302t302 125q186 0 302 -125q10 -11 10 -21q0 -32 -32 -31q5 0 -87 58t-193 58q-152 0 -258.5 -107t-106.5 -259t107 -258.5t258 -106.5q100 0 193 58t86 58q32 0 32 -32q0 -11 -9 -22q-115 -124 -302 -124q-177 0 -302 125t-125 302z" />
<glyph unicode="d" horiz-adv-x="1030" d="M44 427q0 177 125 302t302 125q112 0 210 -55t156 -151v572q0 31 31 31t30 -31v-1189q0 -31 -30 -31q-31 0 -31 31v175q-58 -96 -156 -151t-210 -55q-177 0 -302 125t-125 302zM106 427q0 -152 107 -258.5t258 -106.5q152 0 259 107t107 258q0 152 -107 259t-259 107 t-258.5 -107t-106.5 -259z" />
<glyph unicode="e" horiz-adv-x="889" d="M44 427q0 177 125 302t302 125q70 0 143 -25q68 -25 141 -80q90 -69 90 -124q0 -18 -15 -26l-659 -381q109 -157 300 -156q166 0 272 121l44 62q11 15 27 15q32 0 32 -30q0 -8 -5 -17q-56 -98 -156 -155.5t-214 -57.5q-177 0 -302 125t-125 302zM106 427q0 -82 34 -156 l632 365q-109 157 -301 157q-152 0 -258.5 -107t-106.5 -259z" />
<glyph unicode="f" horiz-adv-x="643" d="M44 824q0 31 31 30h167v168q0 94 67.5 161.5t161.5 67.5q106 0 162 -67q10 -11 10 -22q0 -31 -32 -31q-2 0 -49 29t-91 29q-69 0 -118 -49t-49 -118v-168h167q31 0 31 -30q0 -31 -31 -31h-167v-762q0 -31 -31 -31t-31 31v762h-167q-31 0 -31 31z" />
<glyph unicode="g" horiz-adv-x="810" d="M44 -35q0 31 31 31t31 -31q0 -123 88 -211.5t211 -88.5t211.5 88t88.5 212q0 123 -88 211t-210.5 88t-209.5 87t-87 208q0 122 87 208.5t208 86.5h331q31 0 30 -30q0 -31 -30 -31h-150q115 -89 114 -234q0 -177 -157 -260q100 -42 161.5 -133.5t61.5 -200.5 q0 -150 -105.5 -255.5t-255.5 -105.5t-255.5 105.5t-105.5 255.5zM172 559q0 -96 68.5 -164.5t164.5 -68.5t165 68.5t69 164.5t-69 165t-165 69t-164.5 -69t-68.5 -165z" />
<glyph unicode="h" horiz-adv-x="810" d="M132 31v1189q0 31 31 31t31 -31v-480q89 115 233 114q122 0 208.5 -86.5t86.5 -208.5v-528q0 -31 -31 -31t-30 31v528q0 96 -69 165t-165 69t-164.5 -69t-68.5 -165v-528q0 -31 -31 -31t-31 31z" />
<glyph unicode="i" horiz-adv-x="325" d="M98 1186q0 26 19.5 45.5t45.5 19.5t45.5 -19.5t19.5 -45.5q0 -63 -65 -63t-65 63zM132 31v793q0 31 31 30q31 0 31 -30v-793q0 -31 -31 -31t-31 31z" />
<glyph unicode="j" horiz-adv-x="325" d="M-207 -308q0 32 32 31q2 0 48.5 -29t91.5 -29q69 0 118 49.5t49 118.5v991q0 31 31 30q31 0 31 -30v-991q0 -94 -67.5 -161.5t-161.5 -67.5q-104 0 -162 67q-10 11 -10 21zM98 1186q0 26 19.5 45.5t45.5 19.5t45.5 -19.5t19.5 -45.5q0 -63 -65 -63t-65 63z" />
<glyph unicode="k" horiz-adv-x="696" d="M132 31v1189q0 31 31 31t31 -31v-1189q0 -31 -31 -31t-31 31zM193 425q0 14 10 24l396 397q10 10 22 9q32 0 32 -31q0 -12 -10 -22l-375 -375l375 -374q10 -10 10 -22q0 -32 -32 -32q-12 0 -22 10l-396 396q-10 9 -10 20z" />
<glyph unicode="l" horiz-adv-x="391" d="M88 229v991q0 31 31 31t31 -31v-991q0 -69 49 -118t118 -49q31 0 31 -31t-31 -31q-94 0 -161.5 67.5t-67.5 161.5z" />
<glyph unicode="m" horiz-adv-x="1338" d="M132 31v793q0 31 31 30q31 0 31 -30v-84q89 115 233 114q182 0 264 -163q82 164 265 163q122 0 208.5 -86.5t86.5 -208.5v-528q0 -31 -31 -31t-31 31v528q0 96 -68.5 165t-164.5 69t-165 -69t-69 -165v-528q0 -31 -31 -31t-30 31v528q0 96 -69 165t-165 69t-164.5 -69 t-68.5 -165v-528q0 -31 -31 -31t-31 31z" />
<glyph unicode="n" horiz-adv-x="810" d="M132 31v793q0 31 31 30q31 0 31 -30v-84q89 115 233 114q122 0 208.5 -86.5t86.5 -208.5v-528q0 -31 -31 -31t-30 31v528q0 96 -69 165t-165 69t-164.5 -69t-68.5 -165v-528q0 -31 -31 -31t-31 31z" />
<glyph unicode="o" d="M44 427q0 177 125 302t302 125t302 -125t125 -302t-125 -302t-302 -125t-302 125t-125 302zM106 427q0 -152 107 -258.5t258 -106.5q152 0 259 107t107 258q0 152 -107 259t-259 107t-258.5 -107t-106.5 -259z" />
<glyph unicode="p" horiz-adv-x="982" d="M84 -366v1190q0 31 31 30q31 0 30 -30v-176q58 96 156 151t210 55q177 0 302 -125t125 -302t-125 -302t-302 -125q-112 0 -210 55t-156 151v-572q0 -31 -30 -30q-31 -1 -31 30zM145 427q0 -152 107 -258.5t259 -106.5t258.5 107t106.5 258q0 152 -107 259t-258 107 q-152 0 -259 -107t-107 -259z" />
<glyph unicode="q" horiz-adv-x="1030" d="M44 427q0 177 125 302t302 125q112 0 210 -55t156 -151v176q0 31 31 30q31 0 30 -30v-1190q0 -31 -30 -30q-31 0 -31 30v572q-58 -96 -156 -151t-210 -55q-177 0 -302 125t-125 302zM106 427q0 -152 107 -258.5t258 -106.5q152 0 259 107t107 258q0 152 -107 259 t-259 107t-258.5 -107t-106.5 -259z" />
<glyph unicode="r" horiz-adv-x="608" d="M132 31v793q0 31 31 30q32 0 31 -73q68 73 167 73q137 0 198 -114q5 -9 6 -17q0 -30 -33 -30q-6 0 -55 50t-116 50q-69 0 -118 -49.5t-49 -118.5v-594q0 -31 -31 -31t-31 31z" />
<glyph unicode="s" horiz-adv-x="597" d="M44 181q0 30 33 30q17 0 27 -21l20 -38q57 -90 168 -90q83 0 141.5 59t58.5 141q0 86 -62 143t-148 57q-79 0 -135 58.5t-56 137.5q0 81 57.5 138.5t138.5 57.5q113 0 169 -96q4 -9 5 -17q0 -30 -32 -30q-7 0 -47 41t-95 41t-95 -40t-40 -95q0 -60 42.5 -97t104.5 -37 q106 0 180 -78t74 -184q0 -107 -76.5 -184.5t-184.5 -77.5q-82 0 -149 46t-96 123q-3 6 -3 12z" />
<glyph unicode="t" horiz-adv-x="687" d="M44 824q0 31 31 30h167v366q0 31 31 31t31 -31v-366h167q31 0 31 -30q0 -31 -31 -31h-167v-564q0 -69 49.5 -118t117.5 -49q44 0 91.5 29t48.5 29q32 0 32 -32q0 -10 -10 -21q-56 -67 -162 -67q-94 0 -161.5 67.5t-67.5 161.5v564h-167q-31 0 -31 31z" />
<glyph unicode="u" horiz-adv-x="766" d="M88 295v529q0 31 31 30q31 0 31 -30v-529q0 -96 68.5 -164.5t164.5 -68.5t165 68.5t69 164.5v529q0 31 30 30q31 0 31 -30v-529q0 -122 -86.5 -208.5t-208.5 -86.5t-208.5 86.5t-86.5 208.5z" />
<glyph unicode="v" horiz-adv-x="943" d="M44 824q0 30 33 30q18 0 26 -16l369 -738l368 738q9 17 27 16q33 0 32 -30q0 -11 -183 -378q-180 -361 -214 -424q-13 -22 -31 -22q-17 0 -30 22q-34 63 -214 424q-183 367 -183 378z" />
<glyph unicode="w" horiz-adv-x="1471" d="M44 824q0 30 33 30q18 0 26 -16l369 -738l230 458q-129 258 -129 266q0 30 32 30q18 0 27 -16l369 -738l368 738q9 17 26 16q33 0 33 -30q0 -7 -397 -802q-11 -22 -31 -22q-18 0 -30 22l-234 468l-234 -468q-11 -22 -31 -22q-18 0 -30 22q-397 795 -397 802z" />
<glyph unicode="x" horiz-adv-x="811" d="M44 824q0 32 32 31q14 0 24 -12l306 -367l306 367q10 12 23 12q32 0 31 -31q0 -11 -7 -20l-313 -377l314 -377q7 -9 7 -19q0 -32 -31 -32q-13 0 -23 12l-307 368l-306 -368q-10 -12 -23 -12q-32 0 -32 32q0 11 8 19l313 377l-314 377q-8 9 -8 20z" />
<glyph unicode="y" horiz-adv-x="810" d="M88 295v529q0 31 31 30q31 0 31 -30v-529q0 -96 68.5 -164.5t164.5 -68.5t165 68.5t69 164.5v529q0 31 30 30q31 0 31 -30v-925q0 -122 -86.5 -208.5t-208.5 -86.5q-173 0 -255 146q-4 9 -5 17q0 30 33 30q11 0 40 -34q37 -43 66 -63q52 -34 121 -35q96 0 165 69t69 165 v216q-89 -115 -234 -115q-122 0 -208.5 86.5t-86.5 208.5z" />
<glyph unicode="z" horiz-adv-x="811" d="M44 31q0 11 11 24l615 738h-594q-31 0 -31 31t31 30l660 1q32 0 31 -31q0 -11 -11 -25l-615 -737h595q31 0 31 -31t-31 -31l-660 -1q-32 0 -32 32z" />
<glyph unicode="{" horiz-adv-x="546" d="M44 427q0 31 31 31q69 0 118 49.5t49 117.5v397q0 94 67.5 161.5t161.5 67.5q31 0 31 -31t-31 -31q-69 0 -118 -49t-49 -118v-397q0 -132 -115 -198q115 -66 115 -198v-396q0 -69 49.5 -118.5t117.5 -49.5q31 0 31 -31t-31 -30q-94 0 -161.5 67t-67.5 162v396 q0 69 -49 118t-118 49q-31 0 -31 31z" />
<glyph unicode="|" horiz-adv-x="295" d="M132 -366v1586q0 31 31 31t31 -31v-1586q0 -31 -31 -30q-31 -1 -31 30z" />
<glyph unicode="}" horiz-adv-x="546" d="M44 -366q0 31 31 31q69 0 118 49.5t49 118.5v396q0 132 115 198q-115 66 -115 198v397q0 69 -49 118t-118 49q-31 0 -31 31t31 31q94 0 161.5 -67.5t67.5 -161.5v-397q0 -69 49.5 -118t117.5 -49q31 0 31 -31t-31 -31q-69 0 -118 -49t-49 -118v-396q0 -94 -67.5 -161.5 t-161.5 -67.5q-31 -1 -31 30z" />
<glyph unicode="~" horiz-adv-x="679" d="M44 426q0 11 10 28q42 70 153 70q65 0 143 -66t121 -66q63 0 93.5 33t38.5 33q33 0 32 -30q0 -11 -10 -27q-42 -70 -154 -71q-64 0 -142.5 66t-121.5 66q-62 0 -92.5 -33t-38.5 -33q-32 0 -32 30z" />
<glyph unicode="&#xa1;" horiz-adv-x="325" d="M98 789q0 26 19.5 45.5t45.5 19.5t45.5 -19t19.5 -46q0 -63 -65 -62q-65 -1 -65 62zM132 -366v859q0 31 31 31t31 -31v-859q0 -31 -31 -30q-31 -1 -31 30z" />
<glyph unicode="&#xa2;" horiz-adv-x="827" d="M44 427q0 142 86 256.5t222 154.5v206q0 31 31 31t31 -31v-193q28 4 57 3q29 0 58 -3v193q0 31 30 31q31 0 31 -31v-206q47 -14 112 -51q81 -47 81 -79t-32 -31q-10 0 -22 9q-43 35 -65 50q-36 25 -74 37v-692q55 19 139 87q11 10 21 10q32 0 32 -32t-80 -78 q-65 -38 -112 -51v-206q0 -31 -31 -31t-30 31v193q-28 -4 -58 -4q-29 0 -57 4v-193q0 -31 -31 -31t-31 31v206q-137 40 -222.5 154t-85.5 256zM106 427q0 -116 68 -211.5t178 -134.5v692q-110 -39 -178 -134.5t-68 -211.5zM414 66q28 -4 57 -4t58 4v722q-28 4 -58 5 q-29 0 -57 -5v-722z" />
<glyph unicode="&#xa3;" horiz-adv-x="943" d="M44 31q0 31 32 31q70 0 118.5 49t48.5 118v300h-167q-31 0 -31 30q0 31 31 31h167v203h-167q-31 0 -31 31t31 30h167v168q0 94 67.5 161.5t161.5 67.5q105 0 162 -67q10 -11 10 -22q0 -31 -32 -31q-2 0 -48.5 29t-91.5 29q-69 0 -118 -49t-49 -118v-168h167q31 0 31 -30 q0 -31 -31 -31h-167v-203h167q31 0 31 -31t-31 -30h-167v-300q0 -100 -72 -167h636q31 0 30 -31q0 -31 -30 -31h-793q-32 0 -32 31z" />
<glyph unicode="&#xa4;" horiz-adv-x="943" d="M44 31q0 14 105 117q-104 120 -104 279t104 279q-105 103 -105 118q0 32 32 31q14 0 116 -105q121 104 280 104t279 -104q103 105 117 105q32 0 31 -31q0 -14 -104 -118q105 -120 104 -279q0 -159 -104 -279q105 -103 104 -117q0 -32 -31 -32q-13 0 -117 105 q-121 -104 -279 -104q-159 0 -280 104q-102 -105 -116 -105q-32 0 -32 32zM107 427q0 -152 107 -258.5t258 -106.5t258.5 107t107.5 258q0 152 -107.5 259t-258.5 107q-152 0 -258.5 -107t-106.5 -259z" />
<glyph unicode="&#xa5;" horiz-adv-x="1031" d="M44 1220q0 32 32 32q14 0 24 -14l438 -562l438 562q10 13 24 14q32 0 31 -32q0 -10 -7 -19l-423 -545h201q31 0 31 -31t-31 -30h-233v-203h233q31 0 31 -31t-31 -31h-233v-299q0 -31 -31 -31t-31 31v299h-233q-31 0 -31 31t31 31h233v203h-233q-31 0 -31 30q0 31 31 31 h201l-424 545q-7 9 -7 19z" />
<glyph unicode="&#xa6;" horiz-adv-x="325" d="M132 295q0 31 31 31t31 -31v-661q0 -31 -31 -30q-31 0 -31 30v661zM132 559v661q0 31 31 31t31 -31v-661q0 -31 -31 -30q-31 -1 -31 30z" />
<glyph unicode="&#xa7;" horiz-adv-x="678" d="M44 427q0 182 164 264q-164 82 -164 265q0 122 87 208.5t208 86.5q170 0 256 -149q4 -8 5 -16q0 -30 -33 -30q-11 0 -39 35q-36 44 -67 64q-52 34 -122 34q-96 0 -164.5 -68.5t-68.5 -164.5t68.5 -165t164.5 -69q122 0 208.5 -86.5t86.5 -208.5q0 -182 -164 -264 q164 -82 164 -264q0 -122 -86.5 -208.5t-208.5 -86.5q-170 0 -256 148q-4 8 -5 16q0 30 33 30q11 0 40 -34q37 -44 67 -64q52 -34 121 -35q96 0 165 69t69 165t-69 164.5t-165 68.5q-122 0 -208.5 86.5t-86.5 208.5zM106 427q0 -96 68.5 -164.5t164.5 -68.5t165 68.5 t69 164.5t-69 165t-165 69t-164.5 -69t-68.5 -165z" />
<glyph unicode="&#xa8;" horiz-adv-x="612" d="M44 1121q0 63 63 64q64 0 65 -64q0 -64 -65 -64q-63 0 -63 64zM440 1121q0 63 64 64q64 0 64 -64t-64 -64t-64 64z" />
<glyph unicode="&#xa9;" horiz-adv-x="1338" d="M44 625q0 259 183 442.5t442 183.5t442.5 -183.5t183.5 -442.5t-183.5 -442t-442.5 -183t-442 183t-183 442zM106 625q0 -233 165 -398t398 -165t398.5 165t165.5 398t-165 398.5t-399 165.5q-233 0 -398 -165.5t-165 -398.5zM341 625q0 136 96.5 232t231.5 96 q145 0 232 -95q10 -11 10 -22q0 -32 -32 -32q1 0 -67 43.5t-143 43.5q-110 0 -188 -77.5t-78 -188.5q0 -110 78 -188t188 -78q75 0 143 44t67 44q32 0 32 -32q0 -11 -10 -22q-86 -96 -232 -96q-136 0 -232 96t-96 232z" />
<glyph unicode="&#xaa;" horiz-adv-x="546" d="M44 427q0 31 31 31h396q31 0 31 -31t-31 -31h-396q-31 0 -31 31zM44 850q0 92 70 154q67 62 159 62q100 0 167 -69v38q0 66 -50 110t-117 44q-46 0 -92 -27t-48 -27q-32 0 -32 31q0 11 11 22q59 63 161 63q92 0 160.5 -62t68.5 -154v-370q0 -31 -31 -31q-32 0 -31 69 q-68 -69 -167 -69q-92 0 -159 62q-70 62 -70 154zM106 850q0 -66 50 -110t117 -44t117 44t50 110t-50 110t-117 44t-117 -44t-50 -110z" />
<glyph unicode="&#xab;" horiz-adv-x="679" d="M44 427q0 6 202 411q9 17 26 16q33 0 33 -30q0 -9 -195 -397q195 -389 195 -397q0 -30 -33 -30q-18 0 -26 17q-202 404 -202 410zM374 427q0 6 202 411q9 17 27 16q33 0 32 -30q0 -9 -195 -397q195 -388 195 -397q0 -30 -32 -30q-18 0 -27 17q-202 404 -202 410z" />
<glyph unicode="&#xac;" d="M44 427q0 31 31 31h705q31 0 30 -31v-396q0 -31 -30 -31q-31 0 -31 31v365h-674q-31 0 -31 31z" />
<glyph unicode="&#xad;" d="M44 526q0 31 31 31h793q31 0 30 -31q0 -31 -30 -31h-793q-31 0 -31 31z" />
<glyph unicode="&#x2212;" d="M44 526q0 31 31 31h793q31 0 30 -31q0 -31 -30 -31h-793q-31 0 -31 31z" />
<glyph unicode="&#xae;" horiz-adv-x="1338" d="M44 625q0 259 183 442.5t442 183.5t442.5 -183.5t183.5 -442.5t-183.5 -442t-442.5 -183t-442 183t-183 442zM106 625q0 -233 165 -398t398 -165t398.5 165t165.5 398t-165 398.5t-399 165.5q-233 0 -398 -165.5t-165 -398.5zM506 328v594q0 31 31 31h165q81 0 138.5 -57 t57.5 -138t-57.5 -139t-138.5 -58h-25l213 -211q10 -10 9 -21q0 -32 -31 -32q-12 0 -22 10l-265 264q-12 12 -12 26q0 26 34 26h99q55 0 95 39.5t40 95.5q0 55 -39.5 94t-95.5 39h-134v-563q0 -31 -31 -31t-31 31z" />
<glyph unicode="&#xaf;" d="M44 1550q0 31 31 31h793q31 0 30 -31q0 -31 -30 -31h-793q-31 0 -31 31z" />
<glyph unicode="&#x2c9;" d="M44 1550q0 31 31 31h793q31 0 30 -31q0 -31 -30 -31h-793q-31 0 -31 31z" />
<glyph unicode="&#xb0;" horiz-adv-x="678" d="M44 956q0 122 87 208.5t208 86.5q122 0 208.5 -87t86.5 -208q0 -122 -86.5 -208.5t-208.5 -86.5t-208.5 86.5t-86.5 208.5zM106 956q0 -96 68.5 -165t164.5 -69t165 69t69 165t-69 164.5t-165 68.5t-164.5 -68.5t-68.5 -164.5z" />
<glyph unicode="&#xb1;" d="M44 31q0 31 31 31h793q31 0 30 -31q0 -31 -30 -31h-793q-31 0 -31 31zM44 691q0 31 31 31h365v366q0 31 31 31t31 -31v-366h366q31 0 30 -31q0 -31 -30 -30h-366v-366q0 -31 -31 -31t-31 31v366h-365q-31 -1 -31 30z" />
<glyph unicode="&#xb2;" horiz-adv-x="650" d="M44 522q0 17 18 29l423 300q59 42 59 137q0 86 -67 145q-63 56 -149 56q-87 0 -151 -56q-67 -58 -67 -145q0 -31 -31 -31t-31 31q0 112 85 189q82 74 195 74q112 0 193 -74q85 -77 85 -189q0 -128 -85 -187l-345 -244h399q31 0 31 -31t-31 -31h-496q-35 0 -35 27z" />
<glyph unicode="&#xb3;" horiz-adv-x="663" d="M44 515q0 31 33 31q11 0 39 -33q37 -41 70 -61q55 -33 125 -34q97 0 169.5 64t72.5 160q0 95 -74 160q-71 63 -168 63q-63 0 -128 -37l-66 -38q-30 0 -30 31q0 14 13 25l400 343h-425q-31 0 -31 31t31 31h509q35 0 35 -27q0 -15 -15 -28l-316 -269h23q122 0 211 -80 q92 -84 93 -205q0 -122 -93 -204q-89 -81 -211 -81q-78 0 -150 37q-75 39 -112 105q-5 8 -5 16z" />
<glyph unicode="&#xb4;" horiz-adv-x="414" d="M44 1089q0 16 18 26q28 18 144 75q122 62 134 62q31 0 31 -33q0 -16 -18 -26q-28 -18 -144 -75q-123 -62 -135 -62q-30 0 -30 33z" />
<glyph unicode="&#xb5;" horiz-adv-x="854" d="M132 -366v1190q0 31 31 30q31 0 31 -30v-529q0 -96 68.5 -164.5t164.5 -68.5t165 68.5t69 164.5v529q0 31 30 30q31 0 31 -30v-793q0 -31 -31 -31t-30 31v84q-89 -115 -234 -115q-144 0 -233 115v-481q0 -31 -31 -30q-31 -1 -31 30z" />
<glyph unicode="&#xb6;" horiz-adv-x="898" d="M44 956q0 122 87 208.5t208 86.5h397q31 0 30 -31v-1189q0 -31 -30 -31q-31 0 -31 31v1158h-335v-1158q0 -31 -31 -31t-31 31v631q-112 11 -188 96t-76 198zM106 956q0 -87 58 -153.5t144 -78.5v463q-86 -11 -144 -77.5t-58 -153.5z" />
<glyph unicode="&#xb7;" d="M406 526q0 63 65 62q65 0 65 -62q0 -26 -19 -45.5t-46 -19.5q-26 0 -45.5 19.5t-19.5 45.5z" />
<glyph unicode="&#xb8;" horiz-adv-x="520" d="M44 -265q0 30 33 30q5 0 54.5 -50t116.5 -50q69 0 118 49.5t49 118.5t-49.5 118t-117.5 49q-31 0 -31 31t31 31q94 0 161.5 -67.5t67.5 -161.5t-67.5 -161.5t-161.5 -67.5q-136 0 -200 115q-4 8 -4 16z" />
<glyph unicode="&#xb9;" horiz-adv-x="480" d="M44 1035q0 13 11 23l193 180q13 13 26 14q31 0 31 -38v-657h101q31 0 31 -31t-31 -31h-264q-31 0 -31 31t31 31h101v592l-147 -137q-9 -9 -20 -9q-32 0 -32 32z" />
<glyph unicode="&#xba;" horiz-adv-x="744" d="M44 427q0 31 31 31h594q31 0 31 -31t-31 -31h-594q-31 0 -31 31zM44 943q0 131 100 221q96 87 228 87q133 0 229 -87q100 -90 99 -221q0 -131 -99 -222q-96 -87 -229 -87q-132 0 -228 87q-100 91 -100 222zM106 943q0 -105 81 -178q78 -70 185 -69q107 0 187 71t80 176 t-81 177q-78 70 -186 69q-107 0 -185 -69q-81 -72 -81 -177z" />
<glyph unicode="&#xbb;" horiz-adv-x="679" d="M44 30q0 9 195 397q-195 388 -195 397q0 30 33 30q18 0 26 -16q202 -404 202 -411q0 -6 -202 -410q-9 -17 -26 -17q-33 0 -33 30zM374 30q0 9 195 397q-195 388 -195 397q0 30 33 30q18 0 26 -16q202 -404 202 -411q0 -6 -202 -410q-9 -17 -26 -17q-33 0 -33 30z" />
<glyph unicode="&#xbc;" horiz-adv-x="1395" d="M44 1035q0 13 11 23l193 180q13 13 26 14q31 0 31 -38v-657h101q31 0 31 -31t-31 -31h-264q-31 0 -31 31t31 31h101v592l-147 -137q-9 -9 -20 -9q-32 0 -32 32zM99 31q0 12 9 22l1190 1189q10 10 22 10q32 0 31 -32q0 -12 -9 -22l-1190 -1189q-10 -10 -22 -10 q-31 0 -31 32zM691 165q0 11 9 23l397 555q12 18 28 17q27 0 27 -36v-524h168q31 0 30 -31q0 -31 -30 -31h-168v-245q0 -32 -31 -32t-30 32v245h-366q-34 1 -34 27zM785 200h306v428z" />
<glyph unicode="&#xbd;" horiz-adv-x="1395" d="M44 1035q0 13 11 23l193 180q13 13 26 14q31 0 31 -38v-657h101q31 0 31 -31t-31 -31h-264q-31 0 -31 31t31 31h101v592l-147 -137q-9 -9 -20 -9q-32 0 -32 32zM99 31q0 12 9 22l1190 1189q10 10 22 10q32 0 31 -32q0 -12 -9 -22l-1190 -1189q-10 -10 -22 -10 q-31 0 -31 32zM788 27q0 16 18 29l425 300q58 41 58 137q0 85 -66 145q-64 55 -151 55t-151 -55q-66 -59 -66 -145q0 -31 -31 -31t-30 31q0 111 83 188q82 74 195 74q112 0 194 -74q85 -77 84 -188q0 -128 -84 -187l-345 -244h399q31 0 30 -31q0 -31 -30 -31h-496 q-36 0 -36 27z" />
<glyph unicode="&#xbe;" horiz-adv-x="1573" d="M44 515q0 31 33 31q11 0 39 -33q37 -41 70 -61q55 -33 125 -34q97 0 169.5 64t72.5 160q0 95 -72.5 159.5t-169.5 64.5q-63 0 -128 -38l-66 -38q-30 0 -30 31q0 14 13 25l400 343h-425q-31 0 -31 31t31 31h509q35 0 35 -27q0 -15 -15 -28l-316 -269q11 1 23 1 q122 0 211 -81q92 -84 93 -205q0 -122 -93 -204q-89 -81 -211 -81q-78 0 -150 37q-75 39 -112 105q-5 8 -5 16zM277 31q0 12 10 22l1189 1189q9 10 21 10q32 0 32 -32q0 -12 -10 -22l-1189 -1189q-10 -10 -21 -10q-32 0 -32 32zM869 165q0 11 9 23l397 555q12 18 29 17 q26 0 26 -36v-524h167q31 0 31 -31t-31 -31h-167v-245q0 -32 -31 -32t-31 32v245h-365q-34 1 -34 27zM963 200h305v428z" />
<glyph unicode="&#xbf;" horiz-adv-x="678" d="M44 -101q0 122 87 208.5t208 86.5q55 0 94.5 39.5t39.5 94.5t-39 94.5t-95 39.5q-20 0 -48 -11t-36 -11q-29 0 -29 32q0 25 45 41q35 11 68 11q81 0 138.5 -57.5t57.5 -138.5q0 -80 -57.5 -138t-138.5 -58q-96 0 -164.5 -68.5t-68.5 -164.5t68.5 -165t164.5 -69t165 69 t69 165q0 31 30 31q31 0 31 -31q0 -122 -86.5 -208.5t-208.5 -86.5t-208.5 86.5t-86.5 208.5zM274 789q0 26 19.5 45.5t45.5 19.5t45.5 -19t19.5 -46q0 -63 -65 -62q-65 -1 -65 62z" />
<glyph unicode="&#xc0;" horiz-adv-x="1339" d="M44 30q0 11 275 564q274 550 321 635q12 22 29 22q18 0 31 -22q47 -85 321 -635q275 -553 275 -564q0 -30 -33 -30q-18 0 -26 17l-190 379h-2h-753l-189 -379q-9 -17 -26 -17q-33 0 -33 30zM323 458h694l-347 693zM520 1615q0 33 30 33q12 0 134 -62q116 -57 145 -74 q18 -11 18 -27q0 -33 -30 -32q-12 0 -135 61q-116 57 -145 75q-17 10 -17 26z" />
<glyph unicode="&#xc1;" horiz-adv-x="1339" d="M44 30q0 11 275 564q274 550 321 635q12 22 29 22q18 0 31 -22q47 -85 321 -635q275 -553 275 -564q0 -30 -33 -30q-18 0 -26 17l-190 379h-2h-753l-189 -379q-9 -17 -26 -17q-33 0 -33 30zM323 458h694l-347 693zM520 1485q0 16 17 27q28 18 145 74q122 62 135 62 q30 0 30 -33q0 -16 -18 -26q-28 -18 -145 -75q-122 -62 -134 -61q-30 -1 -30 32z" />
<glyph unicode="&#xc2;" horiz-adv-x="1339" d="M44 30q0 11 275 564q274 550 321 635q12 22 29 22q18 0 31 -22q47 -85 321 -635q275 -553 275 -564q0 -30 -33 -30q-18 0 -26 17l-190 379h-2h-753l-189 -379q-9 -17 -26 -17q-33 0 -33 30zM323 458h694l-347 693zM440 1485q0 15 15 25l195 130q11 8 20 8q8 0 20 -8 l195 -130q14 -10 14 -25q0 -33 -30 -32q-9 0 -18 6l-181 120l-181 -120q-9 -6 -18 -6q-31 -1 -31 32z" />
<glyph unicode="&#xc3;" horiz-adv-x="1339" d="M44 30q0 11 275 564q274 550 321 635q12 22 29 22q18 0 31 -22q47 -85 321 -635q275 -553 275 -564q0 -30 -33 -30q-18 0 -26 17l-190 379h-2h-753l-189 -379q-9 -17 -26 -17q-33 0 -33 30zM323 458h694l-347 693zM388 1549q0 11 10 28q41 70 153 70q64 0 142.5 -66 t121.5 -66q63 0 93.5 33t37.5 33q33 0 33 -30q0 -11 -10 -27q-42 -70 -154 -71q-64 0 -142 66.5t-122 66.5q-63 0 -93.5 -33.5t-37.5 -33.5q-32 0 -32 30z" />
<glyph unicode="&#xc4;" horiz-adv-x="1339" d="M44 30q0 11 275 564q274 550 321 635q12 22 29 22q18 0 31 -22q47 -85 321 -635q275 -553 275 -564q0 -30 -33 -30q-18 0 -26 17l-190 379h-2h-753l-189 -379q-9 -17 -26 -17q-33 0 -33 30zM323 458h694l-347 693zM409 1518q0 63 63 63q64 0 64 -63q0 -64 -64 -65 q-63 1 -63 65zM805 1518q0 63 64 63t64 -63q0 -64 -64 -65q-64 1 -64 65z" />
<glyph unicode="&#xc5;" horiz-adv-x="1339" d="M44 30q0 11 275 564q274 550 321 635q12 22 29 22q18 0 31 -22q47 -85 321 -635q275 -553 275 -564q0 -30 -33 -30q-18 0 -26 17l-190 379h-2h-753l-189 -379q-9 -17 -26 -17q-33 0 -33 30zM323 458h694l-347 693zM514 1494q0 64 45.5 110t110.5 46q64 0 110 -46t46 -110 t-45.5 -108.5t-110.5 -44.5t-110.5 44.5t-45.5 108.5zM575 1494q0 -40 28 -66t67 -26t67 26t28 66q0 39 -28.5 66.5t-66.5 27.5q-39 0 -67 -27.5t-28 -66.5z" />
<glyph unicode="&#xc6;" horiz-adv-x="1604" d="M44 30q0 10 5 18l793 1189q10 15 26 14h661q31 0 31 -31t-31 -31h-630v-533h498q31 0 31 -31t-31 -30h-498v-533h630q31 0 31 -31t-31 -31h-660q-31 0 -31 31v365h-482l-255 -382q-10 -14 -24 -14q-33 0 -33 30zM397 458h441v660z" />
<glyph unicode="&#xc7;" horiz-adv-x="1165" d="M44 625q0 259 183 442.5t442 183.5q122 0 240 -48q122 -49 203 -135q10 -10 9 -22q0 -32 -31 -31q-11 0 -22 9q-193 165 -399 165q-233 0 -398 -165t-165 -399q0 -233 165 -398t398 -165q205 0 399 164q11 10 22 10q32 0 31 -32q0 -11 -9 -21q-116 -125 -304 -168 q91 -69 90 -182q0 -94 -67 -161.5t-162 -67.5q-128 0 -199 115q-4 7 -4 16q0 30 33 30q6 0 53.5 -50t116.5 -50t118.5 49.5t49.5 118.5t-49.5 118t-118.5 49q-259 0 -442 183t-183 442z" />
<glyph unicode="&#xc8;" horiz-adv-x="898" d="M132 31v1189q0 31 31 31h661q31 0 30 -31q0 -31 -30 -31h-630v-533h497q31 0 31 -31t-31 -30h-497v-533h630q31 0 30 -31q0 -31 -30 -31h-661q-31 0 -31 31zM330 1615q0 33 30 33q11 0 135 -62q115 -57 145 -74q17 -11 16 -27q0 -33 -30 -32q-11 0 -134 61 q-115 57 -145 75q-17 10 -17 26z" />
<glyph unicode="&#xc9;" horiz-adv-x="898" d="M132 31v1189q0 31 31 31h661q31 0 30 -31q0 -31 -30 -31h-630v-533h497q31 0 31 -31t-31 -30h-497v-533h630q31 0 30 -31q0 -31 -30 -31h-661q-31 0 -31 31zM330 1485q0 16 17 27q29 18 145 74q123 62 134 62q30 0 30 -33q0 -16 -16 -26q-29 -18 -145 -75 q-123 -62 -135 -61q-30 -1 -30 32z" />
<glyph unicode="&#xca;" horiz-adv-x="898" d="M132 31v1189q0 31 31 31h661q31 0 30 -31q0 -31 -30 -31h-630v-533h497q31 0 31 -31t-31 -30h-497v-533h630q31 0 30 -31q0 -31 -30 -31h-661q-31 0 -31 31zM264 1485q0 15 14 25l196 130q11 8 19 8q9 0 20 -8l195 -130q14 -10 14 -25q0 -33 -30 -32q-10 0 -17 6 l-182 120l-181 -120q-8 -6 -18 -6q-30 -1 -30 32z" />
<glyph unicode="&#xcb;" horiz-adv-x="898" d="M132 31v1189q0 31 31 31h661q31 0 30 -31q0 -31 -30 -31h-630v-533h497q31 0 31 -31t-31 -30h-497v-533h630q31 0 30 -31q0 -31 -30 -31h-661q-31 0 -31 31zM232 1518q0 63 63 63q64 0 64 -63q0 -64 -64 -65q-63 1 -63 65zM628 1518q0 63 63 63q64 0 65 -63 q0 -64 -65 -65q-63 1 -63 65z" />
<glyph unicode="&#xcc;" horiz-adv-x="325" d="M0 1615q0 33 30 33q11 0 135 -62q115 -57 144 -74q17 -11 17 -27q0 -33 -30 -32q-11 0 -135 61q-115 57 -144 75q-17 10 -17 26zM129 31v1189q0 31 31 31t31 -31v-1189q0 -31 -31 -31t-31 31z" />
<glyph unicode="&#xcd;" horiz-adv-x="325" d="M0 1485q0 16 17 27q29 18 144 74q123 62 135 62q30 0 30 -33q0 -16 -17 -26q-29 -18 -144 -75q-123 -62 -135 -61q-30 -1 -30 32zM129 31v1189q0 31 31 31t31 -31v-1189q0 -31 -31 -31t-31 31z" />
<glyph unicode="&#xce;" horiz-adv-x="325" d="M-66 1485q0 15 14 25l196 130q11 8 19 8q9 0 19 -8l196 -130q14 -10 14 -25q0 -33 -30 -32q-10 0 -18 6l-181 120l-181 -120q-8 -6 -18 -6q-30 -1 -30 32zM132 31v1189q0 31 31 31t31 -31v-1189q0 -31 -31 -31t-31 31z" />
<glyph unicode="&#xcf;" horiz-adv-x="325" d="M-99 1518q0 63 64 63q63 0 63 -63q0 -64 -63 -65q-64 1 -64 65zM131 31v1189q0 31 31 31t31 -31v-1189q0 -31 -31 -31t-31 31zM297 1518q0 63 63 63q64 0 65 -63q0 -64 -65 -65q-63 1 -63 65z" />
<glyph unicode="&#xd0;" horiz-adv-x="1294" d="M0 625q0 31 31 31h167v564q0 31 31 31h396q259 0 442.5 -183.5t183.5 -442.5t-183.5 -442t-442.5 -183h-396q-31 0 -31 31v564h-167q-31 -1 -31 30zM260 62h365q233 0 398.5 165t165.5 398t-165 398.5t-399 165.5h-365v-533h167q31 0 31 -31t-31 -30h-167v-533z" />
<glyph unicode="&#xd1;" horiz-adv-x="1251" d="M132 1220q0 31 32 31q14 0 27 -16l867 -1114v1099q0 31 31 31t31 -31v-1189q0 -31 -32 -31q-14 0 -27 16l-866 1114v-1099q0 -31 -31 -31t-31 31zM330 1549q0 11 11 28q42 70 153 70q64 0 142 -66t122 -66q62 0 93 33t39 33q32 0 31 -30q0 -11 -9 -27q-42 -70 -154 -71 q-65 0 -143 66.5t-121 66.5q-63 0 -93.5 -33.5t-37.5 -33.5q-33 0 -33 30z" />
<glyph unicode="&#xd2;" horiz-adv-x="1338" d="M44 625q0 259 183 442.5t442 183.5t442.5 -183.5t183.5 -442.5t-183.5 -442t-442.5 -183t-442 183t-183 442zM106 625q0 -233 165 -398t398 -165t398.5 165t165.5 398t-165 398.5t-399 165.5q-233 0 -398 -165.5t-165 -398.5zM520 1615q0 33 30 33q11 0 134 -62 q115 -57 145 -74q17 -11 17 -27q0 -33 -30 -32q-11 0 -135 61q-115 57 -145 75q-16 10 -16 26z" />
<glyph unicode="&#xd3;" horiz-adv-x="1338" d="M44 625q0 259 183 442.5t442 183.5t442.5 -183.5t183.5 -442.5t-183.5 -442t-442.5 -183t-442 183t-183 442zM106 625q0 -233 165 -398t398 -165t398.5 165t165.5 398t-165 398.5t-399 165.5q-233 0 -398 -165.5t-165 -398.5zM520 1485q0 16 16 27q29 18 145 74 q123 62 135 62q30 0 30 -33q0 -16 -17 -26q-29 -18 -145 -75q-123 -62 -134 -61q-30 -1 -30 32z" />
<glyph unicode="&#xd4;" horiz-adv-x="1338" d="M44 625q0 259 183 442.5t442 183.5t442.5 -183.5t183.5 -442.5t-183.5 -442t-442.5 -183t-442 183t-183 442zM106 625q0 -233 165 -398t398 -165t398.5 165t165.5 398t-165 398.5t-399 165.5q-233 0 -398 -165.5t-165 -398.5zM440 1485q0 15 15 25l195 130q11 8 19 8 q9 0 20 -8l195 -130q14 -10 14 -25q0 -33 -29 -32q-10 0 -18 6l-182 120l-181 -120q-8 -6 -18 -6q-30 -1 -30 32z" />
<glyph unicode="&#xd5;" horiz-adv-x="1338" d="M44 625q0 259 183 442.5t442 183.5t442.5 -183.5t183.5 -442.5t-183.5 -442t-442.5 -183t-442 183t-183 442zM106 625q0 -233 165 -398t398 -165t398.5 165t165.5 398t-165 398.5t-399 165.5q-233 0 -398 -165.5t-165 -398.5zM388 1549q0 11 9 28q42 70 154 70 q64 0 142.5 -66t121.5 -66q63 0 93 33t38 33q32 0 32 -30q0 -11 -10 -27q-42 -70 -153 -71q-64 0 -142.5 66.5t-121.5 66.5q-63 0 -93.5 -33.5t-38.5 -33.5q-31 0 -31 30z" />
<glyph unicode="&#xd6;" horiz-adv-x="1338" d="M44 625q0 259 183 442.5t442 183.5t442.5 -183.5t183.5 -442.5t-183.5 -442t-442.5 -183t-442 183t-183 442zM106 625q0 -233 165 -398t398 -165t398.5 165t165.5 398t-165 398.5t-399 165.5q-233 0 -398 -165.5t-165 -398.5zM408 1518q0 63 63 63q64 0 65 -63 q0 -64 -65 -65q-63 1 -63 65zM804 1518q0 63 64 63t64 -63q0 -64 -64 -65q-64 1 -64 65z" />
<glyph unicode="&#xd7;" d="M159 147q0 12 10 22l259 258l-259 258q-10 10 -10 22q0 32 32 32q12 0 22 -10l258 -259l258 259q10 10 22 10q32 0 32 -32q0 -12 -10 -22l-259 -258l259 -258q10 -10 10 -22q0 -32 -32 -32q-12 0 -22 10l-258 259l-258 -259q-10 -10 -22 -10q-32 0 -32 32z" />
<glyph unicode="&#xd8;" horiz-adv-x="1339" d="M44 31q0 12 10 22l152 152q-161 179 -161 420q0 259 183 442.5t442 183.5q240 0 420 -162l153 153q10 10 21 10q32 0 32 -32q0 -12 -10 -22l-152 -152q162 -179 162 -421q0 -259 -184 -442t-442 -183q-241 0 -420 162l-153 -153q-10 -10 -21 -10q-32 0 -32 32zM107 625 q0 -216 143 -376l796 797q-160 144 -376 143q-233 0 -398 -165.5t-165 -398.5zM294 205q160 -144 376 -143q233 0 398.5 165t165.5 398q0 216 -144 377z" />
<glyph unicode="&#xd9;" horiz-adv-x="1030" d="M88 427v793q0 31 31 31t31 -31v-793q0 -152 107 -258.5t258 -106.5q152 0 259 107t107 258v793q0 31 31 31t31 -31v-793q0 -177 -125.5 -302t-302.5 -125t-302 125t-125 302zM352 1615q0 33 30 33q11 0 135 -62q115 -57 145 -74q17 -11 16 -27q0 -33 -30 -32 q-11 0 -134 61q-115 57 -145 75q-17 10 -17 26z" />
<glyph unicode="&#xda;" horiz-adv-x="1030" d="M88 427v793q0 31 31 31t31 -31v-793q0 -152 107 -258.5t258 -106.5q152 0 259 107t107 258v793q0 31 31 31t31 -31v-793q0 -177 -125.5 -302t-302.5 -125t-302 125t-125 302zM352 1485q0 16 17 27q29 18 145 74q123 62 134 62q30 0 30 -33q0 -16 -16 -26 q-29 -18 -145 -75q-123 -62 -135 -61q-30 -1 -30 32z" />
<glyph unicode="&#xdb;" horiz-adv-x="1030" d="M88 427v793q0 31 31 31t31 -31v-793q0 -152 107 -258.5t258 -106.5q152 0 259 107t107 258v793q0 31 31 31t31 -31v-793q0 -177 -125.5 -302t-302.5 -125t-302 125t-125 302zM286 1485q0 15 14 25l196 130q11 8 19 8q9 0 20 -8l195 -130q14 -10 14 -25q0 -33 -30 -32 q-10 0 -17 6l-182 120l-181 -120q-8 -6 -18 -6q-30 -1 -30 32z" />
<glyph unicode="&#xdc;" horiz-adv-x="1030" d="M88 427v793q0 31 31 31t31 -31v-793q0 -152 107 -258.5t258 -106.5q152 0 259 107t107 258v793q0 31 31 31t31 -31v-793q0 -177 -125.5 -302t-302.5 -125t-302 125t-125 302zM254 1518q0 63 63 63q64 0 64 -63q0 -64 -64 -65q-63 1 -63 65zM650 1518q0 63 63 63 q64 0 65 -63q0 -64 -65 -65q-63 1 -63 65z" />
<glyph unicode="&#xdd;" horiz-adv-x="1031" d="M44 1220q0 32 32 32q14 0 24 -14l438 -562l438 562q10 13 24 14q32 0 31 -32q0 -10 -7 -19l-455 -586v-584q0 -31 -31 -31t-31 31v584l-456 586q-7 9 -7 19zM374 1485q0 16 18 27q28 18 144 74q123 62 135 62q30 0 30 -33q0 -16 -17 -26q-28 -18 -145 -75 q-122 -62 -134 -61q-31 -1 -31 32z" />
<glyph unicode="&#xde;" horiz-adv-x="1030" d="M132 31v1189q0 31 31 31t31 -31v-167h365q177 0 302.5 -125.5t125.5 -302.5t-125.5 -302t-302.5 -125h-365v-167q0 -31 -31 -31t-31 31zM194 260h365q152 0 259 107t107 258q0 152 -107 259t-259 107h-365v-731z" />
<glyph unicode="&#xdf;" horiz-adv-x="949" d="M132 31v935q0 118 83.5 201.5t200.5 83.5q107 0 182.5 -76t75.5 -182q0 -92 -43 -154q-4 -5 -82 -84q-44 -45 -44 -97q0 -60 42 -97t103 -37q107 0 181.5 -78t74.5 -184q0 -107 -77.5 -184.5t-185.5 -77.5q-177 0 -245 169q-2 5 -2 12q0 30 32 30q17 0 28 -21 q5 -11 18 -35q59 -93 169 -93q83 0 142 59t59 141q0 86 -61.5 143t-148.5 57q-79 0 -135 58.5t-56 137.5q0 85 84.5 161t84.5 174q0 81 -57 138.5t-139 57.5q-92 0 -157 -65t-65 -158v-935q0 -31 -31 -31t-31 31z" />
<glyph unicode="&#xe0;" horiz-adv-x="722" d="M44 295q0 122 87 208.5t208 86.5q144 0 234 -114v83q0 96 -69 165t-165 69q-63 0 -125.5 -39.5t-61.5 -39.5q-32 0 -31 32q0 11 9 22q79 86 209 86q122 0 208.5 -86.5t86.5 -208.5v-528q0 -31 -31 -31t-30 31v84q-89 -115 -234 -115q-122 0 -208.5 86.5t-86.5 208.5z M106 295q0 -96 68.5 -164.5t164.5 -68.5t165 68.5t69 164.5t-69 165t-165 69t-164.5 -69t-68.5 -165zM176 1219q0 33 30 33q11 0 135 -62q115 -57 144 -75q17 -11 17 -26q0 -33 -30 -33q-11 0 -135 62q-115 57 -144 75q-17 10 -17 26z" />
<glyph unicode="&#xe1;" horiz-adv-x="722" d="M44 295q0 122 87 208.5t208 86.5q144 0 234 -114v83q0 96 -69 165t-165 69q-63 0 -125.5 -39.5t-61.5 -39.5q-32 0 -31 32q0 11 9 22q79 86 209 86q122 0 208.5 -86.5t86.5 -208.5v-528q0 -31 -31 -31t-30 31v84q-89 -115 -234 -115q-122 0 -208.5 86.5t-86.5 208.5z M106 295q0 -96 68.5 -164.5t164.5 -68.5t165 68.5t69 164.5t-69 165t-165 69t-164.5 -69t-68.5 -165zM176 1089q0 16 17 26q29 18 144 75q123 62 135 62q30 0 30 -33q0 -16 -17 -26q-29 -18 -144 -75q-123 -62 -135 -62q-30 0 -30 33z" />
<glyph unicode="&#xe2;" horiz-adv-x="722" d="M44 295q0 122 87 208.5t208 86.5q144 0 234 -114v83q0 96 -69 165t-165 69q-63 0 -125.5 -39.5t-61.5 -39.5q-32 0 -31 32q0 11 9 22q79 86 209 86q122 0 208.5 -86.5t86.5 -208.5v-528q0 -31 -31 -31t-30 31v84q-89 -115 -234 -115q-122 0 -208.5 86.5t-86.5 208.5z M106 295q0 -96 68.5 -164.5t164.5 -68.5t165 68.5t69 164.5t-69 165t-165 69t-164.5 -69t-68.5 -165zM110 1089q0 15 14 24l196 131q11 8 19 8q9 0 20 -8l195 -131q14 -10 14 -24q0 -33 -30 -33q-10 0 -17 6l-182 121l-181 -121q-8 -6 -18 -6q-30 0 -30 33z" />
<glyph unicode="&#xe3;" horiz-adv-x="723" d="M44 295q0 122 87 208.5t208 86.5q145 0 234 -114v83q0 96 -68.5 165t-165.5 69q-62 0 -125 -39l-62 -40q-32 0 -31 32q0 11 9 22q79 86 209 86q122 0 208.5 -86.5t86.5 -208.5v-528q0 -31 -31 -31t-30 31v84q-88 -115 -234 -115q-122 0 -208.5 86.5t-86.5 208.5zM44 1153 q0 11 10 27q42 70 153 71q65 0 143 -66t121 -66q63 0 93.5 33t38.5 33q33 0 32 -30q0 -11 -10 -27q-42 -70 -154 -71q-64 0 -142.5 66t-121.5 66q-62 0 -92.5 -33t-38.5 -33q-32 0 -32 30zM106 295q0 -96 68.5 -164.5t164.5 -68.5q97 0 165.5 68.5t68.5 164.5t-68.5 165 t-165.5 69q-96 0 -164.5 -69t-68.5 -165z" />
<glyph unicode="&#xe4;" horiz-adv-x="722" d="M44 295q0 122 87 208.5t208 86.5q144 0 234 -114v83q0 96 -69 165t-165 69q-63 0 -125.5 -39.5t-61.5 -39.5q-32 0 -31 32q0 11 9 22q79 86 209 86q122 0 208.5 -86.5t86.5 -208.5v-528q0 -31 -31 -31t-30 31v84q-89 -115 -234 -115q-122 0 -208.5 86.5t-86.5 208.5z M78 1121q0 63 63 64q64 0 64 -64t-64 -64q-63 0 -63 64zM106 295q0 -96 68.5 -164.5t164.5 -68.5t165 68.5t69 164.5t-69 165t-165 69t-164.5 -69t-68.5 -165zM474 1121q0 63 63 64q64 0 65 -64q0 -64 -65 -64q-63 0 -63 64z" />
<glyph unicode="&#xe5;" horiz-adv-x="722" d="M44 295q0 122 87 208.5t208 86.5q144 0 234 -114v83q0 96 -69 165t-165 69q-63 0 -125.5 -39.5t-61.5 -39.5q-32 0 -31 32q0 11 9 22q79 86 209 86q122 0 208.5 -86.5t86.5 -208.5v-528q0 -31 -31 -31t-30 31v84q-89 -115 -234 -115q-122 0 -208.5 86.5t-86.5 208.5z M106 295q0 -96 68.5 -164.5t164.5 -68.5t165 68.5t69 164.5t-69 165t-165 69t-164.5 -69t-68.5 -165zM182 1120q0 64 46.5 109.5t110.5 45.5t110 -45.5t46 -109.5t-46 -109t-110 -45t-110.5 45t-46.5 109zM244 1120q0 -40 28 -66t67 -26t66.5 26t27.5 66q0 39 -27.5 66.5 t-66.5 27.5t-67 -27.5t-28 -66.5z" />
<glyph unicode="&#xe6;" horiz-adv-x="1418" d="M44 295q0 122 87 208.5t208 86.5q144 0 234 -114v83q0 96 -69 165t-165 69q-63 0 -125 -39l-62 -40q-32 0 -31 32q0 11 9 22q81 86 209 86q100 0 180.5 -62t105.5 -160q55 102 157 162t218 60q70 0 142 -25q69 -26 141 -81q90 -68 90 -123q0 -18 -15 -26l-659 -381 q109 -157 301 -156q171 0 279 129l37 54q12 15 26 15q32 0 32 -30q0 -8 -4 -17q-55 -98 -156 -155.5t-214 -57.5q-116 0 -217.5 60t-157.5 162q-26 -98 -105.5 -160t-180.5 -62q-122 0 -208.5 86.5t-86.5 208.5zM106 295q0 -96 68.5 -164.5t164.5 -68.5t165 68.5t69 164.5 t-69 165t-165 69t-164.5 -69t-68.5 -165zM634 427q0 -82 35 -156l631 365q-109 157 -300 157q-152 0 -259 -107t-107 -259z" />
<glyph unicode="&#xe7;" horiz-adv-x="827" d="M44 427q0 177 125 302t302 125q189 0 302 -125q10 -11 10 -21q0 -32 -32 -31q5 0 -87 58t-193 58q-152 0 -258.5 -107t-106.5 -259t107 -258.5t258 -106.5q100 0 193 58t86 58q32 0 32 -32q0 -29 -76 -75q-59 -36 -103 -51q98 -69 97 -187q0 -94 -67 -161.5t-162 -67.5 q-131 0 -199 115q-4 7 -4 16q0 30 32 30q6 0 54 -50t117 -50t118.5 49.5t49.5 118.5t-49.5 118t-118.5 49q-177 0 -302 125t-125 302z" />
<glyph unicode="&#xe8;" horiz-adv-x="889" d="M44 427q0 177 125 302t302 125q70 0 143 -25q68 -25 141 -80q90 -69 90 -124q0 -18 -15 -26l-659 -381q109 -157 300 -156q166 0 272 121l44 62q11 15 27 15q32 0 32 -30q0 -8 -5 -17q-56 -98 -156 -155.5t-214 -57.5q-177 0 -302 125t-125 302zM106 427q0 -82 34 -156 l632 365q-109 157 -301 157q-152 0 -258.5 -107t-106.5 -259zM308 1219q0 33 30 33q11 0 135 -62q115 -57 144 -75q17 -11 17 -26q0 -33 -30 -33q-11 0 -135 62q-115 57 -144 75q-17 10 -17 26z" />
<glyph unicode="&#xe9;" horiz-adv-x="889" d="M44 427q0 177 125 302t302 125q70 0 143 -25q68 -25 141 -80q90 -69 90 -124q0 -18 -15 -26l-659 -381q109 -157 300 -156q166 0 272 121l44 62q11 15 27 15q32 0 32 -30q0 -8 -5 -17q-56 -98 -156 -155.5t-214 -57.5q-177 0 -302 125t-125 302zM106 427q0 -82 34 -156 l632 365q-109 157 -301 157q-152 0 -258.5 -107t-106.5 -259zM308 1089q0 16 17 26q29 18 144 75q123 62 135 62q30 0 30 -33q0 -16 -17 -26q-29 -18 -144 -75q-123 -62 -135 -62q-30 0 -30 33z" />
<glyph unicode="&#xea;" horiz-adv-x="889" d="M44 427q0 177 125 302t302 125q70 0 143 -25q68 -25 141 -80q90 -69 90 -124q0 -18 -15 -26l-659 -381q109 -157 300 -156q166 0 272 121l44 62q11 15 27 15q32 0 32 -30q0 -8 -5 -17q-56 -98 -156 -155.5t-214 -57.5q-177 0 -302 125t-125 302zM106 427q0 -82 34 -156 l632 365q-109 157 -301 157q-152 0 -258.5 -107t-106.5 -259zM242 1089q0 15 14 24l196 131q11 8 19 8q9 0 20 -8l195 -131q14 -10 14 -24q0 -33 -30 -33q-10 0 -17 6l-182 121l-181 -121q-8 -6 -18 -6q-30 0 -30 33z" />
<glyph unicode="&#xeb;" horiz-adv-x="889" d="M44 427q0 177 125 302t302 125q70 0 143 -25q68 -25 141 -80q90 -69 90 -124q0 -18 -15 -26l-659 -381q109 -157 300 -156q166 0 272 121l44 62q11 15 27 15q32 0 32 -30q0 -8 -5 -17q-56 -98 -156 -155.5t-214 -57.5q-177 0 -302 125t-125 302zM106 427q0 -82 34 -156 l632 365q-109 157 -301 157q-152 0 -258.5 -107t-106.5 -259zM210 1121q0 63 63 64q64 0 64 -64t-64 -64q-63 0 -63 64zM606 1121q0 63 63 64q64 0 65 -64q0 -64 -65 -64q-63 0 -63 64z" />
<glyph unicode="&#xec;" horiz-adv-x="325" d="M0 1219q0 33 30 33q11 0 135 -62q115 -57 144 -75q17 -11 17 -26q0 -33 -30 -33q-11 0 -135 62q-115 57 -144 75q-17 10 -17 26zM132 31v793q0 31 31 30q31 0 31 -30v-793q0 -31 -31 -31t-31 31z" />
<glyph unicode="&#xed;" horiz-adv-x="325" d="M0 1089q0 16 17 26q29 18 144 75q123 62 135 62q30 0 30 -33q0 -16 -17 -26q-29 -18 -144 -75q-123 -62 -135 -62q-30 0 -30 33zM132 31v793q0 31 31 30q31 0 31 -30v-793q0 -31 -31 -31t-31 31z" />
<glyph unicode="&#xee;" horiz-adv-x="325" d="M-66 1089q0 15 14 24l196 131q11 8 19 8q9 0 19 -8l196 -131q14 -10 14 -24q0 -33 -30 -33q-10 0 -18 6l-181 121l-181 -121q-8 -6 -18 -6q-30 0 -30 33zM132 31v793q0 31 31 30q31 0 31 -30v-793q0 -31 -31 -31t-31 31z" />
<glyph unicode="&#xef;" horiz-adv-x="325" d="M-99 1121q0 63 64 64q64 0 64 -64t-64 -64t-64 64zM132 31v793q0 31 31 30q31 0 31 -30l-1 -793q0 -31 -30 -31q-31 0 -31 31zM297 1121q0 63 63 64q64 0 65 -64q0 -64 -65 -64q-63 0 -63 64z" />
<glyph unicode="&#xf0;" d="M44 427q0 177 125 302t302 125q53 0 104 -12l-216 215h-218q-31 0 -31 31t31 31h157q-90 86 -90 101q0 32 32 32q14 0 145 -133h417q31 0 30 -31q0 -31 -30 -31h-355l333 -332q119 -119 118 -298q0 -177 -125 -302t-302 -125t-302 125t-125 302zM106 427 q0 -152 107 -258.5t258 -106.5q152 0 259 107t107 258q0 152 -107 259t-259 107t-258.5 -107t-106.5 -259z" />
<glyph unicode="&#xf1;" horiz-adv-x="811" d="M132 31v793q0 31 31 30q31 0 31 -30v-84q89 115 233 114q122 0 208.5 -86.5t86.5 -208.5v-528q0 -31 -31 -31t-30 31v528q0 96 -68.5 165t-165.5 69q-96 0 -164.5 -69t-68.5 -165v-528q0 -31 -31 -31t-31 31zM132 1153q0 11 10 27q42 70 153 71q65 0 143 -66t121 -66 q63 0 94 33t38 33q33 0 32 -30q0 -11 -10 -27q-42 -70 -154 -71q-64 0 -142.5 66t-121.5 66q-62 0 -92.5 -33t-38.5 -33q-32 0 -32 30z" />
<glyph unicode="&#xf2;" d="M44 427q0 177 125 302t302 125t302 -125t125 -302t-125 -302t-302 -125t-302 125t-125 302zM106 427q0 -152 107 -258.5t258 -106.5q152 0 259 107t107 258q0 152 -107 259t-259 107t-258.5 -107t-106.5 -259zM308 1219q0 33 30 33q11 0 135 -62q115 -57 144 -75 q17 -11 17 -26q0 -33 -30 -33q-11 0 -135 62q-115 57 -144 75q-17 10 -17 26z" />
<glyph unicode="&#xf3;" d="M44 427q0 177 125 302t302 125t302 -125t125 -302t-125 -302t-302 -125t-302 125t-125 302zM106 427q0 -152 107 -258.5t258 -106.5q152 0 259 107t107 258q0 152 -107 259t-259 107t-258.5 -107t-106.5 -259zM308 1089q0 16 17 26q29 18 144 75q123 62 135 62 q30 0 30 -33q0 -16 -17 -26q-29 -18 -144 -75q-123 -62 -135 -62q-30 0 -30 33z" />
<glyph unicode="&#xf4;" d="M44 427q0 177 125 302t302 125t302 -125t125 -302t-125 -302t-302 -125t-302 125t-125 302zM106 427q0 -152 107 -258.5t258 -106.5q152 0 259 107t107 258q0 152 -107 259t-259 107t-258.5 -107t-106.5 -259zM242 1089q0 15 14 24l196 131q11 8 19 8q9 0 20 -8l195 -131 q14 -10 14 -24q0 -33 -30 -33q-10 0 -17 6l-182 121l-181 -121q-8 -6 -18 -6q-30 0 -30 33z" />
<glyph unicode="&#xf5;" d="M44 427q0 177 125 302t302 125t302 -125t125 -302t-125 -302t-302 -125t-302 125t-125 302zM106 427q0 -152 107 -258.5t258 -106.5q152 0 259 107t107 258q0 152 -107 259t-259 107t-258.5 -107t-106.5 -259zM176 1153q0 11 10 27q42 70 153 71q64 0 142.5 -66 t121.5 -66q63 0 93.5 33t38.5 33q32 0 31 -30q0 -11 -9 -27q-42 -70 -154 -71q-64 0 -142.5 66t-121.5 66q-63 0 -93 -33t-38 -33q-32 0 -32 30z" />
<glyph unicode="&#xf6;" d="M44 427q0 177 125 302t302 125t302 -125t125 -302t-125 -302t-302 -125t-302 125t-125 302zM106 427q0 -152 107 -258.5t258 -106.5q152 0 259 107t107 258q0 152 -107 259t-259 107t-258.5 -107t-106.5 -259zM210 1121q0 63 63 64q64 0 64 -64t-64 -64q-63 0 -63 64z M606 1121q0 63 63 64q64 0 65 -64q0 -64 -65 -64q-63 0 -63 64z" />
<glyph unicode="&#xf7;" d="M176 526q0 31 31 31h529q31 0 30 -31q0 -31 -30 -31h-529q-31 0 -31 31zM406 164q0 63 65 62q65 0 65 -62q0 -26 -19 -45.5t-46 -19.5q-26 0 -45.5 19.5t-19.5 45.5zM406 891q0 63 65 62q65 0 65 -62q0 -26 -19 -46t-46 -20q-26 0 -45.5 20t-19.5 46z" />
<glyph unicode="&#xf8;" horiz-adv-x="943" d="M44 31q0 15 105 117q-104 120 -104 279q0 177 125 302t302 125q159 0 279 -104q102 105 117 105q32 0 31 -31q0 -15 -104 -118q105 -120 104 -279q0 -177 -125.5 -302t-301.5 -125q-159 0 -280 104q-101 -105 -116 -105q-32 0 -32 32zM107 427q0 -134 85 -236l515 515 q-102 86 -235 87q-152 0 -258.5 -107t-106.5 -259zM236 148q102 -86 236 -86q151 0 258.5 107t107.5 258q0 134 -87 236z" />
<glyph unicode="&#xf9;" horiz-adv-x="766" d="M88 295v529q0 31 31 30q31 0 31 -30v-529q0 -96 68.5 -164.5t164.5 -68.5t165 68.5t69 164.5v529q0 31 30 30q31 0 31 -30v-529q0 -122 -86.5 -208.5t-208.5 -86.5t-208.5 86.5t-86.5 208.5zM220 1219q0 33 30 33q11 0 135 -62q115 -57 144 -75q17 -11 17 -26 q0 -33 -30 -33q-11 0 -135 62q-115 57 -144 75q-17 10 -17 26z" />
<glyph unicode="&#xfa;" horiz-adv-x="766" d="M88 295v529q0 31 31 30q31 0 31 -30v-529q0 -96 68.5 -164.5t164.5 -68.5t165 68.5t69 164.5v529q0 31 30 30q31 0 31 -30v-529q0 -122 -86.5 -208.5t-208.5 -86.5t-208.5 86.5t-86.5 208.5zM220 1089q0 16 17 26q29 18 144 75q123 62 135 62q30 0 30 -33q0 -16 -17 -26 q-29 -18 -144 -75q-123 -62 -135 -62q-30 0 -30 33z" />
<glyph unicode="&#xfb;" horiz-adv-x="766" d="M88 295v529q0 31 31 30q31 0 31 -30v-529q0 -96 68.5 -164.5t164.5 -68.5t165 68.5t69 164.5v529q0 31 30 30q31 0 31 -30v-529q0 -122 -86.5 -208.5t-208.5 -86.5t-208.5 86.5t-86.5 208.5zM154 1089q0 15 14 24l196 131q11 8 19 8q9 0 20 -8l195 -131q14 -10 14 -24 q0 -33 -30 -33q-10 0 -17 6l-182 121l-181 -121q-8 -6 -18 -6q-30 0 -30 33z" />
<glyph unicode="&#xfc;" horiz-adv-x="766" d="M88 295v529q0 31 31 30q31 0 31 -30v-529q0 -96 68.5 -164.5t164.5 -68.5t165 68.5t69 164.5v529q0 31 30 30q31 0 31 -30v-529q0 -122 -86.5 -208.5t-208.5 -86.5t-208.5 86.5t-86.5 208.5zM122 1121q0 63 63 64q64 0 64 -64t-64 -64q-63 0 -63 64zM518 1121q0 63 63 64 q64 0 65 -64q0 -64 -65 -64q-63 0 -63 64z" />
<glyph unicode="&#xfd;" horiz-adv-x="810" d="M88 295v529q0 31 31 30q31 0 31 -30v-529q0 -96 68.5 -164.5t164.5 -68.5t165 68.5t69 164.5v529q0 31 30 30q31 0 31 -30v-925q0 -122 -86.5 -208.5t-208.5 -86.5q-173 0 -255 146q-4 9 -5 17q0 30 33 30q11 0 40 -34q37 -43 66 -63q52 -34 121 -35q96 0 165 69t69 165 v216q-89 -115 -234 -115q-122 0 -208.5 86.5t-86.5 208.5zM220 1089q0 16 17 26q29 18 144 75q123 62 135 62q30 0 30 -33q0 -16 -17 -26q-29 -18 -144 -75q-123 -62 -135 -62q-30 0 -30 33z" />
<glyph unicode="&#xfe;" horiz-adv-x="1030" d="M132 -366v1586q0 31 31 31t31 -31v-572q58 96 155.5 151t209.5 55q177 0 302.5 -125t125.5 -302t-125.5 -302t-302.5 -125q-112 0 -209.5 55t-155.5 151v-572q0 -31 -31 -30q-31 -1 -31 30zM194 427q0 -152 107 -258.5t258 -106.5q152 0 259 107t107 258q0 152 -107 259 t-259 107t-258.5 -107t-106.5 -259z" />
<glyph unicode="&#xff;" horiz-adv-x="810" d="M88 295v529q0 31 31 30q31 0 31 -30v-529q0 -96 68.5 -164.5t164.5 -68.5t165 68.5t69 164.5v529q0 31 30 30q31 0 31 -30v-925q0 -122 -86.5 -208.5t-208.5 -86.5q-173 0 -255 146q-4 9 -5 17q0 30 33 30q11 0 40 -34q37 -43 66 -63q52 -34 121 -35q96 0 165 69t69 165 v216q-89 -115 -234 -115q-122 0 -208.5 86.5t-86.5 208.5zM122 1110q0 63 63 63q64 0 64 -63q0 -64 -64 -64q-63 0 -63 64zM518 1110q0 63 63 63q64 0 65 -63q0 -64 -65 -64q-63 0 -63 64z" />
<glyph unicode="&#x100;" horiz-adv-x="1339" d="M44 30q0 11 275 564q274 550 321 635q12 22 29 22q18 0 31 -22q47 -85 321 -635q275 -553 275 -564q0 -30 -33 -30q-18 0 -26 17l-190 379h-2h-753l-189 -379q-9 -17 -26 -17q-33 0 -33 30zM45 1550q0 31 31 31h1189q31 0 31 -31t-31 -31h-1189q-31 0 -31 31zM323 458 h694l-347 693z" />
<glyph unicode="&#x101;" horiz-adv-x="678" d="M44 295q0 122 87 208.5t208 86.5q144 0 234 -114v83q0 96 -69 165t-165 69q-63 0 -125.5 -39.5t-61.5 -39.5q-32 0 -31 32q0 11 9 22q79 86 209 86q122 0 208.5 -86.5t86.5 -208.5v-528q0 -31 -31 -31t-30 31v84q-89 -115 -234 -115q-122 0 -208.5 86.5t-86.5 208.5z M44 1154q0 31 31 31h528q31 0 31 -31t-31 -31h-528q-31 0 -31 31zM106 295q0 -96 68.5 -164.5t164.5 -68.5t165 68.5t69 164.5t-69 165t-165 69t-164.5 -69t-68.5 -165z" />
<glyph unicode="&#x102;" horiz-adv-x="1339" d="M44 30q0 11 275 564q274 550 321 635q12 22 29 22q18 0 31 -22q47 -85 321 -635q275 -553 275 -564q0 -30 -33 -30q-18 0 -26 17l-190 379h-2h-753l-189 -379q-9 -17 -26 -17q-33 0 -33 30zM323 458h694l-347 693zM440 1616q0 31 32 31q9 0 77 -66t120 -66t121 66t78 66 q33 0 32 -31q0 -12 -27 -41q-112 -121 -204 -121t-202 121q-27 29 -27 41z" />
<glyph unicode="&#x103;" horiz-adv-x="678" d="M44 295q0 122 87 208.5t208 86.5q144 0 234 -114v83q0 96 -69 165t-165 69q-63 0 -125.5 -39.5t-61.5 -39.5q-32 0 -31 32q0 11 9 22q79 86 209 86q122 0 208.5 -86.5t86.5 -208.5v-528q0 -31 -31 -31t-30 31v84q-89 -115 -234 -115q-122 0 -208.5 86.5t-86.5 208.5z M106 295q0 -96 68.5 -164.5t164.5 -68.5t165 68.5t69 164.5t-69 165t-165 69t-164.5 -69t-68.5 -165zM109 1220q0 31 33 31q9 0 76.5 -66t120.5 -66q51 0 120 66t77 66q33 0 33 -31q0 -12 -27 -41q-112 -121 -204 -121t-202 121q-27 29 -27 41z" />
<glyph unicode="&#x104;" horiz-adv-x="1511" d="M44 30q0 10 275 562t321 637q12 22 29 22q19 0 31 -22l592 -1184q4 -10 5 -19q0 -26 -32 -26q-70 0 -118.5 -49.5t-48.5 -117.5q0 -69 48.5 -118.5t118.5 -49.5q67 0 116 50t55 50q32 0 32 -30q0 -8 -5 -16q-63 -115 -198 -115q-95 0 -162 67t-67 162q0 81 51 144t130 79 l-170 340h-2h-753l-189 -379q-9 -17 -26 -17q-33 0 -33 30zM323 458h694l-347 693z" />
<glyph unicode="&#x105;" horiz-adv-x="850" d="M44 295q0 122 87 208.5t208 86.5q144 0 234 -114v83q0 96 -69 165t-165 69q-63 0 -125.5 -39.5t-61.5 -39.5q-32 0 -31 32q0 11 9 22q79 86 209 86q122 0 208.5 -86.5t86.5 -208.5v-528q0 -31 -31 -31q-69 0 -118 -49.5t-49 -117.5q0 -69 49.5 -118.5t117.5 -49.5 q66 0 115.5 50t55.5 50q33 0 33 -30q0 -8 -5 -16q-66 -115 -199 -115q-94 0 -161.5 67t-67.5 162q0 85 57 150t142 77v55q-89 -115 -234 -115q-122 0 -208.5 86.5t-86.5 208.5zM106 295q0 -96 68.5 -164.5t164.5 -68.5t165 68.5t69 164.5q0 97 -68.5 165.5t-165.5 68.5 q-96 0 -164.5 -69t-68.5 -165z" />
<glyph unicode="&#x106;" horiz-adv-x="1165" d="M44 625q0 259 183 442.5t442 183.5q267 0 443 -183q10 -10 9 -22q0 -32 -31 -31q-11 0 -22 9q-192 165 -399 165q-233 0 -398 -165t-165 -399q0 -233 165 -398t398 -165q206 0 399 164q11 10 22 10q32 0 31 -32q0 -11 -9 -21q-175 -183 -443 -183q-259 0 -442 183 t-183 442zM506 1485q0 16 17 27q29 18 145 74q123 62 134 62q30 0 30 -33q0 -16 -16 -26q-29 -18 -145 -75q-123 -62 -135 -61q-30 -1 -30 32z" />
<glyph unicode="&#x107;" horiz-adv-x="827" d="M44 427q0 177 125 302t302 125q186 0 302 -125q10 -11 10 -21q0 -32 -32 -31q5 0 -87 58t-193 58q-152 0 -258.5 -107t-106.5 -259t107 -258.5t258 -106.5q100 0 193 58t86 58q32 0 32 -32q0 -11 -9 -22q-115 -124 -302 -124q-177 0 -302 125t-125 302zM308 1089 q0 16 17 26q29 18 144 75q123 62 135 62q30 0 30 -33q0 -16 -17 -26q-29 -18 -144 -75q-123 -62 -135 -62q-30 0 -30 33z" />
<glyph unicode="&#x108;" horiz-adv-x="1165" d="M44 625q0 259 183 442.5t442 183.5q267 0 443 -183q10 -10 9 -22q0 -32 -31 -31q-11 0 -22 9q-192 165 -399 165q-233 0 -398 -165t-165 -399q0 -233 165 -398t398 -165q206 0 399 164q11 10 22 10q32 0 31 -32q0 -11 -9 -21q-175 -183 -443 -183q-259 0 -442 183 t-183 442zM440 1485q0 15 15 25l195 130q11 8 19 8q9 0 20 -8l195 -130q14 -10 14 -25q0 -33 -29 -32q-10 0 -18 6l-182 120l-181 -120q-8 -6 -18 -6q-30 -1 -30 32z" />
<glyph unicode="&#x109;" horiz-adv-x="827" d="M44 427q0 177 125 302t302 125q186 0 302 -125q10 -11 10 -21q0 -32 -32 -31q5 0 -87 58t-193 58q-152 0 -258.5 -107t-106.5 -259t107 -258.5t258 -106.5q100 0 193 58t86 58q32 0 32 -32q0 -11 -9 -22q-115 -124 -302 -124q-177 0 -302 125t-125 302zM242 1089 q0 15 14 24l196 131q11 8 19 8q9 0 20 -8l195 -131q14 -10 14 -24q0 -33 -30 -33q-10 0 -17 6l-182 121l-181 -121q-8 -6 -18 -6q-30 0 -30 33z" />
<glyph unicode="&#x10a;" horiz-adv-x="1165" d="M44 625q0 259 183 442.5t442 183.5q267 0 443 -183q10 -10 9 -22q0 -32 -31 -31q-11 0 -22 9q-192 165 -399 165q-233 0 -398 -165t-165 -399q0 -233 165 -398t398 -165q206 0 399 164q11 10 22 10q32 0 31 -32q0 -11 -9 -21q-175 -183 -443 -183q-259 0 -442 183 t-183 442zM606 1518q0 63 63 63q64 0 65 -63q0 -64 -65 -65q-63 1 -63 65z" />
<glyph unicode="&#x10b;" horiz-adv-x="827" d="M44 427q0 177 125 302t302 125q186 0 302 -125q10 -11 10 -21q0 -32 -32 -31q5 0 -87 58t-193 58q-152 0 -258.5 -107t-106.5 -259t107 -258.5t258 -106.5q100 0 193 58t86 58q32 0 32 -32q0 -11 -9 -22q-115 -124 -302 -124q-177 0 -302 125t-125 302zM406 1186 q0 26 19.5 45.5t45.5 19.5t45.5 -19.5t19.5 -45.5q0 -63 -65 -63t-65 63z" />
<glyph unicode="&#x10c;" horiz-adv-x="1165" d="M44 625q0 259 183 442.5t442 183.5q267 0 443 -183q10 -10 9 -22q0 -32 -31 -31q-11 0 -22 9q-192 165 -399 165q-233 0 -398 -165t-165 -399q0 -233 165 -398t398 -165q206 0 399 164q11 10 22 10q32 0 31 -32q0 -11 -9 -21q-175 -183 -443 -183q-259 0 -442 183 t-183 442zM440 1615q0 33 30 33q10 0 18 -6l181 -121l182 121q8 6 18 6q30 0 29 -33q0 -15 -14 -24l-195 -131q-11 -8 -20 -7q-9 0 -19 7l-195 131q-15 9 -15 24z" />
<glyph unicode="&#x10d;" horiz-adv-x="827" d="M44 427q0 177 125 302t302 125q186 0 302 -125q10 -11 10 -21q0 -32 -32 -31q5 0 -87 58t-193 58q-152 0 -258.5 -107t-106.5 -259t107 -258.5t258 -106.5q100 0 193 58t86 58q32 0 32 -32q0 -11 -9 -22q-115 -124 -302 -124q-177 0 -302 125t-125 302zM242 1219 q0 33 30 33q10 0 18 -6l181 -121l182 121q8 6 17 6q30 0 30 -33q0 -15 -14 -25l-198 -132q-5 -4 -17 -3q-11 0 -16 3l-199 132q-14 10 -14 25z" />
<glyph unicode="&#x10e;" horiz-adv-x="1228" d="M132 31v1189q0 31 31 31h396q259 0 442.5 -183.5t183.5 -442.5t-183.5 -442t-442.5 -183h-396q-31 0 -31 31zM194 62h365q233 0 398.5 165t165.5 398t-165 398.5t-399 165.5h-365v-1127zM330 1615q0 33 30 33q10 0 18 -6l181 -121l182 121q8 6 17 6q30 0 30 -33 q0 -15 -14 -24l-195 -131q-11 -8 -20 -7q-9 0 -19 7l-196 131q-14 9 -14 24z" />
<glyph unicode="&#x10f;" horiz-adv-x="1030" d="M44 427q0 177 125 302t302 125q112 0 210 -55t156 -151v572q0 31 31 31t30 -31v-1189q0 -31 -30 -31q-31 0 -31 31v175q-58 -96 -156 -151t-210 -55q-177 0 -302 125t-125 302zM106 427q0 -152 107 -258.5t258 -106.5q152 0 259 107t107 258q0 152 -107 259t-259 107 t-258.5 -107t-106.5 -259zM242 1615q0 33 30 33q10 0 18 -6l181 -121l182 121q8 6 17 6q30 0 30 -33q0 -15 -14 -24l-195 -131q-11 -8 -20 -7q-9 0 -19 7l-196 131q-14 9 -14 24z" />
<glyph unicode="&#x110;" horiz-adv-x="1294" d="M0 560q0 21 21 28l177 59v573q0 31 31 31h396q259 0 442.5 -183.5t183.5 -442.5t-183.5 -442t-442.5 -183h-396q-31 0 -31 31v551q-159 -54 -168 -53q-30 -1 -30 31zM260 62h365q233 0 398.5 165t165.5 398t-165 398.5t-399 165.5h-365v-520q159 54 169 53q29 0 29 -31 q0 -21 -21 -29l-177 -59v-541z" />
<glyph unicode="&#x111;" horiz-adv-x="1096" d="M44 427q0 177 125 302t302 125q112 0 210 -55t156 -151v343h-366q-31 0 -31 31t31 31h366v167q0 31 31 31t30 -31v-167h168q31 0 31 -31t-31 -31h-168v-960q0 -31 -30 -31q-31 0 -31 31v175q-58 -96 -156 -151t-210 -55q-177 0 -302 125t-125 302zM106 427 q0 -152 107 -258.5t258 -106.5q152 0 259 107t107 258q0 152 -107 259t-259 107t-258.5 -107t-106.5 -259z" />
<glyph unicode="&#x112;" horiz-adv-x="898" d="M132 31v1189q0 31 31 31h661q31 0 30 -31q0 -31 -30 -31h-630v-533h497q31 0 31 -31t-31 -30h-497v-533h630q31 0 30 -31q0 -31 -30 -31h-661q-31 0 -31 31zM132 1550q0 31 31 31h661q31 0 30 -31q0 -31 -30 -31h-661q-31 0 -31 31z" />
<glyph unicode="&#x113;" horiz-adv-x="889" d="M44 427q0 177 125 302t302 125q70 0 143 -25q68 -25 141 -80q90 -69 90 -124q0 -18 -15 -26l-659 -381q109 -157 300 -156q166 0 272 121l44 62q11 15 27 15q32 0 32 -30q0 -8 -5 -17q-56 -98 -156 -155.5t-214 -57.5q-177 0 -302 125t-125 302zM44 1154q0 31 31 31h740 q31 0 31 -31t-31 -31h-740q-31 0 -31 31zM106 427q0 -82 34 -156l632 365q-109 157 -301 157q-152 0 -258.5 -107t-106.5 -259z" />
<glyph unicode="&#x114;" horiz-adv-x="898" d="M132 31v1189q0 31 31 31h661q31 0 30 -31q0 -31 -30 -31h-630v-533h497q31 0 31 -31t-31 -30h-497v-533h630q31 0 30 -31q0 -31 -30 -31h-661q-31 0 -31 31zM263 1616q0 32 33 32q9 0 77 -66.5t120 -66.5t120.5 66t77.5 66q33 0 32 -31q0 -12 -27 -41 q-112 -122 -203 -122q-53 0 -124 50q-63 44 -98 94q-8 10 -8 19z" />
<glyph unicode="&#x115;" horiz-adv-x="889" d="M44 427q0 177 125 302t302 125q70 0 143 -25q68 -25 141 -80q90 -69 90 -124q0 -18 -15 -26l-659 -381q109 -157 300 -156q166 0 272 121l44 62q11 15 27 15q32 0 32 -30q0 -8 -5 -17q-56 -98 -156 -155.5t-214 -57.5q-177 0 -302 125t-125 302zM106 427q0 -82 34 -156 l632 365q-109 157 -301 157q-152 0 -258.5 -107t-106.5 -259zM228 1220q0 31 33 31q9 0 77 -66t120 -66t120.5 66t76.5 66q33 0 34 -31q0 -12 -27 -41q-112 -121 -204 -121t-203 121q-27 29 -27 41z" />
<glyph unicode="&#x116;" horiz-adv-x="898" d="M132 31v1189q0 31 31 31h661q31 0 30 -31q0 -31 -30 -31h-630v-533h497q31 0 31 -31t-31 -30h-497v-533h630q31 0 30 -31q0 -31 -30 -31h-661q-31 0 -31 31zM430 1518q0 63 63 63q64 0 65 -63q0 -64 -65 -65q-63 1 -63 65z" />
<glyph unicode="&#x117;" horiz-adv-x="889" d="M44 427q0 177 125 302t302 125q70 0 143 -25q68 -25 141 -80q90 -69 90 -124q0 -18 -15 -26l-659 -381q109 -157 300 -156q166 0 272 121l44 62q11 15 27 15q32 0 32 -30q0 -8 -5 -17q-56 -98 -156 -155.5t-214 -57.5q-177 0 -302 125t-125 302zM106 427q0 -82 34 -156 l632 365q-109 157 -301 157q-152 0 -258.5 -107t-106.5 -259zM406 1186q0 26 19.5 45.5t45.5 19.5t45.5 -19.5t19.5 -45.5q0 -63 -65 -63t-65 63z" />
<glyph unicode="&#x118;" horiz-adv-x="1071" d="M132 31v1189q0 31 31 31h661q31 0 30 -31q0 -31 -30 -31h-630v-533h497q31 0 31 -31t-31 -30h-497v-533h630q32 0 31 -31q0 -31 -31 -31q-69 0 -118.5 -49.5t-49.5 -117.5q0 -69 49.5 -118.5t118.5 -49.5q68 0 116.5 50t53.5 50q33 0 33 -30q0 -7 -4 -16 q-61 -115 -199 -115q-94 0 -161.5 67t-67.5 162q0 100 73 167h-505q-31 0 -31 31z" />
<glyph unicode="&#x119;" horiz-adv-x="889" d="M44 427q0 177 125 302t302 125q72 0 147 -27q67 -26 139 -80q88 -68 88 -122q0 -18 -15 -26l-659 -381q109 -157 300 -156q165 0 272 121l44 62q12 15 27 15q32 0 32 -30q0 -8 -5 -17q-55 -98 -156 -155.5t-214 -57.5q-69 0 -118 -49.5t-49 -117.5q0 -69 49.5 -118.5 t117.5 -49.5q70 0 117.5 50t53.5 50q33 0 33 -30q0 -8 -5 -16q-67 -115 -199 -115q-94 0 -161.5 67t-67.5 162q0 119 98 187q-132 43 -214 155.5t-82 251.5zM106 427q0 -82 34 -156l632 365q-109 157 -301 157q-152 0 -258.5 -107t-106.5 -259z" />
<glyph unicode="&#x11a;" horiz-adv-x="898" d="M132 31v1189q0 31 31 31h661q31 0 30 -31q0 -31 -30 -31h-630v-533h497q31 0 31 -31t-31 -30h-497v-533h630q31 0 30 -31q0 -31 -30 -31h-661q-31 0 -31 31zM264 1615q0 33 30 33q10 0 18 -6l181 -121l182 121q8 6 17 6q30 0 30 -33q0 -15 -14 -24l-195 -131 q-11 -8 -20 -7q-9 0 -19 7l-196 131q-14 9 -14 24z" />
<glyph unicode="&#x11b;" horiz-adv-x="889" d="M44 427q0 177 125 302t302 125q70 0 143 -25q68 -25 141 -80q90 -69 90 -124q0 -18 -15 -26l-659 -381q109 -157 300 -156q166 0 272 121l44 62q11 15 27 15q32 0 32 -30q0 -8 -5 -17q-56 -98 -156 -155.5t-214 -57.5q-177 0 -302 125t-125 302zM106 427q0 -82 34 -156 l632 365q-109 157 -301 157q-152 0 -258.5 -107t-106.5 -259zM242 1219q0 33 30 33q10 0 18 -6l181 -121l182 121q8 6 17 6q30 0 30 -33q0 -15 -14 -25l-198 -132q-5 -4 -17 -3q-11 0 -16 3l-199 132q-14 10 -14 25z" />
<glyph unicode="&#x11c;" horiz-adv-x="1209" d="M44 625q0 259 183 442.5t442 183.5q267 0 443 -183q10 -10 9 -22q0 -32 -31 -31q-11 0 -22 9q-192 165 -399 165q-233 0 -398 -165t-165 -399q0 -233 165 -398t398 -165q226 0 390 156v407q0 31 31 31t30 -31v-421q0 -11 -8 -21q-74 -85 -203 -135q-121 -48 -240 -48 q-259 0 -442 183t-183 442zM440 1485q0 15 15 25l195 130q11 8 19 8q9 0 20 -8l195 -130q14 -10 14 -25q0 -33 -29 -32q-10 0 -18 6l-182 120l-181 -120q-8 -6 -18 -6q-30 -1 -30 32z" />
<glyph unicode="&#x11d;" horiz-adv-x="810" d="M44 -35q0 31 31 31t31 -31q0 -123 88 -211.5t211 -88.5t211.5 88t88.5 212q0 123 -88 211t-210.5 88t-209.5 87t-87 208q0 122 87 208.5t208 86.5h331q31 0 30 -30q0 -31 -30 -31h-150q115 -89 114 -234q0 -177 -157 -260q100 -42 161.5 -133.5t61.5 -200.5 q0 -150 -105.5 -255.5t-255.5 -105.5t-255.5 105.5t-105.5 255.5zM172 559q0 -96 68.5 -164.5t164.5 -68.5t165 68.5t69 164.5t-69 165t-165 69t-164.5 -69t-68.5 -165zM176 1089q0 15 14 24l196 131q11 8 19 8q9 0 20 -8l195 -131q14 -10 14 -24q0 -33 -30 -33q-10 0 -17 6 l-182 121l-181 -121q-8 -6 -18 -6q-30 0 -30 33z" />
<glyph unicode="&#x11e;" horiz-adv-x="1209" d="M44 625q0 259 183 442.5t442 183.5q267 0 443 -183q10 -10 9 -22q0 -32 -31 -31q-11 0 -22 9q-192 165 -399 165q-233 0 -398 -165t-165 -399q0 -233 165 -398t398 -165q226 0 390 156v407q0 31 31 31t30 -31v-421q0 -11 -8 -21q-74 -85 -203 -135q-121 -48 -240 -48 q-259 0 -442 183t-183 442zM440 1616q0 31 32 31q9 0 77 -66t120 -66q51 0 120 66t78 66q33 0 32 -31q0 -12 -27 -41q-112 -121 -203 -121q-92 0 -203 121q-26 29 -26 41z" />
<glyph unicode="&#x11f;" horiz-adv-x="810" d="M44 -35q0 31 31 31t31 -31q0 -123 88 -211.5t211 -88.5t211.5 88t88.5 212q0 123 -88 211t-210.5 88t-209.5 87t-87 208q0 122 87 208.5t208 86.5h331q31 0 30 -30q0 -31 -30 -31h-150q115 -89 114 -234q0 -177 -157 -260q100 -42 161.5 -133.5t61.5 -200.5 q0 -150 -105.5 -255.5t-255.5 -105.5t-255.5 105.5t-105.5 255.5zM172 559q0 -96 68.5 -164.5t164.5 -68.5t165 68.5t69 164.5t-69 165t-165 69t-164.5 -69t-68.5 -165zM175 1220q0 31 33 31q9 0 76.5 -66t120.5 -66q51 0 120 66t78 66q33 0 32 -31q0 -12 -27 -41 q-112 -121 -204 -121t-202 121q-27 29 -27 41z" />
<glyph unicode="&#x120;" horiz-adv-x="1209" d="M44 625q0 259 183 442.5t442 183.5q267 0 443 -183q10 -10 9 -22q0 -32 -31 -31q-11 0 -22 9q-192 165 -399 165q-233 0 -398 -165t-165 -399q0 -233 165 -398t398 -165q226 0 390 156v407q0 31 31 31t30 -31v-421q0 -11 -8 -21q-74 -85 -203 -135q-121 -48 -240 -48 q-259 0 -442 183t-183 442zM606 1518q0 63 63 63q64 0 65 -63q0 -64 -65 -65q-63 1 -63 65z" />
<glyph unicode="&#x121;" horiz-adv-x="810" d="M44 -35q0 31 31 31t31 -31q0 -123 88 -211.5t211 -88.5t211.5 88t88.5 212q0 123 -88 211t-210.5 88t-209.5 87t-87 208q0 122 87 208.5t208 86.5h331q31 0 30 -30q0 -31 -30 -31h-150q115 -89 114 -234q0 -177 -157 -260q100 -42 161.5 -133.5t61.5 -200.5 q0 -150 -105.5 -255.5t-255.5 -105.5t-255.5 105.5t-105.5 255.5zM172 559q0 -96 68.5 -164.5t164.5 -68.5t165 68.5t69 164.5t-69 165t-165 69t-164.5 -69t-68.5 -165zM340 1186q0 26 19.5 45.5t45.5 19.5t45.5 -19.5t19.5 -45.5q0 -63 -65 -63t-65 63z" />
<glyph unicode="&#x122;" horiz-adv-x="1209" d="M44 625q0 259 183 442.5t442 183.5q122 0 240 -48q122 -49 203 -135q10 -10 9 -22q0 -32 -31 -31q-11 0 -22 9q-193 165 -399 165q-233 0 -398 -165t-165 -399q0 -233 165 -398t398 -165q226 0 390 156v407q0 31 31 31t30 -31v-421q0 -11 -8 -21q-101 -122 -304 -168 q91 -69 90 -182q0 -94 -67 -161.5t-162 -67.5q-128 0 -199 115q-4 7 -4 16q0 30 33 30q6 0 53.5 -50t116.5 -50t118.5 49.5t49.5 118.5t-49.5 118t-118.5 49q-259 0 -442 183t-183 442z" />
<glyph unicode="&#x123;" horiz-adv-x="810" d="M44 -35q0 31 31 31t31 -31q0 -123 88 -211.5t211 -88.5t211.5 88t88.5 212q0 123 -88 211t-210.5 88t-209.5 87t-87 208q0 122 87 208.5t208 86.5h331q31 0 30 -30q0 -31 -30 -31h-150q115 -89 114 -234q0 -177 -157 -260q100 -42 161.5 -133.5t61.5 -200.5 q0 -150 -105.5 -255.5t-255.5 -105.5t-255.5 105.5t-105.5 255.5zM172 559q0 -96 68.5 -164.5t164.5 -68.5t165 68.5t69 164.5t-69 165t-165 69t-164.5 -69t-68.5 -165zM176 1176q0 94 67.5 161.5t161.5 67.5q136 0 199 -115q4 -8 5 -16q0 -30 -33 -30q-5 0 -55 49.5 t-116 49.5q-69 0 -118 -49t-49 -118t49 -118t118 -49q31 0 31 -31t-31 -31q-94 0 -161.5 67.5t-67.5 161.5z" />
<glyph unicode="&#x124;" horiz-adv-x="1118" d="M132 31v1189q0 31 31 31t31 -31v-564h731v564q0 31 31 31t31 -31v-1189q0 -31 -31 -31t-31 31v564h-731v-564q0 -31 -31 -31t-31 31zM330 1485q0 15 14 25l196 130q11 8 19 8q9 0 20 -8l195 -130q14 -10 14 -25q0 -33 -30 -32q-10 0 -17 6l-182 120l-181 -120 q-8 -6 -18 -6q-30 -1 -30 32z" />
<glyph unicode="&#x125;" horiz-adv-x="810" d="M132 31v1189q0 31 31 31t31 -31v-480q89 115 233 114q122 0 208.5 -86.5t86.5 -208.5v-528q0 -31 -31 -31t-30 31v528q0 96 -69 165t-165 69t-164.5 -69t-68.5 -165v-528q0 -31 -31 -31t-31 31zM198 1485q0 15 14 25l196 130q11 8 19 8q9 0 20 -8l195 -130q14 -10 14 -25 q0 -33 -30 -32q-10 0 -17 6l-182 120l-181 -120q-8 -6 -18 -6q-30 -1 -30 32z" />
<glyph unicode="&#x126;" horiz-adv-x="1118" d="M0 1022q0 31 31 31h101v167q0 31 31 31t31 -31v-167h731v167q0 31 31 31t31 -31v-167h101q31 0 31 -31t-31 -31h-101v-960q0 -31 -31 -31t-31 31v564h-731v-564q0 -31 -31 -31t-31 31v960h-101q-31 0 -31 31zM194 656h731v335h-731v-335z" />
<glyph unicode="&#x127;" horiz-adv-x="876" d="M0 1022q0 31 31 31h167v167q0 31 31 31t31 -31v-167h167q31 0 31 -31t-31 -31h-167v-251q89 115 233 114q122 0 208.5 -86.5t86.5 -208.5v-528q0 -31 -30 -31q-31 0 -31 31v528q0 96 -69 165t-165 69t-164.5 -69t-68.5 -165v-528q0 -31 -31 -31t-31 31v960h-167 q-31 0 -31 31z" />
<glyph unicode="&#x128;" horiz-adv-x="325" d="M-132 1549q0 11 10 28q42 70 153 70q64 0 142.5 -66t121.5 -66q63 0 93 33t38 33q32 0 32 -30q0 -11 -10 -27q-42 -70 -153 -71q-64 0 -142.5 66.5t-121.5 66.5q-63 0 -93 -33.5t-38 -33.5q-32 0 -32 30zM132 31v1189q0 31 31 31t31 -31v-1189q0 -31 -31 -31t-31 31z" />
<glyph unicode="&#x129;" horiz-adv-x="325" d="M-132 1153q0 11 10 27q42 70 153 71q64 0 142.5 -66t121.5 -66q63 0 93 33t38 33q32 0 32 -30q0 -11 -10 -27q-42 -70 -153 -71q-64 0 -142.5 66t-121.5 66q-63 0 -93 -33t-38 -33q-32 0 -32 30zM132 31v793q0 31 31 30q31 0 31 -30v-793q0 -31 -31 -31t-31 31z" />
<glyph unicode="&#x12a;" horiz-adv-x="325" d="M-66 1550q0 31 31 31h396q31 0 31 -31t-31 -31h-396q-31 0 -31 31zM132 31v1189q0 31 31 31t31 -31v-1189q0 -31 -31 -31t-31 31z" />
<glyph unicode="&#x12b;" horiz-adv-x="325" d="M-22 1154q0 31 31 31h308q31 0 31 -31t-31 -31h-308q-31 0 -31 31zM132 31v793q0 31 31 30q31 0 31 -30v-793q0 -31 -31 -31t-31 31z" />
<glyph unicode="&#x12c;" horiz-adv-x="325" d="M-67 1616q0 31 33 31q9 0 76.5 -66t120.5 -66q51 0 119.5 66t77.5 66q33 0 33 -31q0 -12 -27 -41q-112 -121 -204 -121t-203 121q-26 29 -26 41zM132 31v1189q0 31 31 31t31 -31v-1189q0 -31 -31 -31t-31 31z" />
<glyph unicode="&#x12d;" horiz-adv-x="325" d="M-67 1220q0 31 33 31q9 0 76.5 -66t120.5 -66q51 0 119.5 66t77.5 66q33 0 33 -31q0 -12 -27 -41q-112 -121 -204 -121t-203 121q-26 29 -26 41zM132 31v793q0 31 31 30q31 0 31 -30v-793q0 -31 -31 -31t-31 31z" />
<glyph unicode="&#x12e;" horiz-adv-x="325" d="M-66 -167q0 85 57 150t141 77v1160q0 31 31 31t31 -31v-1189q0 -31 -31 -31q-69 0 -118 -49.5t-49 -117.5q0 -69 49 -118.5t118 -49.5q67 0 116 50t55 50q33 0 32 -30q0 -8 -4 -16q-63 -115 -199 -115q-94 0 -161.5 67.5t-67.5 161.5z" />
<glyph unicode="&#x12f;" horiz-adv-x="325" d="M-66 -167q0 85 57 150t141 77v764q0 31 31 30q31 0 31 -30v-793q0 -31 -31 -31q-69 0 -118 -49.5t-49 -117.5q0 -69 49 -118.5t118 -49.5q67 0 116 50t55 50q33 0 32 -30q0 -8 -4 -16q-63 -115 -199 -115q-94 0 -161.5 67.5t-67.5 161.5zM98 1186q0 26 19.5 45.5 t45.5 19.5t45.5 -19.5t19.5 -45.5q0 -63 -65 -63t-65 63z" />
<glyph unicode="&#x130;" horiz-adv-x="325" d="M99 1518q0 63 63 63q64 0 64 -63q0 -64 -64 -65q-63 1 -63 65zM131 1220q0 31 31 31t31 -31v-1189q0 -31 -30 -31q-31 0 -31 31z" />
<glyph unicode="&#x131;" horiz-adv-x="325" d="M132 31v793q0 31 31 30q31 0 31 -30v-793q0 -31 -31 -31t-31 31z" />
<glyph unicode="&#x132;" horiz-adv-x="854" d="M132 31v1189q0 31 31 31t31 -31v-1189q0 -31 -31 -31t-31 31zM166 -232q0 30 33 30q11 0 41 -34q36 -44 66 -64q52 -34 121 -35q96 0 165 69t69 165v1321q0 31 30 31q31 0 31 -31v-1321q0 -122 -86.5 -208.5t-208.5 -86.5q-78 0 -148.5 40.5t-106.5 107.5q-6 8 -6 16z " />
<glyph unicode="&#x133;" horiz-adv-x="722" d="M98 1186q0 26 19.5 45.5t45.5 19.5t45.5 -19.5t19.5 -45.5q0 -63 -65 -63t-65 63zM132 31v793q0 31 31 30q31 0 31 -30v-793q0 -31 -31 -31t-31 31zM189 -308q0 32 32 31q2 0 48.5 -29t91.5 -29q69 0 118.5 49.5t49.5 118.5v991q0 31 30 30q31 0 31 -30v-991 q0 -94 -67.5 -161.5t-161.5 -67.5q-104 0 -162 67q-10 11 -10 21zM494 1186q0 26 19.5 45.5t45.5 19.5t46 -19.5t20 -45.5q0 -63 -66 -63q-65 0 -65 63z" />
<glyph unicode="&#x134;" horiz-adv-x="598" d="M-89 -232q0 30 33 30q11 0 39 -34q36 -44 67 -64q52 -34 121 -35q97 0 165 69t68 165v1321q0 31 31 31t31 -31v-1321q0 -122 -86.5 -208.5t-208.5 -86.5q-78 0 -148.5 40.5t-107.5 107.5q-4 8 -4 16zM8 1485q0 15 14 25l196 130q11 8 19 8q9 0 20 -8l196 -130 q14 -10 14 -25q0 -33 -31 -32q-9 0 -18 6l-181 120l-181 -120q-9 -6 -17 -6q-31 -1 -31 32z" />
<glyph unicode="&#x135;" horiz-adv-x="325" d="M-207 -308q0 32 32 31q2 0 48.5 -29t91.5 -29q69 0 118 49.5t49 118.5v991q0 31 31 30q31 0 31 -30v-991q0 -94 -67.5 -161.5t-161.5 -67.5q-104 0 -162 67q-10 11 -10 21zM-67 1089q0 15 15 24l196 131q11 8 19 8q9 0 19 -8l196 -131q14 -10 14 -24q0 -33 -30 -33 q-10 0 -18 6l-181 121l-181 -121q-8 -6 -18 -6q-31 0 -31 33z" />
<glyph unicode="&#x136;" horiz-adv-x="894" d="M132 31v1189q0 31 31 31t31 -31v-595q0 12 9 22l595 595q10 10 21 10q32 0 32 -32q0 -12 -10 -22l-572 -573l572 -572q10 -10 10 -22q0 -32 -32 -32q-11 0 -21 10l-595 594q-10 10 -9 22v-594q0 -31 -31 -31t-31 31zM291 -265q0 30 31 30q5 0 55.5 -50t115.5 -50 q70 0 119 49.5t49 118.5t-49 118t-119 49q-31 0 -31 31t31 31q95 0 162 -67.5t67 -161.5t-67 -161.5t-162 -67.5q-136 0 -198 115q-4 8 -4 16z" />
<glyph unicode="&#x137;" horiz-adv-x="696" d="M132 31v1189q0 31 31 31t31 -31v-1189q0 -31 -31 -31t-31 31zM166 -265q0 30 33 30q5 0 55.5 -50t115.5 -50q69 0 118 49.5t49 118.5t-49 118t-118 49q-31 0 -31 31t31 31q94 0 161.5 -67.5t67.5 -161.5t-67.5 -161.5t-161.5 -67.5q-136 0 -198 115q-6 8 -6 16zM193 425 q0 14 10 24l396 397q10 10 22 9q32 0 32 -31q0 -12 -10 -22l-375 -375l375 -374q10 -10 10 -22q0 -32 -32 -32q-12 0 -22 10l-396 396q-10 9 -10 20z" />
<glyph unicode="&#x138;" horiz-adv-x="696" d="M132 31v793q0 31 31 30q31 0 31 -30v-793q0 -31 -31 -31t-31 31zM194 427q0 13 9 22l396 397q10 10 22 9q32 0 32 -31q0 -12 -10 -22l-375 -375l375 -374q10 -10 10 -22q0 -32 -32 -32q-12 0 -22 10l-396 396q-9 9 -9 22z" />
<glyph unicode="&#x139;" horiz-adv-x="898" d="M132 31v1189q0 31 31 31t31 -31v-1158h630q31 0 30 -31q0 -31 -30 -31h-661q-31 0 -31 31zM330 1485q0 16 17 27q29 18 145 74q123 62 134 62q30 0 30 -33q0 -16 -16 -26q-29 -18 -145 -75q-123 -62 -135 -61q-30 -1 -30 32z" />
<glyph unicode="&#x13a;" horiz-adv-x="458" d="M88 229v991q0 31 31 31t31 -31v-991q0 -69 49 -118t118 -49q31 0 31 -31t-31 -31q-94 0 -161.5 67.5t-67.5 161.5zM88 1485q0 16 18 27q28 18 144 74q122 62 134 62q31 0 31 -33q0 -16 -18 -26q-28 -18 -144 -75q-123 -62 -135 -61q-30 -1 -30 32z" />
<glyph unicode="&#x13b;" horiz-adv-x="898" d="M132 31v1189q0 31 31 31t31 -31v-1158h630q31 0 30 -31q0 -31 -30 -31h-175q73 -68 73 -167q0 -94 -67 -161.5t-162 -67.5q-138 0 -199 115q-4 8 -4 16q0 30 32 30q5 0 54 -50t117 -50q69 0 118.5 49.5t49.5 118.5t-49.5 118t-118.5 49h-330q-31 0 -31 31z" />
<glyph unicode="&#x13c;" horiz-adv-x="590" d="M88 229v991q0 31 31 31t31 -31v-991q0 -69 49 -118t118 -49q94 0 161.5 -67.5t67.5 -161.5t-67.5 -161.5t-161.5 -67.5q-135 0 -199 115q-4 8 -4 16q0 30 32 30q5 0 55.5 -50t115.5 -50q69 0 118 49.5t49 118.5t-49 118t-118 49q-94 0 -161.5 67.5t-67.5 161.5z" />
<glyph unicode="&#x13d;" horiz-adv-x="898" d="M132 31v1189q0 31 31 31t31 -31v-1158h630q31 0 30 -31q0 -31 -30 -31h-661q-31 0 -31 31zM264 1615q0 33 30 33q10 0 18 -6l181 -121l182 121q8 6 17 6q30 0 30 -33q0 -15 -14 -24l-195 -131q-11 -8 -20 -7q-9 0 -19 7l-196 131q-14 9 -14 24z" />
<glyph unicode="&#x13e;" horiz-adv-x="391" d="M-110 1615q0 33 30 33q10 0 17 -6l182 -121l181 121q8 6 18 6q30 0 30 -33q0 -15 -14 -24l-196 -131q-11 -8 -19 -7q-9 0 -19 7l-196 131q-14 9 -14 24zM88 229v991q0 31 31 31t31 -31v-991q0 -69 49 -118t118 -49q31 0 31 -31t-31 -31q-94 0 -161.5 67.5t-67.5 161.5z " />
<glyph unicode="&#x13f;" horiz-adv-x="898" d="M132 31v1189q0 31 31 31t31 -31v-1158h630q31 0 30 -31q0 -31 -30 -31h-661q-31 0 -31 31zM562 625q0 63 63 64q64 0 65 -64q0 -64 -65 -64q-63 0 -63 64z" />
<glyph unicode="&#x140;" horiz-adv-x="458" d="M88 229v991q0 31 31 31t31 -31v-991q0 -69 49 -118t118 -49q31 0 31 -31t-31 -31q-94 0 -161.5 67.5t-67.5 161.5zM286 625q0 63 64 64q64 0 64 -64t-64 -64t-64 64z" />
<glyph unicode="&#x141;" horiz-adv-x="964" d="M0 560q0 21 21 28l177 59v573q0 31 31 31t31 -31v-551q163 54 169 53q29 0 29 -31q0 -21 -21 -29l-177 -59v-541h630q31 0 30 -31q0 -31 -30 -31h-661q-31 0 -31 31v551q-162 -54 -168 -53q-30 -1 -30 31z" />
<glyph unicode="&#x142;" horiz-adv-x="502" d="M0 560q0 21 21 28l177 59v573q0 31 31 31t31 -31v-551q163 54 169 53q29 0 29 -31q0 -21 -21 -29l-177 -59v-374q0 -69 49.5 -118t117.5 -49q31 0 31 -31t-31 -31q-94 0 -161.5 67.5t-67.5 161.5v353q-162 -54 -168 -53q-30 -1 -30 31z" />
<glyph unicode="&#x143;" horiz-adv-x="1251" d="M132 1220q0 31 32 31q14 0 27 -16l867 -1114v1099q0 31 31 31t31 -31v-1189q0 -31 -32 -31q-14 0 -27 16l-866 1114v-1099q0 -31 -31 -31t-31 31zM462 1485q0 16 18 27q28 18 145 74q123 62 134 62q30 0 30 -33q0 -16 -17 -26q-28 -18 -145 -75q-122 -62 -134 -61 q-31 -1 -31 32z" />
<glyph unicode="&#x144;" horiz-adv-x="810" d="M132 31v793q0 31 31 30q31 0 31 -30v-84q89 115 233 114q122 0 208.5 -86.5t86.5 -208.5v-528q0 -31 -31 -31t-30 31v528q0 96 -69 165t-165 69t-164.5 -69t-68.5 -165v-528q0 -31 -31 -31t-31 31zM264 1089q0 16 17 26q29 18 144 75q123 62 135 62q30 0 30 -33 q0 -16 -17 -26q-29 -18 -144 -75q-123 -62 -135 -62q-30 0 -30 33z" />
<glyph unicode="&#x145;" horiz-adv-x="1251" d="M132 1220q0 31 32 31q14 0 27 -16l867 -1114v1099q0 31 31 31t31 -31v-1189q0 -31 -32 -31q-14 0 -27 16l-866 1114v-1099q0 -31 -31 -31t-31 31zM423 -265q0 30 32 30q5 0 55 -50t116 -50q69 0 118.5 49.5t49.5 118.5t-49.5 118t-118.5 49q-31 0 -31 31t31 31 q94 0 161.5 -67.5t67.5 -161.5t-67 -161.5t-162 -67.5q-136 0 -199 115q-4 8 -4 16z" />
<glyph unicode="&#x146;" horiz-adv-x="810" d="M132 31v793q0 31 31 30q31 0 31 -30v-84q89 115 233 114q122 0 208.5 -86.5t86.5 -208.5v-528q0 -31 -31 -31t-30 31v528q0 96 -69 165t-165 69t-164.5 -69t-68.5 -165v-528q0 -31 -31 -31t-31 31zM224 -265q0 30 32 30q5 0 55 -50t116 -50q69 0 118.5 49.5t49.5 118.5 t-49.5 118t-118.5 49q-31 0 -31 31t31 31q94 0 161.5 -67.5t67.5 -161.5t-67.5 -161.5t-161.5 -67.5q-136 0 -199 115q-4 8 -4 16z" />
<glyph unicode="&#x147;" horiz-adv-x="1251" d="M132 1220q0 31 32 31q14 0 27 -16l867 -1114v1099q0 31 31 31t31 -31v-1189q0 -31 -32 -31q-14 0 -27 16l-866 1114v-1099q0 -31 -31 -31t-31 31zM396 1615q0 33 31 33q9 0 18 -6l181 -121l181 121q9 6 17 6q31 0 31 -33q0 -15 -14 -24l-195 -131q-11 -8 -20 -7 q-9 0 -20 7l-196 131q-14 9 -14 24z" />
<glyph unicode="&#x148;" horiz-adv-x="810" d="M132 31v793q0 31 31 30q31 0 31 -30v-84q89 115 233 114q122 0 208.5 -86.5t86.5 -208.5v-528q0 -31 -31 -31t-30 31v528q0 96 -69 165t-165 69t-164.5 -69t-68.5 -165v-528q0 -31 -31 -31t-31 31zM198 1219q0 33 30 33q10 0 18 -6l181 -121l182 121q8 6 17 6 q30 0 30 -33q0 -15 -14 -25l-195 -130q-11 -8 -20 -8t-19 8l-196 130q-14 10 -14 25z" />
<glyph unicode="&#x149;" horiz-adv-x="898" d="M44 889q0 9 61.5 165.5t72.5 176.5t28 20q33 0 33 -30q0 -9 -62 -166t-73.5 -176.5t-26.5 -19.5q-33 0 -33 30zM220 31v793q0 31 31 30q31 0 31 -30v-84q89 115 233 114q122 0 208.5 -86.5t86.5 -208.5v-528q0 -31 -30 -31q-31 0 -31 31v528q0 96 -68.5 165t-165.5 69 q-96 0 -164.5 -69t-68.5 -165v-528q0 -31 -31 -31t-31 31z" />
<glyph unicode="&#x14a;" horiz-adv-x="1251" d="M132 1220q0 31 32 31q14 0 27 -16l867 -1114v1099q0 31 31 31t31 -31v-1321q0 -122 -87.5 -208.5t-208.5 -86.5q-78 0 -147 39q-73 41 -109 109q-4 8 -4 16q0 30 32 30q11 0 41 -34q37 -44 68 -64q53 -34 119 -35q96 0 165 69t69 165v121l-863 1110v-1099q0 -31 -31 -31 t-31 31z" />
<glyph unicode="&#x14b;" horiz-adv-x="810" d="M132 31v793q0 31 31 30q31 0 31 -30v-84q89 115 233 114q122 0 208.5 -86.5t86.5 -208.5v-726q0 -94 -67 -161.5t-162 -67.5q-101 0 -162 67q-10 11 -9 21q0 32 31 31q3 0 48.5 -29t91.5 -29q69 0 118.5 49.5t49.5 118.5v726q0 96 -69 165t-165 69t-164.5 -69t-68.5 -165 v-528q0 -31 -31 -31t-31 31z" />
<glyph unicode="&#x14c;" horiz-adv-x="1338" d="M44 625q0 259 183 442.5t442 183.5t442.5 -183.5t183.5 -442.5t-183.5 -442t-442.5 -183t-442 183t-183 442zM44 1550q0 31 31 31h1189q31 0 31 -31t-31 -31h-1189q-31 0 -31 31zM106 625q0 -233 165 -398t398 -165t398.5 165t165.5 398t-165 398.5t-399 165.5 q-233 0 -398 -165.5t-165 -398.5z" />
<glyph unicode="&#x14d;" d="M44 427q0 177 125 302t302 125t302 -125t125 -302t-125 -302t-302 -125t-302 125t-125 302zM44 1154q0 31 31 31h793q31 0 30 -31q0 -31 -30 -31h-793q-31 0 -31 31zM106 427q0 -152 107 -258.5t258 -106.5q152 0 259 107t107 258q0 152 -107 259t-259 107t-258.5 -107 t-106.5 -259z" />
<glyph unicode="&#x14e;" horiz-adv-x="1338" d="M44 625q0 259 183 442.5t442 183.5t442.5 -183.5t183.5 -442.5t-183.5 -442t-442.5 -183t-442 183t-183 442zM106 625q0 -233 165 -398t398 -165t398.5 165t165.5 398t-165 398.5t-399 165.5q-233 0 -398 -165.5t-165 -398.5zM440 1616q0 31 32 31q9 0 77 -66t120 -66 q51 0 120 66t78 66q33 0 32 -31q0 -12 -27 -41q-112 -121 -203 -121q-92 0 -203 121q-26 29 -26 41z" />
<glyph unicode="&#x14f;" d="M44 427q0 177 125 302t302 125t302 -125t125 -302t-125 -302t-302 -125t-302 125t-125 302zM106 427q0 -152 107 -258.5t258 -106.5q152 0 259 107t107 258q0 152 -107 259t-259 107t-258.5 -107t-106.5 -259zM241 1220q0 31 33 31q9 0 76.5 -66t120.5 -66q51 0 120 66 t78 66q33 0 32 -31q0 -12 -27 -41q-112 -121 -204 -121t-202 121q-27 29 -27 41z" />
<glyph unicode="&#x150;" horiz-adv-x="1338" d="M44 625q0 259 183 442.5t442 183.5t442.5 -183.5t183.5 -442.5t-183.5 -442t-442.5 -183t-442 183t-183 442zM106 625q0 -233 165 -398t398 -165t398.5 165t165.5 398t-165 398.5t-399 165.5q-233 0 -398 -165.5t-165 -398.5zM308 1485q0 16 17 27q29 18 144 74 q123 62 135 62q30 0 30 -33q0 -16 -17 -26q-29 -18 -144 -75q-123 -62 -135 -61q-30 -1 -30 32zM705 1485q0 16 16 27q29 18 145 74q123 62 135 62q30 0 30 -33q0 -16 -17 -26q-29 -18 -145 -75q-123 -62 -134 -61q-30 -1 -30 32z" />
<glyph unicode="&#x151;" d="M44 427q0 177 125 302t302 125t302 -125t125 -302t-125 -302t-302 -125t-302 125t-125 302zM106 427q0 -152 107 -258.5t258 -106.5q152 0 259 107t107 258q0 152 -107 259t-259 107t-258.5 -107t-106.5 -259zM110 1089q0 16 17 26q29 18 144 75q123 62 135 62 q30 0 30 -33q0 -16 -17 -26q-29 -18 -144 -75q-123 -62 -135 -62q-30 0 -30 33zM506 1089q0 16 17 26q29 18 145 75q123 62 134 62q30 0 30 -33q0 -16 -16 -26q-29 -18 -145 -75q-123 -62 -135 -62q-30 0 -30 33z" />
<glyph unicode="&#x152;" horiz-adv-x="1999" d="M44 625q0 259 183 442.5t442 183.5q180 0 333 -96t231 -258v323q0 31 31 31h661q31 0 31 -31t-31 -31h-630v-533h498q31 0 30 -31q0 -31 -30 -30h-498v-533h630q31 0 31 -31t-31 -31h-661q-31 0 -31 31v323q-78 -162 -231 -258t-333 -96q-259 0 -442 183t-183 442z M106 625q0 -233 165 -398t398 -165t398.5 165t165.5 398t-165 398.5t-399 165.5q-233 0 -398 -165.5t-165 -398.5z" />
<glyph unicode="&#x153;" horiz-adv-x="1682" d="M44 427q0 177 125 302t302 125q130 0 239 -73t158 -194q48 122 157 194.5t239 72.5q70 0 143 -25q69 -25 141 -80q90 -69 90 -124q0 -18 -15 -26l-659 -381q109 -157 300 -156q169 0 276 125l40 58q11 15 27 15q32 0 31 -30q0 -9 -4 -17q-125 -213 -370 -213 q-130 0 -239 73t-157 195q-48 -122 -157 -195t-240 -73q-177 0 -302 125t-125 302zM106 427q0 -152 107 -258.5t258 -106.5q152 0 259 107t107 258q0 152 -107 259t-259 107t-258.5 -107t-106.5 -259zM898 427q0 -82 35 -156l631 365q-109 157 -300 157q-152 0 -259 -107 t-107 -259z" />
<glyph unicode="&#x154;" horiz-adv-x="899" d="M132 31v1191q0 29 31 29h330q150 0 255.5 -106t105.5 -255q0 -150 -105.5 -255.5t-255.5 -105.5h-124l477 -476q10 -10 9 -22q0 -32 -31 -32q-12 0 -22 10l-525 525q-14 13 -14 25q0 31 38 31h192q123 0 211.5 88t88.5 212q0 123 -88 211t-212 88h-299v-1158 q0 -31 -31 -31t-31 31zM330 1485q0 16 17 27q29 18 145 74q123 62 134 62q30 0 30 -33q0 -16 -16 -26q-29 -18 -145 -75q-123 -62 -135 -61q-30 -1 -30 32z" />
<glyph unicode="&#x155;" horiz-adv-x="608" d="M132 31v793q0 31 31 30q32 0 31 -73q68 73 167 73q137 0 198 -114q5 -9 6 -17q0 -30 -33 -30q-6 0 -55 50t-116 50q-69 0 -118 -49.5t-49 -118.5v-594q0 -31 -31 -31t-31 31zM198 1089q0 16 17 26q29 18 144 75q123 62 135 62q30 0 30 -33q0 -16 -17 -26 q-29 -18 -144 -75q-123 -62 -135 -62q-30 0 -30 33z" />
<glyph unicode="&#x156;" horiz-adv-x="899" d="M132 31v1191q0 29 31 29h330q150 0 255.5 -106t105.5 -255q0 -150 -105.5 -255.5t-255.5 -105.5h-124l477 -476q10 -10 9 -22q0 -32 -31 -32q-12 0 -22 10l-525 525q-14 13 -14 25q0 31 38 31h192q123 0 211.5 88t88.5 212q0 123 -88 211t-212 88h-299v-1158 q0 -31 -31 -31t-31 31zM290 -265q0 30 32 30q5 0 55 -50t116 -50q69 0 118.5 49.5t49.5 118.5t-49.5 118t-118.5 49q-31 0 -31 31t31 31q94 0 161.5 -67.5t67.5 -161.5t-67 -161.5t-162 -67.5q-136 0 -199 115q-4 8 -4 16z" />
<glyph unicode="&#x157;" horiz-adv-x="608" d="M-41 -265q0 30 33 30q5 0 55 -50t116 -50q69 0 118 49.5t49 118.5t-49 118t-118 49q-31 0 -31 31v793q0 31 31 30q32 0 31 -73q68 73 167 73q137 0 198 -114q5 -9 6 -17q0 -30 -33 -30q-6 0 -56 50t-115 50q-70 0 -118.5 -49.5t-48.5 -118.5v-565q85 -11 141.5 -76.5 t56.5 -150.5q0 -94 -67.5 -161.5t-161.5 -67.5q-137 0 -199 115q-5 8 -5 16z" />
<glyph unicode="&#x158;" horiz-adv-x="899" d="M132 31v1191q0 29 31 29h330q150 0 255.5 -106t105.5 -255q0 -150 -105.5 -255.5t-255.5 -105.5h-124l477 -476q10 -10 9 -22q0 -32 -31 -32q-12 0 -22 10l-525 525q-14 13 -14 25q0 31 38 31h192q123 0 211.5 88t88.5 212q0 123 -88 211t-212 88h-299v-1158 q0 -31 -31 -31t-31 31zM264 1615q0 33 30 33q10 0 18 -6l181 -121l182 121q8 6 17 6q30 0 30 -33q0 -15 -14 -24l-195 -131q-11 -8 -20 -7q-9 0 -19 7l-196 131q-14 9 -14 24z" />
<glyph unicode="&#x159;" horiz-adv-x="635" d="M132 31v793q0 31 31 30q32 0 31 -73q69 73 167 73q138 0 199 -114q4 -9 5 -17q0 -30 -33 -30q-5 0 -54 50t-117 50q-69 0 -118 -49.5t-49 -118.5v-594q0 -31 -31 -31t-31 31zM132 1219q0 33 31 33q9 0 18 -6l180 -121l182 121q9 6 17 6q31 0 31 -33q0 -15 -14 -25 l-196 -130q-11 -8 -20 -8q-8 0 -19 8l-196 130q-14 10 -14 25z" />
<glyph unicode="&#x15a;" horiz-adv-x="767" d="M44 197q0 30 33 30q14 0 25 -16q9 -14 29 -42q89 -107 231 -107q123 0 211.5 88t88.5 211t-88.5 211.5t-211 88.5t-209 86.5t-86.5 208.5t86.5 208.5t208.5 86.5q168 0 255 -146q5 -8 5 -17q0 -30 -33 -30q-11 0 -40 33q-36 43 -67 64q-52 34 -120 34q-97 0 -165 -68.5 t-68 -164.5t68 -165t165 -69q149 0 255 -105.5t106 -255.5t-106 -255.5t-255 -105.5q-97 0 -181 49t-133 132q-4 8 -4 16zM198 1485q0 16 18 27q28 18 144 74q123 62 135 62q30 0 30 -33q0 -16 -18 -26q-28 -18 -143 -75q-123 -62 -135 -61q-31 -1 -31 32z" />
<glyph unicode="&#x15b;" horiz-adv-x="597" d="M44 181q0 30 33 30q17 0 27 -21l20 -38q57 -90 168 -90q83 0 141.5 59t58.5 141q0 86 -62 143t-148 57q-79 0 -135 58.5t-56 137.5q0 81 57.5 138.5t138.5 57.5q113 0 169 -96q4 -9 5 -17q0 -30 -32 -30q-7 0 -47 41t-95 41t-95 -40t-40 -95q0 -60 42.5 -97t104.5 -37 q106 0 180 -78t74 -184q0 -107 -76.5 -184.5t-184.5 -77.5q-82 0 -149 46t-96 123q-3 6 -3 12zM123 1089q0 16 18 26q28 18 144 75q123 62 135 62q30 0 30 -33q0 -16 -17 -26q-28 -18 -144 -75q-123 -62 -135 -62q-31 0 -31 33z" />
<glyph unicode="&#x15c;" horiz-adv-x="767" d="M44 197q0 30 33 30q14 0 25 -16q9 -14 29 -42q89 -107 231 -107q123 0 211.5 88t88.5 211t-88.5 211.5t-211 88.5t-209 86.5t-86.5 208.5t86.5 208.5t208.5 86.5q168 0 255 -146q5 -8 5 -17q0 -30 -33 -30q-11 0 -40 33q-36 43 -67 64q-52 34 -120 34q-97 0 -165 -68.5 t-68 -164.5t68 -165t165 -69q149 0 255 -105.5t106 -255.5t-106 -255.5t-255 -105.5q-97 0 -181 49t-133 132q-4 8 -4 16zM132 1485q0 15 14 25l196 130q11 8 20 8q8 0 19 -8l196 -130q14 -10 14 -25q0 -33 -31 -32q-9 0 -17 6l-181 120l-181 -120q-9 -6 -18 -6 q-31 -1 -31 32z" />
<glyph unicode="&#x15d;" horiz-adv-x="597" d="M44 181q0 30 33 30q17 0 27 -21l20 -38q57 -90 168 -90q83 0 141.5 59t58.5 141q0 86 -62 143t-148 57q-79 0 -135 58.5t-56 137.5q0 81 57.5 138.5t138.5 57.5q113 0 169 -96q4 -9 5 -17q0 -30 -32 -30q-7 0 -47 41t-95 41t-95 -40t-40 -95q0 -60 42.5 -97t104.5 -37 q106 0 180 -78t74 -184q0 -107 -76.5 -184.5t-184.5 -77.5q-82 0 -149 46t-96 123q-3 6 -3 12zM57 1089q0 15 14 24l197 131q11 8 19 8t20 -8l195 -131q14 -10 14 -24q0 -33 -31 -33q-9 0 -17 6l-181 121l-181 -121q-9 -6 -18 -6q-31 0 -31 33z" />
<glyph unicode="&#x15e;" horiz-adv-x="767" d="M44 197q0 30 33 30q14 0 25.5 -16l35.5 -49q88 -100 224 -100q123 0 211.5 88t88.5 211t-88.5 211.5t-211 88.5t-209 86.5t-86.5 208.5t86.5 208.5t208.5 86.5q170 0 255 -146q5 -9 5 -17q0 -30 -33 -30q-11 0 -40 33q-36 43 -67 64q-52 34 -120 34q-97 0 -165 -68.5 t-68 -164.5t68 -165t165 -69q149 0 255 -105.5t106 -255.5q0 -113 -64 -205.5t-170 -132.5q102 -68 102 -190q0 -94 -67.5 -161.5t-161.5 -67.5q-132 0 -199 115q-4 8 -4 16q0 30 32 30q5 0 53 -50t118 -50q69 0 118 49.5t49 118.5t-49 118t-118 49q-96 0 -181.5 49 t-132.5 132q-4 8 -4 16z" />
<glyph unicode="&#x15f;" horiz-adv-x="597" d="M44 181q0 30 33 30q17 0 27 -21l20 -38q56 -90 168 -90q83 0 141.5 59t58.5 141q0 86 -62 143t-148 57q-79 0 -135 58.5t-56 137.5q0 81 57.5 138.5t138.5 57.5q114 0 169 -96q4 -9 5 -17q0 -30 -32 -30q-7 0 -47 41t-95 41t-95 -40t-40 -95q0 -60 42.5 -97t104.5 -37 q106 0 180 -78t74 -184q0 -160 -143 -234q110 -67 111 -195q0 -94 -67.5 -161.5t-161.5 -67.5q-135 0 -200 115q-4 8 -4 16q0 30 33 30q5 0 55 -50t116 -50q69 0 118 49.5t49 118.5t-49.5 118t-117.5 49q-82 0 -149 46t-96 123q-3 7 -3 12z" />
<glyph unicode="&#x160;" horiz-adv-x="767" d="M44 197q0 30 33 30q14 0 25 -16q9 -14 29 -42q89 -107 231 -107q123 0 211.5 88t88.5 211t-88.5 211.5t-211 88.5t-209 86.5t-86.5 208.5t86.5 208.5t208.5 86.5q168 0 255 -146q5 -8 5 -17q0 -30 -33 -30q-11 0 -40 33q-36 43 -67 64q-52 34 -120 34q-97 0 -165 -68.5 t-68 -164.5t68 -165t165 -69q149 0 255 -105.5t106 -255.5t-106 -255.5t-255 -105.5q-97 0 -181 49t-133 132q-4 8 -4 16zM132 1615q0 33 31 33q9 0 18 -6l181 -121l181 121q9 6 17 6q31 0 31 -33q0 -15 -14 -24l-198 -132q-5 -4 -17 -4t-18 4l-198 132q-14 9 -14 24z" />
<glyph unicode="&#x161;" horiz-adv-x="597" d="M44 181q0 30 33 30q17 0 27 -21l20 -38q57 -90 168 -90q83 0 141.5 59t58.5 141q0 86 -62 143t-148 57q-79 0 -135 58.5t-56 137.5q0 81 57.5 138.5t138.5 57.5q113 0 169 -96q4 -9 5 -17q0 -30 -32 -30q-7 0 -47 41t-95 41t-95 -40t-40 -95q0 -60 42.5 -97t104.5 -37 q106 0 180 -78t74 -184q0 -107 -76.5 -184.5t-184.5 -77.5q-82 0 -149 46t-96 123q-3 6 -3 12zM60 1219q0 33 31 33q9 0 17 -6l181 -121l181 121q9 6 18 6q31 0 31 -33q0 -15 -14 -25l-198 -132q-5 -4 -18 -3q-11 0 -17 3l-198 132q-14 10 -14 25z" />
<glyph unicode="&#x162;" horiz-adv-x="898" d="M44 1220q0 31 31 31h793q31 0 30 -31q0 -31 -30 -31h-366v-1129q85 -11 141.5 -76.5t56.5 -150.5q0 -94 -67 -161.5t-162 -67.5q-137 0 -199 115q-4 8 -4 16q0 30 32 30q5 0 55 -50t116 -50q69 0 118.5 49.5t49.5 118.5t-49.5 118t-118.5 49q-31 0 -31 31v1158h-365 q-31 0 -31 31z" />
<glyph unicode="&#x163;" horiz-adv-x="687" d="M44 824q0 31 31 30h167v366q0 31 31 31t31 -31v-366h167q31 0 31 -30q0 -31 -31 -31h-167v-564q0 -69 49.5 -118t117.5 -49q45 0 92 29t48 29q32 0 32 -32q0 -25 -57 -57q115 -66 114 -198q0 -94 -67 -161.5t-162 -67.5q-137 0 -199 115q-4 8 -4 16q0 30 32 30 q6 0 54.5 -50t116.5 -50q69 0 118.5 49.5t49.5 118.5t-49.5 118t-118.5 49q-94 0 -161.5 67.5t-67.5 161.5v564h-167q-31 0 -31 31z" />
<glyph unicode="&#x164;" horiz-adv-x="898" d="M44 1220q0 31 31 31h793q31 0 30 -31q0 -31 -30 -31h-366v-1158q0 -31 -31 -31t-31 31v1158h-365q-31 0 -31 31zM242 1615q0 33 30 33q10 0 18 -6l181 -121l182 121q8 6 17 6q30 0 30 -33q0 -15 -14 -24l-195 -131q-11 -8 -20 -7q-9 0 -19 7l-196 131q-14 9 -14 24z" />
<glyph unicode="&#x165;" horiz-adv-x="687" d="M44 824q0 31 31 30h167v366q0 31 31 31t31 -31v-366h167q31 0 31 -30q0 -31 -31 -31h-167v-564q0 -69 49.5 -118t117.5 -49q45 0 92 29t48 29q32 0 32 -32q0 -10 -10 -21q-55 -67 -162 -67q-94 0 -161.5 67.5t-67.5 161.5v564h-167q-31 0 -31 31zM44 1615q0 33 31 33 q9 0 17 -6l181 -121l182 121q9 6 17 6q31 0 31 -33q0 -15 -14 -24l-196 -131q-11 -8 -20 -7q-8 0 -19 7l-196 131q-14 9 -14 24z" />
<glyph unicode="&#x166;" horiz-adv-x="898" d="M44 1220q0 31 31 31h793q31 0 30 -31q0 -31 -30 -31h-366v-533h167q31 0 31 -31t-31 -30h-167v-564q0 -31 -31 -31t-31 31v564h-167q-31 0 -31 30q0 31 31 31h167v533h-365q-31 0 -31 31z" />
<glyph unicode="&#x167;" horiz-adv-x="687" d="M44 427q0 31 31 31h167v335h-167q-31 0 -31 31t31 30h167v366q0 31 31 31t31 -31v-366h167q31 0 31 -30q0 -31 -31 -31h-167v-335h167q31 0 31 -31t-31 -31h-167v-167q0 -69 49.5 -118t117.5 -49q44 0 91.5 29t48.5 29q32 0 32 -32q0 -11 -10 -21q-59 -67 -162 -67 q-94 0 -161.5 67.5t-67.5 161.5v167h-167q-31 0 -31 31z" />
<glyph unicode="&#x168;" horiz-adv-x="1030" d="M88 427v793q0 31 31 31t31 -31v-793q0 -152 107 -258.5t258 -106.5q152 0 259 107t107 258v793q0 31 31 31t31 -31v-793q0 -177 -125.5 -302t-302.5 -125t-302 125t-125 302zM220 1549q0 11 10 28q42 70 153 70q64 0 142.5 -66t121.5 -66q63 0 93.5 33t38.5 33 q32 0 31 -30q0 -11 -9 -27q-42 -70 -154 -71q-64 0 -142.5 66.5t-121.5 66.5q-63 0 -93 -33.5t-38 -33.5q-32 0 -32 30z" />
<glyph unicode="&#x169;" horiz-adv-x="767" d="M88 295v529q0 31 31 30q31 0 31 -30v-529q0 -96 68.5 -164.5t164.5 -68.5q97 0 165.5 68.5t68.5 164.5v529q0 31 30 30q31 0 31 -30v-529q0 -122 -86 -208.5t-209 -86.5q-122 0 -208.5 86.5t-86.5 208.5zM88 1153q0 11 10 27q42 70 153 71q65 0 143 -66t121 -66 q63 0 94 33t38 33q33 0 32 -30q0 -11 -10 -27q-42 -70 -154 -71q-64 0 -142.5 66t-121.5 66q-62 0 -92.5 -33t-38.5 -33q-32 0 -32 30z" />
<glyph unicode="&#x16a;" horiz-adv-x="1030" d="M88 427v793q0 31 31 31t31 -31v-793q0 -152 107 -258.5t258 -106.5q152 0 259 107t107 258v793q0 31 31 31t31 -31v-793q0 -177 -125.5 -302t-302.5 -125t-302 125t-125 302zM88 1550q0 31 31 31h793q31 0 31 -31t-31 -31h-793q-31 0 -31 31z" />
<glyph unicode="&#x16b;" horiz-adv-x="766" d="M88 295v529q0 31 31 30q31 0 31 -30v-529q0 -96 68.5 -164.5t164.5 -68.5t165 68.5t69 164.5v529q0 31 30 30q31 0 31 -30v-529q0 -122 -86.5 -208.5t-208.5 -86.5t-208.5 86.5t-86.5 208.5zM88 1154q0 31 31 31h528q31 0 31 -31t-31 -31h-528q-31 0 -31 31z" />
<glyph unicode="&#x16c;" horiz-adv-x="1030" d="M88 427v793q0 31 31 31t31 -31v-793q0 -152 107 -258.5t258 -106.5q152 0 259 107t107 258v793q0 31 31 31t31 -31v-793q0 -177 -125.5 -302t-302.5 -125t-302 125t-125 302zM285 1616q0 31 33 31q9 0 77 -66t120 -66q51 0 120 66t78 66q33 0 32 -31q0 -12 -27 -41 q-112 -121 -203 -121q-92 0 -203 121q-27 29 -27 41z" />
<glyph unicode="&#x16d;" horiz-adv-x="766" d="M88 295v529q0 31 31 30q31 0 31 -30v-529q0 -96 68.5 -164.5t164.5 -68.5t165 68.5t69 164.5v529q0 31 30 30q31 0 31 -30v-529q0 -122 -86.5 -208.5t-208.5 -86.5t-208.5 86.5t-86.5 208.5zM153 1220q0 31 33 31q9 0 76.5 -66t120.5 -66q51 0 120 66t77 66q33 0 33 -31 q0 -12 -27 -41q-112 -121 -204 -121t-202 121q-27 29 -27 41z" />
<glyph unicode="&#x16e;" horiz-adv-x="1030" d="M88 427v793q0 31 31 31t31 -31v-793q0 -152 107 -258.5t258 -106.5q152 0 259 107t107 258v793q0 31 31 31t31 -31v-793q0 -177 -125.5 -302t-302.5 -125t-302 125t-125 302zM359 1494q0 64 46 110t110 46t110 -46t46 -110t-45.5 -108.5t-110.5 -44.5q-64 0 -110 44.5 t-46 108.5zM420 1494q0 -40 28.5 -66t66.5 -26q39 0 67 26t28 66q0 39 -28 66.5t-67 27.5t-67 -27.5t-28 -66.5z" />
<glyph unicode="&#x16f;" horiz-adv-x="766" d="M88 295v529q0 31 31 30q31 0 31 -30v-529q0 -96 68.5 -164.5t164.5 -68.5t165 68.5t69 164.5v529q0 31 30 30q31 0 31 -30v-529q0 -122 -86.5 -208.5t-208.5 -86.5t-208.5 86.5t-86.5 208.5zM226 1120q0 64 46.5 109.5t110.5 45.5t110 -45.5t46 -109.5t-46 -109t-110 -45 t-110.5 45t-46.5 109zM288 1120q0 -40 28 -66t67 -26t66.5 26t27.5 66q0 39 -27.5 66.5t-66.5 27.5t-67 -27.5t-28 -66.5z" />
<glyph unicode="&#x170;" horiz-adv-x="1030" d="M88 427v793q0 31 31 31t31 -31v-793q0 -152 107 -258.5t258 -106.5q152 0 259 107t107 258v793q0 31 31 31t31 -31v-793q0 -177 -125.5 -302t-302.5 -125t-302 125t-125 302zM154 1485q0 16 17 27q29 18 144 74q123 62 135 62q30 0 30 -33q0 -16 -17 -26 q-29 -18 -144 -75q-123 -62 -135 -61q-30 -1 -30 32zM551 1485q0 16 16 27q29 18 145 74q123 62 135 62q30 0 29 -33q0 -16 -16 -26q-29 -18 -145 -75q-123 -62 -135 -61q-29 -1 -29 32z" />
<glyph unicode="&#x171;" horiz-adv-x="899" d="M88 1089q0 16 18 26q28 18 144 75q122 62 134 62q31 0 31 -33q0 -16 -18 -26q-28 -18 -144 -75q-123 -62 -135 -62q-30 0 -30 33zM154 295v529q0 31 31 30q31 0 31 -30v-529q0 -96 68.5 -164.5t164.5 -68.5q97 0 165.5 68.5t68.5 164.5v529q0 31 30 30q31 0 31 -30v-529 q0 -122 -86 -208.5t-209 -86.5q-122 0 -208.5 86.5t-86.5 208.5zM484 1089q0 16 18 26q28 18 145 75q122 62 133 62q31 0 31 -33q0 -16 -17 -26q-28 -18 -145 -75q-123 -62 -135 -62q-30 0 -30 33z" />
<glyph unicode="&#x172;" horiz-adv-x="1030" d="M88 427v793q0 31 31 31t31 -31v-793q0 -152 107 -258.5t258 -106.5q152 0 259 107t107 258v793q0 31 31 31t31 -31v-793q0 -177 -125.5 -302t-302.5 -125q-69 0 -118 -49.5t-49 -117.5q0 -69 49.5 -118.5t117.5 -49.5q70 0 117.5 50t53.5 50q33 0 33 -30q0 -9 -5 -16 q-68 -115 -199 -115q-94 0 -161.5 67t-67.5 162q0 119 98 187q-132 43 -214 156t-82 251z" />
<glyph unicode="&#x173;" horiz-adv-x="766" d="M88 295v529q0 31 31 30q31 0 31 -30v-529q0 -96 68.5 -164.5t164.5 -68.5t165 68.5t69 164.5v529q0 31 30 30q31 0 31 -30v-529q0 -122 -86.5 -208.5t-208.5 -86.5q-69 0 -118 -49.5t-49 -117.5q0 -69 49 -118.5t118 -49.5q66 0 116 50t55 50q33 0 33 -30q0 -8 -5 -16 q-64 -115 -199 -115q-94 0 -161.5 67t-67.5 162q0 126 107 193q-78 36 -125.5 109.5t-47.5 159.5z" />
<glyph unicode="&#x174;" horiz-adv-x="1890" d="M44 1221q0 30 33 30q18 0 26 -17l567 -1134l263 525q-294 587 -294 596q0 30 32 30q18 0 27 -17l269 -540l270 540q9 17 26 17q33 0 33 -30q0 -9 -294 -596l263 -525l566 1134q9 17 27 17q33 0 32 -30q0 -11 -275 -564q-274 -550 -320 -635q-12 -22 -31 -22q-18 0 -30 22 l-267 535l-267 -535q-11 -22 -30 -22q-18 0 -30 22q-47 85 -321 635q-275 553 -275 564zM738 1485q0 15 14 25l196 130q11 8 19 8q9 0 20 -8l195 -130q14 -10 14 -25q0 -33 -30 -32q-10 0 -17 6l-182 120l-181 -120q-8 -6 -18 -6q-30 -1 -30 32z" />
<glyph unicode="&#x175;" horiz-adv-x="1471" d="M44 824q0 30 33 30q18 0 26 -16l369 -738l230 458q-129 258 -129 266q0 30 32 30q18 0 27 -16l369 -738l368 738q9 17 26 16q33 0 33 -30q0 -7 -397 -802q-11 -22 -31 -22q-18 0 -30 22l-234 468l-234 -468q-11 -22 -31 -22q-18 0 -30 22q-397 795 -397 802zM506 1089 q0 15 15 24l195 131q11 8 20 8t20 -8l195 -131q14 -10 14 -24q0 -33 -30 -33q-9 0 -18 6l-181 121l-181 -121q-9 -6 -18 -6q-31 0 -31 33z" />
<glyph unicode="&#x176;" horiz-adv-x="1031" d="M44 1220q0 32 32 32q14 0 24 -14l438 -562l438 562q10 13 24 14q32 0 31 -32q0 -10 -7 -19l-455 -586v-584q0 -31 -31 -31t-31 31v584l-456 586q-7 9 -7 19zM308 1485q0 15 14 25l196 130q11 8 20 8q8 0 20 -8l195 -130q14 -10 14 -25q0 -33 -31 -32q-9 0 -17 6l-181 120 l-181 -120q-9 -6 -18 -6q-31 -1 -31 32z" />
<glyph unicode="&#x177;" horiz-adv-x="810" d="M88 295v529q0 31 31 30q31 0 31 -30v-529q0 -96 68.5 -164.5t164.5 -68.5t165 68.5t69 164.5v529q0 31 30 30q31 0 31 -30v-925q0 -122 -86.5 -208.5t-208.5 -86.5q-173 0 -255 146q-4 9 -5 17q0 30 33 30q11 0 40 -34q37 -43 66 -63q52 -34 121 -35q96 0 165 69t69 165 v216q-89 -115 -234 -115q-122 0 -208.5 86.5t-86.5 208.5zM154 1089q0 15 14 24l196 131q11 8 19 8q9 0 20 -8l195 -131q14 -10 14 -24q0 -33 -30 -33q-10 0 -17 6l-182 121l-181 -121q-8 -6 -18 -6q-30 0 -30 33z" />
<glyph unicode="&#x178;" horiz-adv-x="1031" d="M44 1220q0 32 32 32q14 0 24 -14l438 -562l438 562q10 13 24 14q32 0 31 -32q0 -10 -7 -19l-455 -586v-584q0 -31 -31 -31t-31 31v584l-456 586q-7 9 -7 19zM276 1518q0 63 63 63q64 0 64 -63q0 -64 -64 -65q-63 1 -63 65zM672 1518q0 63 64 63t64 -63q0 -64 -64 -65 q-64 1 -64 65z" />
<glyph unicode="&#x179;" horiz-adv-x="1075" d="M44 31q0 10 11 24l882 1134h-861q-31 0 -31 31t31 31l924 1q32 0 31 -32q0 -10 -10 -24l-883 -1134h863q31 0 30 -31q0 -31 -30 -31l-925 -1q-32 0 -32 32zM374 1485q0 16 18 27q28 18 144 74q122 62 135 62q30 0 30 -33q0 -16 -17 -26q-28 -18 -145 -75 q-122 -62 -135 -61q-30 -1 -30 32z" />
<glyph unicode="&#x17a;" horiz-adv-x="811" d="M44 31q0 11 11 24l615 738h-594q-31 0 -31 31t31 30l660 1q32 0 31 -31q0 -11 -11 -25l-615 -737h595q31 0 31 -31t-31 -31l-660 -1q-32 0 -32 32zM242 1089q0 16 18 26q28 18 144 75q122 62 135 62q30 0 30 -33q0 -16 -18 -26q-28 -18 -144 -75q-122 -62 -135 -62 q-30 0 -30 33z" />
<glyph unicode="&#x17b;" horiz-adv-x="1075" d="M44 31q0 10 11 24l882 1134h-861q-31 0 -31 31t31 31l924 1q32 0 31 -32q0 -10 -10 -24l-883 -1134h863q31 0 30 -31q0 -31 -30 -31l-925 -1q-32 0 -32 32zM475 1518q0 63 63 63q64 0 65 -63q0 -64 -65 -65q-63 1 -63 65z" />
<glyph unicode="&#x17c;" horiz-adv-x="811" d="M44 31q0 11 11 24l615 738h-594q-31 0 -31 31t31 30l660 1q32 0 31 -31q0 -11 -11 -25l-615 -737h595q31 0 31 -31t-31 -31l-660 -1q-32 0 -32 32zM343 1121q0 63 63 64q64 0 64 -64t-64 -64q-63 0 -63 64z" />
<glyph unicode="&#x17d;" horiz-adv-x="1080" d="M44 26q0 12 10 23l886 1140h-862q-31 0 -31 31t31 31h924q34 0 35 -27q0 -11 -10 -23l-886 -1139h861q31 0 31 -31t-31 -31h-924q-34 0 -34 26zM311 1615q0 33 31 33q9 0 17 -6l181 -121l181 121q9 6 18 6q31 0 31 -33q0 -15 -14 -24l-198 -132q-5 -4 -18 -4q-11 0 -17 4 l-198 132q-14 9 -14 24z" />
<glyph unicode="&#x17e;" horiz-adv-x="816" d="M44 26q0 11 11 24l618 743h-595q-31 0 -30 31q0 31 30 30h661q33 0 34 -26q0 -11 -11 -24l-618 -742h595q31 0 31 -31t-31 -31h-661q-34 0 -34 26zM179 1219q0 33 31 33q9 0 17 -6l182 -121l180 121q9 6 18 6q31 0 31 -33q0 -15 -14 -25l-199 -132q-5 -4 -16 -3 q-12 0 -18 3l-198 132q-14 10 -14 25z" />
<glyph unicode="&#x17f;" horiz-adv-x="576" d="M132 31v991q0 94 67.5 161.5t161.5 67.5q104 0 162 -67q10 -11 10 -22q0 -31 -32 -31q-2 0 -48.5 29t-91.5 29q-69 0 -118 -49t-49 -118v-991q0 -31 -31 -31t-31 31z" />
<glyph unicode="&#x192;" horiz-adv-x="827" d="M44 -308q0 32 32 31q2 0 48.5 -29t91.5 -29q69 0 118 49.5t49 118.5v960h-167q-31 0 -31 31t31 30h167v168q0 94 67 161.5t162 67.5q104 0 161 -67q10 -11 10 -21q0 -32 -32 -32q-2 0 -48.5 29t-90.5 29q-70 0 -118.5 -49t-48.5 -118v-168h167q31 0 31 -30q0 -31 -31 -31 h-167v-960q0 -94 -67.5 -161.5t-161.5 -67.5q-105 0 -162 67q-10 11 -10 21z" />
<glyph unicode="&#x1fa;" horiz-adv-x="1339" d="M44 24q0 8 4 15l592 1066q8 15 18 18q-59 4 -100 42q-44 41 -44 99q0 61 48 103q46 41 108 41t109 -41.5t47 -102.5q0 -58 -42.5 -97t-101.5 -44q10 -4 17 -18l592 -1066q4 -7 5 -15q0 -31 -33 -31q-17 0 -25 17l-190 341l-3 -1l-753 1l-190 -341q-9 -17 -25 -17 q-33 0 -33 31zM326 411h688l-344 620zM520 1500q0 17 18 27q26 14 144 66q124 55 135 56q30 0 30 -33q0 -17 -19 -26q-25 -14 -144 -67q-124 -55 -134 -55q-30 -1 -30 32zM575 1264q0 -35 29 -57t66 -22q36 0 65.5 22t29.5 57t-30 60q-28 22 -65 22t-65 -22q-30 -25 -30 -60 z" />
<glyph unicode="&#x1fb;" horiz-adv-x="722" d="M44 295q0 122 87 208.5t208 86.5q144 0 234 -114v83q0 96 -69 165t-165 69q-63 0 -125.5 -39.5t-61.5 -39.5q-32 0 -31 32q0 11 9 22q79 86 209 86q122 0 208.5 -86.5t86.5 -208.5v-528q0 -31 -31 -31t-30 31v84q-89 -115 -234 -115q-122 0 -208.5 86.5t-86.5 208.5z M106 295q0 -96 68.5 -164.5t164.5 -68.5t165 68.5t69 164.5t-69 165t-165 69t-164.5 -69t-68.5 -165zM176 1419q0 16 17 26q29 18 144 75q123 62 135 62q30 0 30 -33q0 -16 -17 -26q-29 -18 -144 -75q-123 -62 -135 -62q-30 0 -30 33zM182 1120q0 64 46.5 109.5t110.5 45.5 t110 -45.5t46 -109.5t-46 -109t-110 -45t-110.5 45t-46.5 109zM244 1120q0 -40 28 -66t67 -26t66.5 26t27.5 66q0 39 -27.5 66.5t-66.5 27.5t-67 -27.5t-28 -66.5z" />
<glyph unicode="&#x1fc;" horiz-adv-x="1604" d="M44 30q0 10 5 18l793 1189q10 15 26 14h661q31 0 31 -31t-31 -31h-630v-533h498q31 0 31 -31t-31 -30h-498v-533l629 -1q31 0 31 -31t-31 -31l-659 1q-31 0 -31 31v365h-482l-255 -382q-10 -14 -24 -14q-33 0 -33 30zM397 458h441v660zM705 1419q0 16 17 26q28 18 145 75 q122 62 135 62q30 0 29 -33q0 -16 -17 -26q-28 -18 -145 -75q-122 -62 -133 -62q-31 0 -31 33z" />
<glyph unicode="&#x1fd;" horiz-adv-x="1418" d="M44 295q0 122 87 208.5t208 86.5q144 0 234 -114v83q0 96 -69 165t-165 69q-63 0 -125 -39l-62 -40q-32 0 -31 32q0 11 9 22q81 86 209 86q100 0 180.5 -62t105.5 -160q55 102 157 162t218 60q70 0 142 -25q69 -26 141 -81q90 -68 90 -123q0 -18 -15 -26l-659 -381 q109 -157 301 -156q171 0 279 129l37 54q12 15 26 15q32 0 32 -30q0 -8 -4 -17q-55 -98 -156 -155.5t-214 -57.5q-116 0 -217.5 60t-157.5 162q-26 -98 -105.5 -160t-180.5 -62q-122 0 -208.5 86.5t-86.5 208.5zM106 295q0 -96 68.5 -164.5t164.5 -68.5t165 68.5t69 164.5 t-69 165t-165 69t-164.5 -69t-68.5 -165zM625 1089q0 16 18 26q28 18 144 75q123 62 134 62q31 0 31 -33q0 -16 -17 -26q-28 -18 -145 -75q-123 -62 -135 -62q-30 0 -30 33zM634 427q0 -82 35 -156l631 365q-109 157 -300 157q-152 0 -259 -107t-107 -259z" />
<glyph unicode="&#x1fe;" horiz-adv-x="1339" d="M44 31q0 12 10 22l152 152q-161 179 -161 420q0 259 183 442.5t442 183.5q240 0 420 -162l153 153q10 10 21 10q32 0 32 -32q0 -12 -10 -22l-152 -152q162 -179 162 -421q0 -259 -184 -442t-442 -183q-241 0 -420 162l-153 -153q-10 -10 -21 -10q-32 0 -32 32zM107 625 q0 -216 143 -376l796 797q-160 144 -376 143q-233 0 -398 -165.5t-165 -398.5zM294 205q160 -144 376 -143q233 0 398.5 165t165.5 398q0 216 -144 377zM493 1485q0 16 18 27q28 18 144 74q123 62 135 62q30 0 30 -33q0 -16 -18 -26q-28 -18 -144 -75q-122 -62 -134 -61 q-31 -1 -31 32z" />
<glyph unicode="&#x1ff;" horiz-adv-x="943" d="M44 31q0 15 105 117q-104 120 -104 279q0 177 125 302t302 125q159 0 279 -104q102 105 117 105q32 0 31 -31q0 -15 -104 -118q105 -120 104 -279q0 -177 -125.5 -302t-301.5 -125q-159 0 -280 104q-101 -105 -116 -105q-32 0 -32 32zM107 427q0 -134 85 -236l515 515 q-102 86 -235 87q-152 0 -258.5 -107t-106.5 -259zM236 148q102 -86 236 -86q151 0 258.5 107t107.5 258q0 134 -87 236zM308 1089q0 16 18 26q28 18 144 75q123 62 135 62q30 0 30 -33q0 -16 -18 -26q-28 -18 -144 -75q-122 -62 -134 -62q-31 0 -31 33z" />
<glyph unicode="&#x2c6;" horiz-adv-x="547" d="M44 1485q0 15 14 25l198 132q5 4 17 3q12 0 18 -3l198 -132q14 -10 14 -25q0 -33 -31 -32q-9 0 -17 6l-182 120l-181 -120q-9 -6 -17 -6q-31 -1 -31 32z" />
<glyph unicode="&#x2c7;" horiz-adv-x="547" d="M44 1615q0 33 31 33q9 0 17 -6l181 -121l182 121q9 6 17 6q31 0 31 -33q0 -15 -14 -24l-198 -132q-5 -4 -18 -4q-11 0 -17 4l-198 132q-14 9 -14 24z" />
<glyph unicode="&#x2d8;" horiz-adv-x="547" d="M44 1616q0 31 33 31q9 0 76.5 -66t120.5 -66q51 0 119.5 66t77.5 66q33 0 33 -31q0 -12 -27 -41q-113 -121 -204 -121q-92 0 -202 121q-27 29 -27 41z" />
<glyph unicode="&#x2d9;" horiz-adv-x="215" d="M44 1518q0 63 63 63q64 0 65 -63q0 -64 -65 -65q-63 1 -63 65z" />
<glyph unicode="&#x2da;" horiz-adv-x="400" d="M44 1494q0 64 46 110t110 46q65 0 111 -46t46 -110t-46 -108.5t-111 -44.5q-64 0 -110 44.5t-46 108.5zM106 1494q0 -40 27.5 -66t66.5 -26q40 0 67.5 26t27.5 66q0 39 -28 66.5t-67 27.5q-38 0 -66 -27.5t-28 -66.5z" />
<glyph unicode="&#x2db;" horiz-adv-x="520" d="M44 -167q0 94 67.5 161.5t161.5 67.5q31 0 31 -31t-31 -31q-69 0 -118 -49.5t-49 -117.5q0 -69 49 -118.5t118 -49.5q66 0 116 50t55 50q33 0 33 -30q0 -8 -5 -16q-63 -115 -199 -115q-94 0 -161.5 67.5t-67.5 161.5z" />
<glyph unicode="&#x2dc;" horiz-adv-x="679" d="M44 1549q0 11 10 28q42 70 153 70q65 0 143 -66t121 -66q63 0 93.5 33t38.5 33q33 0 32 -30q0 -11 -10 -27q-42 -70 -154 -71q-64 0 -142.5 66.5t-121.5 66.5q-62 0 -92.5 -33.5t-38.5 -33.5q-32 0 -32 30z" />
<glyph unicode="&#x2dd;" horiz-adv-x="811" d="M44 1485q0 16 18 27q28 18 144 74q122 62 134 62q31 0 31 -33q0 -16 -18 -26q-28 -18 -144 -75q-123 -62 -135 -61q-30 -1 -30 32zM440 1485q0 16 18 27q28 18 145 74q122 62 133 62q31 0 31 -33q0 -16 -17 -26q-28 -18 -145 -75q-123 -62 -135 -61q-30 -1 -30 32z" />
<glyph unicode="&#x384;" horiz-adv-x="149" d="M44 1440v176q0 31 31 31t31 -31v-176q0 -31 -31 -31t-31 31z" />
<glyph unicode="&#x385;" horiz-adv-x="612" d="M44 1518q0 63 63 63q64 0 65 -63q0 -64 -65 -65q-63 1 -63 65zM275 1440v176q0 31 31 31t30 -31v-176q0 -31 -30 -31q-31 0 -31 31zM440 1518q0 63 64 63t64 -63q0 -64 -64 -65q-64 1 -64 65z" />
<glyph unicode="&#x386;" horiz-adv-x="1339" d="M44 30q0 11 275 564q273 549 321 635q12 22 29 22q18 0 31 -22q47 -85 321 -635q275 -553 275 -564q0 -30 -33 -30q-18 0 -26 17l-206 412q3 -33 -30 -33h-661q-33 0 -31 33l-206 -412q-9 -17 -26 -17q-33 0 -33 30zM321 452q8 6 15 6h666q9 0 17 -6l-349 699zM640 1440 v176q0 31 30 31q31 0 31 -31v-176q0 -31 -31 -31q-30 0 -30 31z" />
<glyph unicode="&#x387;" horiz-adv-x="218" d="M44 526q0 63 65 62q65 0 65 -62q0 -26 -19 -45.5t-46 -19.5q-26 0 -45.5 19.5t-19.5 45.5z" />
<glyph unicode="&#x388;" horiz-adv-x="898" d="M132 31v1189q0 31 31 31h661q31 0 30 -31q0 -31 -30 -31h-630v-533h497q31 0 31 -31t-31 -30h-497v-533h630q31 0 30 -31q0 -31 -30 -31h-661q-31 0 -31 31zM462 1440v176q0 31 31 31t31 -31v-176q0 -31 -31 -31t-31 31z" />
<glyph unicode="&#x389;" horiz-adv-x="1118" d="M132 31v1189q0 31 31 31t31 -31v-564h731v564q0 31 31 31t31 -31v-1189q0 -31 -31 -31t-31 31v564h-731v-564q0 -31 -31 -31t-31 31zM529 1440v176q0 31 30 31q31 0 31 -31v-176q0 -31 -31 -31q-30 0 -30 31z" />
<glyph unicode="&#x38a;" horiz-adv-x="325" d="M132 31v1189q0 31 31 31t31 -31v-1189q0 -31 -31 -31t-31 31zM132 1440v176q0 31 31 31t31 -31v-176q0 -31 -31 -31t-31 31z" />
<glyph unicode="&#x38c;" horiz-adv-x="1338" d="M44 625q0 259 183 442.5t442 183.5t442.5 -183.5t183.5 -442.5t-183.5 -442t-442.5 -183t-442 183t-183 442zM106 625q0 -233 165 -398t398 -165t398.5 165t165.5 398t-165 398.5t-399 165.5q-233 0 -398 -165.5t-165 -398.5zM639 1440v176q0 31 30 31q31 0 31 -31v-176 q0 -31 -31 -31q-30 0 -30 31z" />
<glyph unicode="&#x38e;" horiz-adv-x="1031" d="M44 1220q0 32 32 32q14 0 24 -14l438 -562l438 562q10 13 24 14q32 0 31 -32q0 -10 -7 -19l-455 -586v-584q0 -31 -31 -31t-31 31v584l-456 586q-7 9 -7 19zM507 1440v176q0 31 31 31t31 -31v-176q0 -31 -31 -31t-31 31z" />
<glyph unicode="&#x38f;" horiz-adv-x="1338" d="M44 31q0 31 31 31h319l-184 160q-85 79 -122 159q-44 96 -44 244q0 259 183 442.5t442 183.5t442.5 -183.5t183.5 -442.5q0 -152 -44 -246q-36 -77 -123 -156l-184 -161h320q31 0 31 -31t-31 -31l-395 -1q-32 0 -32 32q0 13 13 25q103 85 292 268q92 107 91 301 q0 233 -165 398.5t-399 165.5q-233 0 -398 -165t-165 -399q0 -155 46 -237q35 -64 166 -176q184 -159 184 -181q0 -32 -32 -32l-395 1q-31 0 -31 31zM639 1440v176q0 31 30 31q31 0 31 -31v-176q0 -31 -31 -31q-30 0 -30 31z" />
<glyph unicode="&#x390;" horiz-adv-x="325" d="M-99 1518q0 63 64 63t64 -63q0 -64 -64 -65q-64 1 -64 65zM132 31v1189q0 31 31 31q30 0 30 -31l1 -1189q0 -31 -31 -31t-31 31zM132 1440v176q0 31 31 31q30 0 30 -31v-176q0 -31 -30 -31q-31 0 -31 31zM297 1518q0 63 63 63q64 0 65 -63q0 -64 -65 -65q-63 1 -63 65z " />
<glyph unicode="&#x391;" horiz-adv-x="1339" d="M44 30q0 11 275 564q273 549 321 635q12 22 29 22q18 0 31 -22q47 -85 321 -635q275 -553 275 -564q0 -30 -33 -30q-18 0 -26 17l-206 412q3 -33 -30 -33h-661q-33 0 -31 33l-206 -412q-9 -17 -26 -17q-33 0 -33 30zM321 452q8 6 15 6h666q9 0 17 -6l-349 699z" />
<glyph unicode="&#x392;" horiz-adv-x="898" d="M132 31v1189q0 31 31 31h330q122 0 208.5 -87t86.5 -208q0 -178 -156 -261q100 -42 161 -133.5t61 -201.5q0 -150 -105.5 -255.5t-256.5 -105.5l-329 1q-31 0 -31 31zM194 62l299 -1q124 0 212 88t88 211q0 124 -88 212.5t-212 88.5h-299v-599zM194 722h299q96 0 165 69 t69 165t-69 164.5t-165 68.5h-299v-467z" />
<glyph unicode="&#x393;" horiz-adv-x="854" d="M132 31v1189q0 31 31 31h661q31 0 30 -31q0 -31 -30 -31h-630v-1158q0 -31 -31 -31t-31 31z" />
<glyph unicode="&#x394;" horiz-adv-x="1339" d="M44 30q0 8 6 19l590 1180q11 22 29 22q19 0 31 -22l590 -1180q6 -11 6 -19q0 -30 -33 -30h-1187q-32 0 -32 30zM125 62h1090l-546 1089z" />
<glyph unicode="&#x395;" horiz-adv-x="898" d="M132 31v1189q0 31 31 31h661q31 0 30 -31q0 -31 -30 -31h-630v-533h497q31 0 31 -31t-31 -30h-497v-533h630q31 0 30 -31q0 -31 -30 -31h-661q-31 0 -31 31z" />
<glyph unicode="&#x396;" horiz-adv-x="1075" d="M44 31q0 10 11 24l882 1134h-861q-31 0 -31 31t31 31l924 1q32 0 31 -32q0 -10 -10 -24l-883 -1134h863q31 0 30 -31q0 -31 -30 -31l-925 -1q-32 0 -32 32z" />
<glyph unicode="&#x397;" horiz-adv-x="1118" d="M132 31v1189q0 31 31 31t31 -31v-564h731v564q0 31 31 31t31 -31v-1189q0 -31 -31 -31t-31 31v564h-731v-564q0 -31 -31 -31t-31 31z" />
<glyph unicode="&#x398;" horiz-adv-x="1338" d="M44 625q0 259 183 442.5t442 183.5t442.5 -183.5t183.5 -442.5t-183.5 -442t-442.5 -183t-442 183t-183 442zM106 625q0 -233 165 -398t398 -165t398.5 165t165.5 398t-165 398.5t-399 165.5q-233 0 -398 -165.5t-165 -398.5zM308 625q0 31 31 31h661q31 0 31 -31 t-31 -30h-661q-31 -1 -31 30z" />
<glyph unicode="&#x472;" horiz-adv-x="1338" d="M44 625q0 259 183 442.5t442 183.5t442.5 -183.5t183.5 -442.5t-183.5 -442t-442.5 -183t-442 183t-183 442zM106 625q0 -233 165 -398t398 -165t398.5 165t165.5 398t-165 398.5t-399 165.5q-233 0 -398 -165.5t-165 -398.5zM308 625q0 31 31 31h661q31 0 31 -31 t-31 -30h-661q-31 -1 -31 30z" />
<glyph unicode="&#x399;" horiz-adv-x="325" d="M132 31v1189q0 31 31 31t31 -31v-1189q0 -31 -31 -31t-31 31z" />
<glyph unicode="&#x39a;" horiz-adv-x="894" d="M132 31v1189q0 31 31 31t31 -31v-595q0 12 9 22l595 595q10 10 21 10q32 0 32 -32q0 -12 -10 -22l-572 -573l572 -572q10 -10 10 -22q0 -32 -32 -32q-11 0 -21 10l-595 594q-10 10 -9 22v-594q0 -31 -31 -31t-31 31z" />
<glyph unicode="&#x39b;" horiz-adv-x="1339" d="M44 30q0 11 275 564q274 550 321 635q12 22 29 22q18 0 31 -22q47 -85 321 -635q275 -553 275 -564q0 -30 -33 -30q-18 0 -26 17l-567 1134l-567 -1134q-9 -17 -26 -17q-33 0 -33 30z" />
<glyph unicode="&#x39c;" horiz-adv-x="1471" d="M44 30q0 4 1 8l263 1184q6 29 32 29q19 0 30 -24l366 -854l366 854q10 24 30 24q25 0 32 -29l262 -1184q1 -4 1 -8q0 -30 -32 -30q-24 0 -29 24l-243 1096l-357 -832q-11 -24 -30 -24q-20 0 -31 24l-356 832l-244 -1096q-5 -24 -29 -24q-32 0 -32 30z" />
<glyph unicode="&#x39d;" horiz-adv-x="1251" d="M132 1220q0 31 32 31q14 0 27 -16l867 -1114v1099q0 31 31 31t31 -31v-1189q0 -31 -32 -31q-14 0 -27 16l-866 1114v-1099q0 -31 -31 -31t-31 31z" />
<glyph unicode="&#x39e;" d="M44 31q0 31 31 31h793q31 0 30 -31q0 -31 -30 -31h-793q-31 0 -31 31zM44 1220q0 31 31 31h793q31 0 30 -31q0 -31 -30 -31h-793q-31 0 -31 31zM176 625q0 31 31 31h529q31 0 30 -31q0 -31 -30 -30h-529q-31 -1 -31 30z" />
<glyph unicode="&#x39f;" horiz-adv-x="1338" d="M44 625q0 259 183 442.5t442 183.5t442.5 -183.5t183.5 -442.5t-183.5 -442t-442.5 -183t-442 183t-183 442zM106 625q0 -233 165 -398t398 -165t398.5 165t165.5 398t-165 398.5t-399 165.5q-233 0 -398 -165.5t-165 -398.5z" />
<glyph unicode="&#x3a0;" horiz-adv-x="986" d="M132 31v1189q0 31 31 31h661q30 0 30 -31v-1189q0 -31 -30 -31q-31 0 -31 31v1158h-599v-1158q0 -31 -31 -31t-31 31z" />
<glyph unicode="&#x3a1;" horiz-adv-x="898" d="M132 31v1189q0 31 31 31h330q150 0 255.5 -106t105.5 -255q0 -150 -105.5 -255.5t-255.5 -105.5h-268q-31 0 -31 30q0 31 31 31h268q124 0 212 87.5t88 212.5q0 124 -88 211.5t-212 87.5h-299v-1158q0 -31 -31 -31t-31 31z" />
<glyph unicode="&#x3a3;" horiz-adv-x="811" d="M44 31q0 12 13 25l569 569l-569 569q-13 13 -13 26q0 32 32 32l660 -1q31 0 31 -31t-31 -31h-586l541 -542q10 -10 10 -21q0 -13 -10 -23l-541 -541h586q31 0 31 -31t-31 -31l-660 -1q-32 0 -32 32z" />
<glyph unicode="&#x3a4;" horiz-adv-x="898" d="M44 1220q0 31 31 31h793q31 0 30 -31q0 -31 -30 -31h-366v-1158q0 -31 -31 -31t-31 31v1158h-365q-31 0 -31 31z" />
<glyph unicode="&#x3a5;" horiz-adv-x="1031" d="M44 1220q0 32 32 32q14 0 24 -14l438 -562l438 562q10 13 24 14q32 0 31 -32q0 -10 -7 -19l-455 -586v-584q0 -31 -31 -31t-31 31v584l-456 586q-7 9 -7 19z" />
<glyph unicode="&#x3a6;" horiz-adv-x="1338" d="M44 625q0 196 208 318q173 101 387 109v168q0 31 30 31q31 0 31 -31v-168q214 -7 387 -109q208 -122 208 -318t-208 -318q-173 -101 -387 -108v-168q0 -31 -31 -31t-30 31v168q-214 7 -387 108q-208 122 -208 318zM106 625q0 -114 100 -207q84 -78 206 -118 q107 -36 227 -39v729q-112 -4 -214 -35q-127 -40 -214 -118q-105 -95 -105 -212zM700 261q120 4 227 39q122 41 206 118q100 93 100 207q0 117 -105 212q-87 78 -215 118q-101 32 -213 35v-729z" />
<glyph unicode="&#x3a7;" horiz-adv-x="1075" d="M44 31q0 10 7 18l448 576l-448 576q-7 9 -7 19q0 32 32 32q14 0 24 -14l438 -562l438 562q10 13 24 14q32 0 31 -32q0 -10 -7 -19l-447 -576l447 -576q7 -9 7 -18q0 -32 -31 -32q-14 0 -24 13l-438 563l-438 -563q-10 -13 -24 -13q-32 0 -32 32z" />
<glyph unicode="&#x3a8;" horiz-adv-x="1338" d="M44 1220q0 31 31 31t31 -31q0 -339 96 -517q128 -234 437 -244v761q0 31 30 31q31 0 31 -31v-761q309 10 437 244q96 178 96 517q0 31 31 31t31 -31q0 -366 -113 -562q-144 -251 -482 -261v-366q0 -31 -31 -31t-30 31v366q-338 10 -482 261q-113 196 -113 562z" />
<glyph unicode="&#x470;" horiz-adv-x="1338" d="M44 1220q0 31 31 31t31 -31q0 -339 96 -517q128 -234 437 -244v761q0 31 30 31q31 0 31 -31v-761q309 10 437 244q96 178 96 517q0 31 31 31t31 -31q0 -366 -113 -562q-144 -251 -482 -261v-366q0 -31 -31 -31t-30 31v366q-338 10 -482 261q-113 196 -113 562z" />
<glyph unicode="&#x3a9;" horiz-adv-x="1338" d="M44 31q0 31 31 31h319l-184 160q-85 79 -122 159q-44 96 -44 244q0 259 183 442.5t442 183.5t442.5 -183.5t183.5 -442.5q0 -152 -44 -246q-36 -77 -123 -156l-184 -161h320q31 0 31 -31t-31 -31l-395 -1q-32 0 -32 32q0 13 13 25q103 85 292 268q92 107 91 301 q0 233 -165 398.5t-399 165.5q-233 0 -398 -165t-165 -399q0 -155 46 -237q35 -64 166 -176q184 -159 184 -181q0 -32 -32 -32l-395 1q-31 0 -31 31z" />
<glyph unicode="&#x3aa;" horiz-adv-x="325" d="M-99 1518q0 63 64 63q63 0 63 -63q0 -64 -63 -65q-64 1 -64 65zM131 31v1189q0 31 31 31t31 -31v-1189q0 -31 -31 -31t-31 31zM297 1518q0 63 63 63q64 0 65 -63q0 -64 -65 -65q-63 1 -63 65z" />
<glyph unicode="&#x3ab;" horiz-adv-x="1031" d="M44 1220q0 32 32 32q14 0 24 -14l438 -562l438 562q10 13 24 14q32 0 31 -32q0 -10 -7 -19l-455 -586v-584q0 -31 -31 -31t-31 31v584l-456 586q-7 9 -7 19zM277 1518q0 63 63 63q64 0 64 -63q0 -64 -64 -65q-63 1 -63 65zM673 1518q0 63 63 63q64 0 65 -63 q0 -64 -65 -65q-63 1 -63 65z" />
<glyph unicode="&#x3ac;" horiz-adv-x="1140" d="M44 427q0 177 125 302t302 125q126 0 275 -127q119 -102 204 -237q85 170 85 334q0 31 31 30q31 0 31 -30q0 -195 -110 -397q109 -202 110 -396q0 -31 -31 -31t-31 31q0 164 -85 334q-85 -135 -204 -237q-149 -128 -275 -128q-177 0 -302 125t-125 302zM106 427 q0 -152 107 -258.5t258 -106.5q114 0 257 132q114 106 189 233q-76 128 -189 234q-143 132 -257 132q-152 0 -258.5 -107t-106.5 -259zM440 1088v176q0 31 31 31t31 -31v-176q0 -31 -31 -31t-31 31z" />
<glyph unicode="&#x3ad;" horiz-adv-x="791" d="M44 229q0 133 163 198q-163 65 -163 198q0 108 115 175q96 55 214 54q113 0 214 -57.5t156 -155.5q4 -9 4 -16q0 -30 -33 -30q-14 0 -25 15q-13 20 -42 59q-107 124 -274 124q-90 0 -170 -39q-98 -48 -97 -129q0 -80 97 -128q79 -39 170 -39q31 0 30 -31q0 -31 -30 -31 q-90 0 -170 -38q-98 -48 -97 -129q0 -80 97 -129q79 -39 170 -38q166 0 274 124l42 59q11 15 25 15q33 0 33 -30q0 -8 -4 -17q-55 -98 -156.5 -155.5t-213.5 -57.5q-118 0 -214 55q-115 66 -115 174zM342 1088v176q0 31 31 31t30 -31v-176q0 -31 -30 -31q-31 0 -31 31z" />
<glyph unicode="&#x3ae;" horiz-adv-x="810" d="M132 31v793q0 31 31 30q31 0 31 -30v-84q89 115 233 114q122 0 208.5 -86.5t86.5 -208.5v-925q0 -31 -31 -30q-31 0 -30 30v925q0 96 -69 165t-165 69t-164.5 -69t-68.5 -165v-528q0 -31 -31 -31t-31 31zM396 1088v176q0 31 31 31t31 -31v-176q0 -31 -31 -31t-31 31z" />
<glyph unicode="&#x3af;" horiz-adv-x="391" d="M88 229v595q0 31 31 30q31 0 31 -30v-595q0 -69 49 -118t118 -49q31 0 31 -31t-31 -31q-94 0 -161.5 67.5t-67.5 161.5zM88 1088v176q0 31 31 31t31 -31v-176q0 -31 -31 -31t-31 31z" />
<glyph unicode="&#x3b0;" horiz-adv-x="722" d="M88 295v529q0 31 31 30q31 0 31 -30v-529q0 -96 68.5 -164.5t164.5 -68.5t165 68.5t69 164.5v330q0 69 -49.5 118.5t-118.5 49.5q-31 0 -31 31t31 30q94 0 161.5 -67t67.5 -162v-330q0 -122 -86.5 -208.5t-208.5 -86.5t-208.5 86.5t-86.5 208.5zM122 1121q0 63 63 64 q64 0 64 -64t-64 -64q-63 0 -63 64zM352 1044v176q0 31 31 31t31 -31v-176q0 -31 -31 -31t-31 31zM518 1121q0 63 63 64q64 0 65 -64q0 -64 -65 -64q-63 0 -63 64z" />
<glyph unicode="&#x3b1;" horiz-adv-x="1140" d="M44 427q0 177 125 302t302 125q126 0 275 -127q119 -102 204 -237q85 170 85 334q0 31 31 30q31 0 31 -30q0 -195 -110 -397q109 -202 110 -396q0 -31 -31 -31t-31 31q0 164 -85 334q-85 -135 -204 -237q-149 -128 -275 -128q-177 0 -302 125t-125 302zM106 427 q0 -152 107 -258.5t258 -106.5q114 0 257 132q114 106 189 233q-76 128 -189 234q-143 132 -257 132q-152 0 -258.5 -107t-106.5 -259z" />
<glyph unicode="&#x3b2;" horiz-adv-x="832" d="M132 -366v1289q0 135 96.5 231.5t232.5 96.5q135 0 231 -96.5t96 -231.5q0 -96 -51.5 -176.5t-137.5 -121.5q86 -41 137.5 -121t51.5 -175q0 -136 -96.5 -232.5t-230.5 -96.5q-168 0 -267 137v-503q0 -31 -31 -30q-31 -1 -31 30zM194 329q0 -110 78.5 -188.5t188.5 -78.5 q109 0 187.5 78t78.5 189q0 109 -78.5 187.5t-187.5 78.5q-31 0 -31 30q0 26 34 31q27 3 84 15q82 28 130.5 96.5t48.5 155.5q0 109 -78.5 187.5t-187.5 78.5q-110 0 -188.5 -78.5t-78.5 -187.5v-594z" />
<glyph unicode="&#x3b3;" horiz-adv-x="943" d="M44 824q0 32 32 31q11 0 21 -9q116 -106 225 -284q106 -174 150 -329q44 154 151 330t224 283q11 10 22 9q31 0 30 -31q0 -11 -9 -22l-60 -66q-327 -376 -327 -705v-397q0 -31 -31 -30q-31 0 -31 30v397q0 297 -279 648l-108 123q-10 11 -10 22z" />
<glyph unicode="&#x3b4;" d="M44 427q0 139 82 251.5t214 155.5q-98 69 -98 188q0 94 67.5 161.5t161.5 67.5q128 0 199 -116q4 -7 5 -15q0 -30 -33 -30q-6 0 -53.5 49.5t-117.5 49.5q-69 0 -118 -49t-49 -118t49.5 -118.5t117.5 -49.5q177 0 302 -125t125 -302t-125 -302t-302 -125t-302 125 t-125 302zM106 427q0 -152 107 -258.5t258 -106.5q152 0 259 107t107 258q0 152 -107 259t-259 107t-258.5 -107t-106.5 -259z" />
<glyph unicode="&#x3b5;" horiz-adv-x="791" d="M44 229q0 133 163 198q-163 65 -163 198q0 108 115 175q96 55 214 54q113 0 214 -57.5t156 -155.5q4 -9 4 -16q0 -30 -33 -30q-14 0 -25 15q-13 20 -42 59q-107 124 -274 124q-90 0 -170 -39q-98 -48 -97 -129q0 -80 97 -128q79 -39 170 -39q31 0 30 -31q0 -31 -30 -31 q-90 0 -170 -38q-98 -48 -97 -129q0 -80 97 -129q79 -39 170 -38q166 0 274 124l42 59q11 15 25 15q33 0 33 -30q0 -8 -4 -17q-55 -98 -156.5 -155.5t-213.5 -57.5q-118 0 -214 55q-115 66 -115 174z" />
<glyph unicode="&#x3b6;" horiz-adv-x="744" d="M44 427v198q0 180 96 333t258 231h-323q-31 0 -31 31t31 31h594q31 0 31 -31t-31 -31q-233 0 -398 -165.5t-165 -398.5v-198q0 -152 107 -258.5t258 -106.5q94 0 161.5 -67.5t67.5 -161.5q0 -95 -67 -162t-162 -67q-97 0 -162 67q-10 10 -10 21q0 32 32 31q4 0 48 -29 t92 -29q69 0 118.5 49t49.5 119q0 69 -49.5 118t-118.5 49q-177 0 -302 125t-125 302z" />
<glyph unicode="&#x3b7;" horiz-adv-x="810" d="M132 31v793q0 31 31 30q31 0 31 -30v-84q89 115 233 114q122 0 208.5 -86.5t86.5 -208.5v-925q0 -31 -31 -30q-31 0 -30 30v925q0 96 -69 165t-165 69t-164.5 -69t-68.5 -165v-528q0 -31 -31 -31t-31 31z" />
<glyph unicode="&#x3b8;" d="M44 625q0 123 32 238q45 158 138 263q112 125 257 125q146 0 257 -125q93 -105 139 -263q32 -115 31 -238q0 -123 -31 -237q-44 -158 -139 -263q-112 -125 -257 -125q-142 0 -253 120q-92 100 -138 253q-36 121 -36 252zM107 595q4 -112 35 -214q40 -127 118 -214 q94 -106 211 -105q114 0 207 100q78 84 118 206q36 107 40 227h-729zM107 656h729q-4 120 -40 227q-41 122 -118 206q-93 100 -207 100q-117 0 -211 -106q-78 -87 -118 -214q-31 -101 -35 -213z" />
<glyph unicode="&#x473;" d="M44 625q0 123 32 238q45 158 138 263q112 125 257 125q146 0 257 -125q93 -105 139 -263q32 -115 31 -238q0 -123 -31 -237q-44 -158 -139 -263q-112 -125 -257 -125q-142 0 -253 120q-92 100 -138 253q-36 121 -36 252zM107 595q4 -112 35 -214q40 -127 118 -214 q94 -106 211 -105q114 0 207 100q78 84 118 206q36 107 40 227h-729zM107 656h729q-4 120 -40 227q-41 122 -118 206q-93 100 -207 100q-117 0 -211 -106q-78 -87 -118 -214q-31 -101 -35 -213z" />
<glyph unicode="&#x3b9;" horiz-adv-x="391" d="M88 229v595q0 31 31 30q31 0 31 -30v-595q0 -69 49 -118t118 -49q31 0 31 -31t-31 -31q-94 0 -161.5 67.5t-67.5 161.5z" />
<glyph unicode="&#x3ba;" horiz-adv-x="943" d="M44 31q0 11 10 22q87 101 120 164q47 90 46 196q0 169 -118 330l-48 59q-10 12 -10 22q0 32 32 31q16 0 48 -40q159 -196 159 -403q0 -80 -26 -156l590 590q10 10 21 9q32 0 31 -31q0 -10 -9 -22q-18 -20 -52 -65q-115 -159 -115 -322q0 -107 47 -197q33 -63 120 -165 q10 -11 9 -22q0 -32 -31 -32q-11 0 -21 10q-84 75 -134.5 184.5t-50.5 218.5q0 99 37 199l-602 -602q-10 -10 -21 -10q-32 0 -32 32z" />
<glyph unicode="&#x3bb;" horiz-adv-x="1075" d="M44 30q0 8 4 17l454 777l-222 380q-4 9 -4 17q0 30 31 30q17 0 26 -15l694 -1189q4 -9 4 -17q0 -30 -32 -30q-16 0 -26 15l-435 748l-436 -748q-10 -15 -25 -15q-33 0 -33 30z" />
<glyph unicode="&#x3bc;" horiz-adv-x="854" d="M132 -366v1190q0 31 31 30q31 0 31 -30v-529q0 -96 68.5 -164.5t164.5 -68.5q97 0 165.5 68t68.5 165v529q0 31 30 30q31 0 31 -30v-793q0 -31 -31 -31t-30 31v84q-89 -115 -234 -115q-144 0 -233 115v-481q0 -31 -31 -30q-31 -1 -31 30z" />
<glyph unicode="&#x3bd;" horiz-adv-x="805" d="M44 824q0 30 33 30q18 0 26 -16l368 -738q230 460 230 599q0 59 -33 79q-11 7 -62 16q-33 5 -33 30q0 31 31 30q157 0 157 -156q0 -127 -120 -389q-129 -283 -146 -299q-11 -10 -23 -10q-18 0 -31 22q-33 59 -214 425q-183 368 -183 377z" />
<glyph unicode="&#x3be;" horiz-adv-x="744" d="M44 1220q0 31 31 31h594q31 0 31 -31t-31 -31h-198q-110 0 -188.5 -78.5t-78.5 -188.5q0 -109 78 -187.5t187 -78.5q34 0 34 -31t-33 -30h-98q-109 0 -187 -78.5t-78 -187.5q0 -114 78 -189q75 -73 188 -78h98q94 0 161.5 -67.5t67.5 -161.5q0 -95 -67 -162t-162 -67 q-115 0 -165 71q-6 9 -7 17q0 32 32 31q4 0 49 -29t91 -29q69 0 118.5 49t49.5 119q0 69 -49.5 118t-118.5 49l-63 -1q-152 -1 -255 86q-107 92 -107 244q0 112 69.5 201t178.5 117q-152 97 -151 275q0 168 137 267h-205q-31 0 -31 31z" />
<glyph unicode="&#x3bf;" d="M44 427q0 177 125 302t302 125t302 -125t125 -302t-125 -302t-302 -125t-302 125t-125 302zM106 427q0 -152 107 -258.5t258 -106.5q152 0 259 107t107 258q0 152 -107 259t-259 107t-258.5 -107t-106.5 -259z" />
<glyph unicode="&#x3c0;" horiz-adv-x="986" d="M132 31v793q0 31 31 30h661q30 0 30 -30v-793q0 -31 -30 -31q-31 0 -31 31v762h-599v-762q0 -31 -31 -31t-31 31z" />
<glyph unicode="&#x3c1;" d="M44 427q0 177 125 302t302 125t302 -125t125 -302q0 -139 -81.5 -251.5t-213.5 -155.5q98 -69 97 -187q0 -94 -67 -161.5t-162 -67.5q-128 0 -199 115q-4 7 -4 16q0 30 32 30q6 0 54 -50t117 -50t118.5 49.5t49.5 118.5t-49.5 118t-118.5 49q-177 0 -302 125t-125 302z M106 427q0 -152 107 -258.5t258 -106.5q152 0 259 107t107 258q0 152 -107 259t-259 107t-258.5 -107t-106.5 -259z" />
<glyph unicode="&#x3c2;" horiz-adv-x="827" d="M44 427q0 177 125 302t302 125q186 0 302 -125q10 -11 10 -21q0 -32 -32 -31q5 0 -87 58t-193 58q-152 0 -258.5 -107t-106.5 -259t107 -258.5t258 -106.5q94 0 161.5 -67.5t67.5 -161.5t-67 -161.5t-162 -67.5q-129 0 -199 115q-4 7 -4 16q0 30 32 30q6 0 54 -50 t117 -50t118.5 49.5t49.5 118.5t-49.5 118t-118.5 49q-177 0 -302 125t-125 302z" />
<glyph unicode="&#x3c3;" horiz-adv-x="1074" d="M44 427q0 177 125 302t302 125h529q31 0 31 -30q0 -31 -31 -31h-308q96 -58 151 -156t55 -210q0 -177 -125 -302t-302 -125t-302 125t-125 302zM106 427q0 -152 107 -258.5t258 -106.5q152 0 259 107t107 258q0 152 -107 259t-259 107t-258.5 -107t-106.5 -259z" />
<glyph unicode="&#x3c4;" horiz-adv-x="810" d="M44 824q0 31 31 30h661q31 0 30 -30q0 -31 -30 -31h-300v-564q0 -69 49.5 -118t117.5 -49q31 0 31 -31t-31 -31q-94 0 -161.5 67.5t-67.5 161.5v564h-299q-31 0 -31 31z" />
<glyph unicode="&#x3c5;" horiz-adv-x="722" d="M88 295v529q0 31 31 30q31 0 31 -30v-529q0 -96 68.5 -164.5t164.5 -68.5t165 68.5t69 164.5v330q0 69 -49.5 118.5t-118.5 49.5q-31 0 -31 31t31 30q94 0 161.5 -67t67.5 -162v-330q0 -122 -86.5 -208.5t-208.5 -86.5t-208.5 86.5t-86.5 208.5z" />
<glyph unicode="&#x3c6;" horiz-adv-x="1206" d="M44 559q0 122 87 208.5t208 86.5q31 0 31 -30q0 -31 -31 -31q-96 0 -164.5 -69t-68.5 -165q0 -197 135 -340.5t332 -155.5v496q0 122 86.5 208.5t208.5 86.5t208.5 -86.5t86.5 -208.5q0 -222 -153.5 -384t-375.5 -174v-367q0 -31 -31 -30q-31 0 -30 30v367 q-222 12 -375.5 174t-153.5 384zM634 63q196 12 331.5 155.5t135.5 340.5q0 96 -68.5 165t-164.5 69t-165 -69t-69 -165v-496z" />
<glyph unicode="&#x3c7;" horiz-adv-x="811" d="M44 -366q0 8 4 15l323 580l-323 580q-4 8 -4 15q0 30 33 30q17 0 25 -15l304 -547l303 547q9 16 26 15q33 0 32 -30q0 -8 -4 -15l-322 -580l322 -580q4 -8 4 -15q0 -30 -32 -30q-17 0 -26 15l-303 547l-304 -547q-9 -16 -25 -15q-33 0 -33 30z" />
<glyph unicode="&#x3c8;" horiz-adv-x="1206" d="M44 824q0 31 31 30q31 0 31 -30q0 -344 68 -504q105 -247 399 -257v1157q0 31 30 31q31 0 31 -31v-1157q294 11 399 257q68 160 68 504q0 31 31 30q31 0 31 -30q0 -370 -83 -550q-121 -262 -446 -273v-367q0 -31 -31 -30q-31 0 -30 30v367q-325 11 -446 273 q-83 180 -83 550z" />
<glyph unicode="&#x471;" horiz-adv-x="1206" d="M44 824q0 31 31 30q31 0 31 -30q0 -344 68 -504q105 -247 399 -257v1157q0 31 30 31q31 0 31 -31v-1157q294 11 399 257q68 160 68 504q0 31 31 30q31 0 31 -30q0 -370 -83 -550q-121 -262 -446 -273v-367q0 -31 -31 -30q-31 0 -30 30v367q-325 11 -446 273 q-83 180 -83 550z" />
<glyph unicode="&#x3c9;" horiz-adv-x="1206" d="M44 427q0 152 71 278q85 150 224 149q31 0 31 -30q0 -31 -31 -31q-74 0 -135 -69q-50 -56 -75 -137q-24 -75 -23 -160q0 -85 23 -159q25 -81 75 -138q61 -69 135 -68q74 0 135 68q50 56 75 138q24 75 24 159q0 31 30 31q31 0 31 -31q0 -85 24 -159q25 -81 75 -138 q61 -69 135 -68q74 0 134 68q50 56 75 138q24 75 24 159q0 85 -23 160q-26 81 -76 137q-61 69 -134 69q-31 0 -31 31t31 30q140 0 224 -149q70 -125 71 -278q0 -152 -71 -277q-85 -150 -224 -150q-93 0 -168 75q-63 63 -97 162q-33 -99 -97 -162q-74 -75 -167 -75 q-140 0 -224 150q-71 125 -71 277z" />
<glyph unicode="&#x3ca;" horiz-adv-x="391" d="M-143 1121q0 63 64 64q64 0 64 -64t-64 -64t-64 64zM88 229v595q0 31 31 30q31 0 31 -30v-595q0 -69 49 -118t118 -49q31 0 31 -31t-31 -31q-94 0 -161.5 67.5t-67.5 161.5zM254 1121q0 63 63 64q64 0 64 -64t-64 -64q-63 0 -63 64z" />
<glyph unicode="&#x3cb;" horiz-adv-x="722" d="M88 295v529q0 31 31 30q31 0 31 -30v-529q0 -96 68.5 -164.5t164.5 -68.5t165 68.5t69 164.5v330q0 69 -49.5 118.5t-118.5 49.5q-31 0 -31 31t31 30q94 0 161.5 -67t67.5 -162v-330q0 -122 -86.5 -208.5t-208.5 -86.5t-208.5 86.5t-86.5 208.5zM122 1121q0 63 63 64 q64 0 64 -64t-64 -64q-63 0 -63 64zM518 1121q0 63 63 64q64 0 65 -64q0 -64 -65 -64q-63 0 -63 64z" />
<glyph unicode="&#x3cc;" d="M44 427q0 177 125 302t302 125t302 -125t125 -302t-125 -302t-302 -125t-302 125t-125 302zM106 427q0 -152 107 -258.5t258 -106.5q152 0 259 107t107 258q0 152 -107 259t-259 107t-258.5 -107t-106.5 -259zM440 1088v176q0 31 31 31t31 -31v-176q0 -31 -31 -31t-31 31 z" />
<glyph unicode="&#x3cd;" horiz-adv-x="722" d="M88 295v529q0 31 31 30q31 0 31 -30v-529q0 -96 68.5 -164.5t164.5 -68.5t165 68.5t69 164.5v330q0 69 -49.5 118.5t-118.5 49.5q-31 0 -31 31t31 30q94 0 161.5 -67t67.5 -162v-330q0 -122 -86.5 -208.5t-208.5 -86.5t-208.5 86.5t-86.5 208.5zM352 1102v176q0 31 31 31 t31 -31v-176q0 -31 -31 -31t-31 31z" />
<glyph unicode="&#x3ce;" horiz-adv-x="1206" d="M44 427q0 152 71 278q85 150 224 149q31 0 31 -30q0 -31 -31 -31q-74 0 -135 -69q-50 -56 -75 -137q-24 -75 -23 -160q0 -85 23 -159q25 -81 75 -138q61 -69 135 -68q74 0 135 68q50 56 75 138q24 75 24 159q0 31 30 31q31 0 31 -31q0 -85 24 -159q25 -81 75 -138 q61 -69 135 -68q74 0 134 68q50 56 75 138q24 75 24 159q0 85 -23 160q-26 81 -76 137q-61 69 -134 69q-31 0 -31 31t31 30q140 0 224 -149q70 -125 71 -278q0 -152 -71 -277q-85 -150 -224 -150q-93 0 -168 75q-63 63 -97 162q-33 -99 -97 -162q-74 -75 -167 -75 q-140 0 -224 150q-71 125 -71 277zM573 1088v176q0 31 30 31q31 0 31 -31v-176q0 -31 -31 -31q-30 0 -30 31z" />
<glyph unicode="&#x401;" horiz-adv-x="854" d="M88 31v1189q0 31 31 31h661q31 0 30 -31q0 -31 -30 -31h-630v-533h497q31 0 31 -31t-31 -30h-497v-533h630q31 0 30 -31q0 -31 -30 -31h-661q-31 0 -31 31zM188 1518q0 63 63 63q64 0 64 -63q0 -64 -64 -65q-63 1 -63 65zM584 1518q0 63 63 63q64 0 65 -63q0 -64 -65 -65 q-63 1 -63 65z" />
<glyph unicode="&#x402;" horiz-adv-x="1338" d="M44 1220q0 31 31 31h793q31 0 30 -31q0 -31 -30 -31h-366v-541q58 96 156 151t210 55q177 0 302 -125t125 -302t-125 -302t-302 -125q-31 0 -31 31t31 31q152 0 258.5 107t106.5 258q0 152 -107 259t-258 107q-152 0 -259 -107t-107 -259v-396q0 -31 -31 -31t-31 31v1158 h-365q-31 0 -31 31z" />
<glyph unicode="&#x403;" horiz-adv-x="854" d="M132 31v1189q0 31 31 31h661q31 0 30 -31q0 -31 -30 -31h-630v-1158q0 -31 -31 -31t-31 31zM330 1485q0 16 17 27q29 18 145 74q123 62 134 62q30 0 30 -33q0 -16 -16 -26q-29 -18 -145 -75q-123 -62 -135 -61q-30 -1 -30 32z" />
<glyph unicode="&#x404;" horiz-adv-x="1165" d="M44 625q0 259 183 442.5t442 183.5q270 0 443 -183q10 -10 9 -22q0 -32 -31 -31q-11 0 -22 9q-192 165 -399 165q-225 0 -387.5 -154.5t-174.5 -378.5h983q31 0 30 -31q0 -31 -30 -30h-983q12 -224 175 -378.5t387 -154.5q206 0 399 164q11 10 22 10q32 0 31 -32 q0 -11 -9 -21q-172 -183 -443 -183q-259 0 -442 183t-183 442z" />
<glyph unicode="&#x405;" horiz-adv-x="767" d="M44 197q0 30 33 30q14 0 25 -16q9 -14 29 -42q89 -107 231 -107q123 0 211.5 88t88.5 211t-88.5 211.5t-211 88.5t-209 86.5t-86.5 208.5t86.5 208.5t208.5 86.5q168 0 255 -146q5 -8 5 -17q0 -30 -33 -30q-11 0 -40 33q-36 43 -67 64q-52 34 -120 34q-97 0 -165 -68.5 t-68 -164.5t68 -165t165 -69q149 0 255 -105.5t106 -255.5t-106 -255.5t-255 -105.5q-97 0 -181 49t-133 132q-4 8 -4 16z" />
<glyph unicode="&#x406;" horiz-adv-x="325" d="M132 31v1189q0 31 31 31t31 -31v-1189q0 -31 -31 -31t-31 31z" />
<glyph unicode="&#x407;" horiz-adv-x="325" d="M-99 1518q0 63 64 63q63 0 63 -63q0 -64 -63 -65q-64 1 -64 65zM131 31v1189q0 31 31 31t31 -31v-1189q0 -31 -31 -31t-31 31zM297 1518q0 63 63 63q64 0 65 -63q0 -64 -65 -65q-63 1 -63 65z" />
<glyph unicode="&#x408;" horiz-adv-x="436" d="M-252 -232q0 30 33 30q11 0 40 -34q36 -44 66 -64q52 -34 122 -35q96 0 164.5 69t68.5 165v1321q0 31 31 31t31 -31v-1321q0 -122 -87 -208.5t-208 -86.5q-78 0 -149 40.5t-107 107.5q-5 8 -5 16z" />
<glyph unicode="&#x409;" horiz-adv-x="1604" d="M44 30q0 10 5 18l790 1185q12 18 29 18q32 0 31 -36v-493h300q149 0 255 -105.5t106 -255.5t-106 -255.5t-256 -105.5h-329q-31 0 -31 31v1087l-737 -1104q-10 -14 -24 -14q-33 0 -33 30zM899 62h299q124 0 212 87.5t88 211.5q0 123 -88 211.5t-211 88.5h-300v-599z" />
<glyph unicode="&#x40a;" horiz-adv-x="1647" d="M88 31v1189q0 31 31 31t31 -31v-498h731v498q0 31 31 31t31 -31v-498h299q150 0 255.5 -105.5t105.5 -255.5t-105.5 -255.5t-256.5 -105.5h-329q-31 0 -31 31v630h-731v-630q0 -31 -31 -31t-31 31zM943 62h299q124 0 212 87.5t88 211.5q0 123 -88.5 211.5t-211.5 88.5 h-299v-599z" />
<glyph unicode="&#x40b;" horiz-adv-x="1074" d="M44 1220q0 31 31 31h793q31 0 30 -31q0 -31 -30 -31h-366v-449q89 115 234 114q122 0 208.5 -86.5t86.5 -208.5v-528q0 -31 -31 -31t-31 31v528q0 96 -68.5 165t-164.5 69t-165 -69t-69 -165v-528q0 -31 -31 -31t-31 31v1158h-365q-31 0 -31 31z" />
<glyph unicode="&#x40c;" horiz-adv-x="850" d="M88 31v1189q0 31 31 31t31 -31v-595q0 12 9 22l595 595q10 10 21 10q32 0 32 -32q0 -12 -10 -22l-572 -573l572 -572q10 -10 10 -22q0 -32 -32 -32q-11 0 -21 10l-595 594q-10 10 -9 22v-594q0 -31 -31 -31t-31 31zM325 1485q0 16 18 27q28 18 143 74q123 62 135 62 q31 0 31 -33q0 -16 -18 -26q-28 -18 -144 -75q-123 -62 -135 -61q-30 -1 -30 32z" />
<glyph unicode="&#x40e;" horiz-adv-x="1031" d="M44 31q0 10 7 18l448 576l-448 576q-7 9 -7 19q0 32 32 32q14 0 24 -14l438 -562l438 562q10 13 24 14q32 0 31 -32q0 -10 -7 -19l-924 -1189q-10 -13 -24 -13q-32 0 -32 32zM307 1616q0 31 34 31q8 0 76 -66t120 -66t121 66t78 66q33 0 32 -31q0 -12 -27 -41 q-112 -121 -204 -121t-202 121q-28 29 -28 41z" />
<glyph unicode="&#x40f;" horiz-adv-x="986" d="M132 31v1189q0 31 31 31t31 -31v-1158h599v1158q0 31 31 31t30 -31v-1190q0 -30 -30 -30h-300v-366q0 -31 -31 -30q-31 0 -31 30v366h-299q-31 0 -31 31z" />
<glyph unicode="&#x410;" horiz-adv-x="1339" d="M44 30q0 11 275 564q273 549 321 635q12 22 29 22q18 0 31 -22q47 -85 321 -635q275 -553 275 -564q0 -30 -33 -30q-18 0 -26 17l-206 412q3 -33 -30 -33h-661q-33 0 -31 33l-206 -412q-9 -17 -26 -17q-33 0 -33 30zM321 452q8 6 15 6h666q9 0 17 -6l-349 699z" />
<glyph unicode="&#x411;" horiz-adv-x="898" d="M132 31v1189q0 31 31 31h661q31 0 30 -31q0 -31 -30 -31h-630v-467h299q150 0 255.5 -105.5t105.5 -255.5t-105.5 -255.5t-256.5 -105.5h-329q-31 0 -31 31zM194 62h299q124 0 212 87.5t88 211.5q0 123 -88 211.5t-212 88.5h-299v-599z" />
<glyph unicode="&#x412;" horiz-adv-x="898" d="M132 31v1189q0 31 31 31h330q122 0 208.5 -87t86.5 -208q0 -178 -156 -261q100 -42 161 -133.5t61 -200.5q0 -150 -105.5 -255.5t-256.5 -105.5h-329q-31 0 -31 31zM194 62h299q124 0 212 87.5t88 211.5q0 123 -88 211.5t-212 88.5h-299v-599zM194 722h299q96 0 165 69 t69 165t-69 164.5t-165 68.5h-299v-467z" />
<glyph unicode="&#x413;" horiz-adv-x="854" d="M132 31v1189q0 31 31 31h661q31 0 30 -31q0 -31 -30 -31h-630v-1158q0 -31 -31 -31t-31 31z" />
<glyph unicode="&#x414;" horiz-adv-x="1339" d="M44 30q0 8 6 19l590 1180q11 22 29 22q19 0 31 -22l590 -1180q6 -11 6 -19q0 -30 -33 -30h-1187q-32 0 -32 30zM125 62h1090l-546 1089z" />
<glyph unicode="&#x415;" horiz-adv-x="898" d="M132 31v1189q0 31 31 31h661q31 0 30 -31q0 -31 -30 -31h-630v-533h497q31 0 31 -31t-31 -30h-497v-533h630q31 0 30 -31q0 -31 -30 -31h-661q-31 0 -31 31z" />
<glyph unicode="&#x416;" horiz-adv-x="1464" d="M44 31q0 12 10 21l572 573l-572 573q-10 10 -10 21q0 32 32 32q11 0 21 -10l594 -594q10 -9 10 -22v595q0 31 31 31t31 -31v-594q0 11 10 21l594 595q10 10 22 10q32 0 32 -32q0 -12 -10 -21l-573 -574l573 -572q10 -10 10 -21q0 -32 -32 -32q-12 0 -22 10l-594 594 q-10 9 -10 21v-594q0 -31 -31 -31t-31 31v594q0 -11 -10 -22l-594 -594q-10 -10 -21 -10q-32 0 -32 32z" />
<glyph unicode="&#x417;" horiz-adv-x="811" d="M44 360q0 32 31 32t31 -32q0 -123 88 -211t211 -88q124 0 212.5 88t88.5 211q0 124 -88.5 212.5t-211.5 88.5q-31 0 -31 30q0 31 30 31q97 0 166 68.5t69 165.5t-69 165t-166 68q-96 0 -164.5 -68.5t-68.5 -164.5q0 -31 -31 -31t-31 31q0 122 87 208.5t209 86.5 t208.5 -87t86.5 -208q0 -178 -157 -261q100 -42 161.5 -133.5t61.5 -201.5q0 -149 -106 -255t-256 -106q-149 0 -255 106t-106 255z" />
<glyph unicode="&#x418;" horiz-adv-x="1251" d="M132 31l1 1189q0 31 31 31t31 -31v-1099l866 1114q13 16 27 16q32 0 32 -31v-1189q0 -31 -31 -31t-31 31v1099l-867 -1114q-13 -16 -27 -16q-32 0 -32 31z" />
<glyph unicode="&#x419;" horiz-adv-x="1251" d="M132 31l1 1189q0 31 31 31t31 -31v-1099l866 1114q13 16 27 16q32 0 32 -31v-1189q0 -31 -31 -31t-31 31v1099l-867 -1114q-13 -16 -27 -16q-32 0 -32 31zM396 1616q0 32 32 32q9 0 77 -66.5t120 -66.5t121 66t78 66q33 0 32 -31q0 -12 -27 -41q-113 -122 -203 -122 q-54 0 -124 50q-64 44 -99 94q-7 10 -7 19z" />
<glyph unicode="&#x41a;" horiz-adv-x="894" d="M132 31v1189q0 31 31 31t31 -31v-595q0 12 9 22l595 595q10 10 21 10q32 0 32 -32q0 -12 -10 -22l-572 -573l572 -572q10 -10 10 -22q0 -32 -32 -32q-11 0 -21 10l-595 594q-10 10 -9 22v-594q0 -31 -31 -31t-31 31z" />
<glyph unicode="&#x41b;" horiz-adv-x="1339" d="M44 30q0 11 275 564q274 550 321 635q12 22 29 22q18 0 31 -22q47 -85 321 -635q275 -553 275 -564q0 -30 -33 -30q-18 0 -26 17l-567 1134l-567 -1134q-9 -17 -26 -17q-33 0 -33 30z" />
<glyph unicode="&#x41c;" horiz-adv-x="1471" d="M44 30q0 4 1 8l263 1184q6 29 32 29q19 0 30 -24l366 -854l366 854q10 24 30 24q25 0 32 -29l262 -1184q1 -4 1 -8q0 -30 -32 -30q-24 0 -29 24l-243 1096l-357 -832q-11 -24 -30 -24q-20 0 -31 24l-356 832l-244 -1096q-5 -24 -29 -24q-32 0 -32 30z" />
<glyph unicode="&#x41d;" horiz-adv-x="1118" d="M132 31v1189q0 31 31 31t31 -31v-564h731v564q0 31 31 31t31 -31v-1189q0 -31 -31 -31t-31 31v564h-731v-564q0 -31 -31 -31t-31 31z" />
<glyph unicode="&#x41e;" horiz-adv-x="1338" d="M44 625q0 259 183 442.5t442 183.5t442.5 -183.5t183.5 -442.5t-183.5 -442t-442.5 -183t-442 183t-183 442zM106 625q0 -233 165 -398t398 -165t398.5 165t165.5 398t-165 398.5t-399 165.5q-233 0 -398 -165.5t-165 -398.5z" />
<glyph unicode="&#x41f;" horiz-adv-x="986" d="M132 31v1189q0 31 31 31h661q30 0 30 -31v-1189q0 -31 -30 -31q-31 0 -31 31v1158h-599v-1158q0 -31 -31 -31t-31 31z" />
<glyph unicode="&#x420;" horiz-adv-x="898" d="M132 31v1189q0 31 31 31h330q150 0 255.5 -106t105.5 -255q0 -150 -105.5 -255.5t-255.5 -105.5h-268q-31 0 -31 30q0 31 31 31h268q124 0 212 87.5t88 212.5q0 124 -88 211.5t-212 87.5h-299v-1158q0 -31 -31 -31t-31 31z" />
<glyph unicode="&#x421;" horiz-adv-x="1165" d="M44 625q0 259 183 442.5t442 183.5q267 0 443 -183q10 -10 9 -22q0 -32 -31 -31q-11 0 -22 9q-192 165 -399 165q-233 0 -398 -165t-165 -399q0 -233 165 -398t398 -165q206 0 399 164q11 10 22 10q32 0 31 -32q0 -11 -9 -21q-175 -183 -443 -183q-259 0 -442 183 t-183 442z" />
<glyph unicode="&#x422;" horiz-adv-x="898" d="M44 1220q0 31 31 31h793q31 0 30 -31q0 -31 -30 -31h-366v-1158q0 -31 -31 -31t-31 31v1158h-365q-31 0 -31 31z" />
<glyph unicode="&#x423;" horiz-adv-x="1031" d="M44 31q0 10 7 18l448 576l-448 576q-7 9 -7 19q0 32 32 32q14 0 24 -14l438 -562l438 562q10 13 24 14q32 0 31 -32q0 -10 -7 -19l-924 -1189q-10 -13 -24 -13q-32 0 -32 32z" />
<glyph unicode="&#x424;" horiz-adv-x="1338" d="M44 625q0 196 208 318q173 101 387 109v168q0 31 30 31q31 0 31 -31v-168q214 -7 387 -109q208 -122 208 -318t-208 -318q-173 -101 -387 -108v-168q0 -31 -31 -31t-30 31v168q-214 7 -387 108q-208 122 -208 318zM106 625q0 -114 100 -207q84 -78 206 -118 q107 -36 227 -39v729q-112 -4 -214 -35q-127 -40 -214 -118q-105 -95 -105 -212zM700 261q120 4 227 39q122 41 206 118q100 93 100 207q0 117 -105 212q-87 78 -215 118q-101 32 -213 35v-729z" />
<glyph unicode="&#x425;" horiz-adv-x="1075" d="M44 31q0 10 7 18l448 576l-448 576q-7 9 -7 19q0 32 32 32q14 0 24 -14l438 -562l438 562q10 13 24 14q32 0 31 -32q0 -10 -7 -19l-447 -576l447 -576q7 -9 7 -18q0 -32 -31 -32q-14 0 -24 13l-438 563l-438 -563q-10 -13 -24 -13q-32 0 -32 32z" />
<glyph unicode="&#x426;" horiz-adv-x="986" d="M132 31v1189q0 31 31 31t31 -31v-1158h599v1158q0 31 31 31t30 -31v-1586q0 -31 -30 -30q-31 0 -31 30v366h-630q-31 0 -31 31z" />
<glyph unicode="&#x427;" horiz-adv-x="1030" d="M44 922v298q0 31 31 31t31 -31v-298q0 -109 78 -187.5t188 -78.5h465v564q0 31 31 31t30 -31v-1189q0 -31 -30 -31q-31 0 -31 31v564h-465q-135 0 -231.5 96t-96.5 231z" />
<glyph unicode="&#x428;" horiz-adv-x="1647" d="M132 31v1189q0 31 31 31t31 -31v-1158h599v1158q0 31 31 31t30 -31v-1158h599v1158q0 31 31 31t31 -31v-1189q0 -31 -31 -31h-1321q-31 0 -31 31z" />
<glyph unicode="&#x429;" horiz-adv-x="1647" d="M132 31v1189q0 31 31 31t31 -31v-1158h599v1158q0 31 31 31t30 -31v-1158h599v1158q0 31 31 31t31 -31v-1586q0 -31 -31 -30q-31 0 -31 30v366h-1290q-31 0 -31 31z" />
<glyph unicode="&#x42a;" horiz-adv-x="1426" d="M0 1220q0 31 31 31h660q31 0 31 -31v-498h300q150 0 255.5 -106t105.5 -256t-105.5 -255.5t-256.5 -105.5l-330 1q-31 0 -30 31v1158h-630q-31 0 -31 31zM722 62l300 -1q124 0 211.5 88t87.5 211q0 124 -88 212.5t-211 88.5h-300v-599z" />
<glyph unicode="&#x42b;" horiz-adv-x="1118" d="M132 31v1189q0 31 31 31t31 -31v-498h299q150 0 255.5 -106t105.5 -256t-105.5 -255.5t-256.5 -105.5l-329 1q-31 0 -31 31zM194 62l299 -1q124 0 212 88t88 211q0 124 -88 212.5t-212 88.5h-299v-599zM925 31v1189q0 31 31 31t31 -31v-1189q0 -31 -31 -31t-31 31z" />
<glyph unicode="&#x42c;" horiz-adv-x="898" d="M132 31v1189q0 31 31 31t31 -31v-498h299q150 0 255.5 -106t105.5 -256t-105.5 -255.5t-256.5 -105.5l-329 1q-31 0 -31 31zM194 62l299 -1q124 0 212 88t88 211q0 124 -88 212.5t-212 88.5h-299v-599z" />
<glyph unicode="&#x42d;" horiz-adv-x="1165" d="M44 204q0 32 32 32q11 0 21 -10q193 -165 399 -164q224 0 387 154.5t176 378.5h-983q-31 0 -31 30q0 31 31 31h983q-12 224 -175.5 378.5t-387.5 154.5q-206 0 -399 -165q-11 -10 -21 -9q-32 0 -32 31q0 11 10 22q172 183 442 183q258 0 441.5 -183.5t183.5 -442.5 t-183.5 -442t-441.5 -183q-270 0 -442 183q-10 10 -10 21z" />
<glyph unicode="&#x42e;" horiz-adv-x="1823" d="M132 31v1189q0 31 31 31t31 -31v-564h335q12 249 193.5 422t431.5 173q259 0 442 -183.5t183 -442.5t-183 -442t-442 -183q-250 0 -431 172.5t-194 422.5h-335v-564q0 -31 -31 -31t-31 31zM590 625q0 -233 165 -398t399 -165q233 0 398.5 165t165.5 398t-165.5 398.5 t-398.5 165.5t-398.5 -165.5t-165.5 -398.5z" />
<glyph unicode="&#x42f;" horiz-adv-x="899" d="M44 31q0 12 10 22l475 476h-123q-150 0 -255.5 105.5t-105.5 255.5t105.5 255.5t255.5 105.5h330q31 0 31 -31v-1189q0 -31 -31 -31t-30 31v1158h-300q-124 0 -211.5 -88t-87.5 -211q0 -124 87.5 -212t211.5 -88l197 1q32 0 32 -32q0 -12 -13 -25l-525 -525 q-10 -10 -21 -10q-32 0 -32 32z" />
<glyph unicode="&#x430;" horiz-adv-x="722" d="M44 295q0 122 87 208.5t208 86.5q144 0 234 -114v83q0 96 -69 165t-165 69q-63 0 -125.5 -39.5t-61.5 -39.5q-32 0 -31 32q0 11 9 22q79 86 209 86q122 0 208.5 -86.5t86.5 -208.5v-528q0 -31 -31 -31t-30 31v84q-89 -115 -234 -115q-122 0 -208.5 86.5t-86.5 208.5z M106 295q0 -96 68.5 -164.5t164.5 -68.5t165 68.5t69 164.5t-69 165t-165 69t-164.5 -69t-68.5 -165z" />
<glyph unicode="&#x431;" d="M44 427q0 341 241.5 582.5t582.5 241.5q31 0 30 -31q0 -31 -30 -31q-228 0 -419.5 -126t-281.5 -336q125 128 304 127q177 0 302 -125t125 -302t-125 -302t-302 -125t-302 125t-125 302zM106 427q0 -152 107 -258.5t258 -106.5q152 0 259 107t107 258q0 152 -107 259 t-259 107t-258.5 -107t-106.5 -259z" />
<glyph unicode="&#x432;" horiz-adv-x="732" d="M132 31v793q0 31 31 30h247q91 0 159 -57q70 -61 71 -150q0 -112 -104 -172q152 -70 153 -224q0 -109 -86 -182q-82 -69 -193 -69h-247q-31 0 -31 31zM194 62h216q85 0 149 51q68 55 68 138q0 82 -68 137q-64 52 -149 52h-216v-378zM194 502h216q65 0 115 40 q53 42 53 105t-53 106q-49 40 -115 40h-216v-291z" />
<glyph unicode="&#x433;" horiz-adv-x="733" d="M132 31v793q0 31 31 30h495q32 0 32 -30q0 -31 -32 -31h-464v-762q0 -31 -31 -31t-31 31z" />
<glyph unicode="&#x434;" horiz-adv-x="1042" d="M44 30q0 8 7 21l441 782q11 21 29 21t30 -21l440 -782q7 -13 7 -21q0 -30 -32 -30h-889q-33 0 -33 30zM128 62h786l-393 699z" />
<glyph unicode="&#x435;" horiz-adv-x="889" d="M44 427q0 177 125 302t302 125q70 0 143 -25q68 -25 141 -80q90 -69 90 -124q0 -18 -15 -26l-659 -381q109 -157 300 -156q166 0 272 121l44 62q11 15 27 15q32 0 32 -30q0 -8 -5 -17q-56 -98 -156 -155.5t-214 -57.5q-177 0 -302 125t-125 302zM106 427q0 -82 34 -156 l632 365q-109 157 -301 157q-152 0 -258.5 -107t-106.5 -259z" />
<glyph unicode="&#x436;" horiz-adv-x="1066" d="M44 31q0 12 10 22l374 374l-374 375q-10 10 -10 22q0 32 32 31q11 0 21 -9l396 -397q9 -9 9 -22t-9 -22l-396 -396q-10 -10 -21 -10q-32 0 -32 32zM503 31v793q0 31 31 30q31 0 31 -30v-793q0 -31 -31 -31t-31 31zM565 427q0 13 8 22l397 397q10 10 21 9q32 0 32 -31 q0 -12 -10 -22l-374 -375l374 -374q10 -10 10 -22q0 -32 -32 -32q-11 0 -21 10l-397 396q-8 9 -8 22z" />
<glyph unicode="&#x437;" horiz-adv-x="645" d="M44 250q0 31 31 31t31 -31q0 -83 68 -137q63 -52 149 -52q85 0 148 52q69 55 69 137q0 83 -68 138q-64 52 -149 52q-31 0 -31 31t31 31q65 0 115 39q53 42 53 106q0 63 -53 106q-49 40 -116 40q-64 0 -114 -40q-53 -42 -53 -106q0 -31 -31 -30q-31 0 -31 30q0 89 72 150 q68 57 158 57q91 0 160 -59t69 -148q0 -112 -103 -172q152 -70 153 -225q0 -108 -87 -181q-82 -70 -192 -70q-111 0 -193 70q-86 73 -86 181z" />
<glyph unicode="&#x438;" horiz-adv-x="1020" d="M132 31l1 793q0 31 31 30q31 0 31 -30v-711l636 726q13 16 26 16q32 0 32 -31l-1 -793q0 -31 -31 -31t-31 31v711l-636 -727q-13 -16 -26 -16q-32 0 -32 32z" />
<glyph unicode="&#x439;" horiz-adv-x="1020" d="M132 31l1 793q0 31 31 30q31 0 31 -30v-711l636 726q13 16 26 16q32 0 32 -31l-1 -793q0 -31 -31 -31t-31 31v711l-636 -727q-13 -16 -26 -16q-32 0 -32 32zM280 1220q0 31 33 31q9 0 77 -66t120 -66t120.5 66t77.5 66q33 0 33 -31q0 -12 -28 -41q-112 -121 -203 -121 q-92 0 -203 121q-27 29 -27 41z" />
<glyph unicode="&#x43a;" horiz-adv-x="696" d="M132 31v793q0 31 31 30q31 0 31 -30v-793q0 -31 -31 -31t-31 31zM194 427q0 13 9 22l396 397q10 10 22 9q32 0 32 -31q0 -12 -10 -22l-375 -375l375 -374q10 -10 10 -22q0 -32 -32 -32q-12 0 -22 10l-396 396q-9 9 -9 22z" />
<glyph unicode="&#x43b;" horiz-adv-x="1042" d="M44 30q0 8 4 16l444 787q12 21 29 21q18 0 30 -21l443 -787q4 -8 5 -16q0 -30 -33 -30q-17 0 -25 16l-420 745l-419 -745q-9 -16 -25 -16q-33 0 -33 30z" />
<glyph unicode="&#x43c;" horiz-adv-x="1140" d="M44 30q0 4 198 795q7 29 31 29q19 0 30 -22l268 -554l267 554q11 22 29 22q25 0 32 -29q197 -792 198 -795q0 -30 -32 -30q-23 0 -29 24l-177 710l-258 -535q-11 -23 -30 -23t-31 23l-257 535l-178 -710q-5 -24 -29 -24q-32 0 -32 30z" />
<glyph unicode="&#x43d;" horiz-adv-x="920" d="M132 31v793q0 31 31 30q31 0 31 -30v-366h533v366q0 31 31 30q31 0 30 -30v-793q0 -31 -30 -31q-31 0 -31 31v365h-533v-365q0 -31 -31 -31t-31 31z" />
<glyph unicode="&#x43e;" d="M44 427q0 177 125 302t302 125t302 -125t125 -302t-125 -302t-302 -125t-302 125t-125 302zM106 427q0 -152 107 -258.5t258 -106.5q152 0 259 107t107 258q0 152 -107 259t-259 107t-258.5 -107t-106.5 -259z" />
<glyph unicode="&#x43f;" horiz-adv-x="821" d="M132 31v793q0 31 31 30h496q30 0 30 -30l1 -793q0 -31 -31 -31t-31 31l-1 762h-433v-762q0 -31 -31 -31t-31 31z" />
<glyph unicode="&#x440;" horiz-adv-x="1030" d="M132 -366v1190q0 31 31 30q31 0 31 -30v-176q58 96 155.5 151t209.5 55q177 0 302.5 -125t125.5 -302t-125.5 -302t-302.5 -125q-112 0 -209.5 55t-155.5 151v-572q0 -31 -31 -30q-31 -1 -31 30zM194 427q0 -152 107 -258.5t258 -106.5q152 0 259 107t107 258 q0 152 -107 259t-259 107t-258.5 -107t-106.5 -259z" />
<glyph unicode="&#x441;" horiz-adv-x="827" d="M44 427q0 177 125 302t302 125q186 0 302 -125q10 -11 10 -21q0 -32 -32 -31q5 0 -87 58t-193 58q-152 0 -258.5 -107t-106.5 -259t107 -258.5t258 -106.5q100 0 193 58t86 58q32 0 32 -32q0 -11 -9 -22q-115 -124 -302 -124q-177 0 -302 125t-125 302z" />
<glyph unicode="&#x442;" horiz-adv-x="744" d="M44 824q0 31 31 30h594q31 0 31 -30q0 -31 -31 -31h-266v-762q0 -31 -30 -31q-31 0 -31 31l-1 762h-266q-31 0 -31 31z" />
<glyph unicode="&#x443;" horiz-adv-x="766" d="M44 295v529q0 31 31 30q31 0 31 -30v-529q0 -96 68.5 -164.5t164.5 -68.5t165 68.5t69 164.5v529q0 31 30 30q31 0 31 -30v-925q0 -122 -86.5 -208.5t-208.5 -86.5q-173 0 -255 146q-4 9 -5 17q0 30 33 30q11 0 40 -34q37 -43 66 -63q52 -34 121 -35q96 0 165 69t69 165 v216q-89 -115 -234 -115q-122 0 -208.5 86.5t-86.5 208.5z" />
<glyph unicode="&#x444;" horiz-adv-x="1206" d="M44 427q0 152 71 278q85 150 224 149q146 0 234 -164v530q0 31 30 31q31 0 31 -31v-530q87 165 234 164q140 0 224 -149q70 -125 71 -278q0 -152 -71 -277q-85 -150 -224 -150q-146 0 -234 166v-532q0 -31 -31 -30q-31 0 -30 30v531q-87 -165 -234 -165q-140 0 -224 150 q-71 125 -71 277zM106 427q0 -83 22 -157q26 -82 75 -139q61 -70 136 -69q77 0 139 73q50 60 75 144q19 70 20 148q0 78 -20 148q-25 85 -75 145q-63 73 -139 73q-75 0 -136 -70q-50 -57 -75 -139q-22 -74 -22 -157zM634 427q0 -83 22 -157q26 -82 76 -139q61 -70 136 -69 q77 0 139 73q50 60 75 144q19 70 19 148t-19 148q-25 85 -75 145q-63 73 -139 73q-75 0 -136 -70q-50 -57 -76 -139q-22 -74 -22 -157z" />
<glyph unicode="&#x445;" horiz-adv-x="811" d="M44 824q0 32 32 31q14 0 24 -12l306 -367l306 367q10 12 23 12q32 0 31 -31q0 -11 -7 -20l-313 -377l314 -377q7 -9 7 -19q0 -32 -31 -32q-13 0 -23 12l-307 368l-306 -368q-10 -12 -23 -12q-32 0 -32 32q0 11 8 19l313 377l-314 377q-8 9 -8 20z" />
<glyph unicode="&#x446;" horiz-adv-x="820" d="M132 31v793q0 31 31 30q31 0 31 -30v-762h433v762q0 31 31 30q31 0 31 -30v-1057q0 -31 -31 -31t-31 31v233h-464q-31 0 -31 31z" />
<glyph unicode="&#x447;" horiz-adv-x="832" d="M44 625v199q0 31 31 30q31 0 31 -30v-199q0 -73 60 -121q56 -46 132 -46h341v366q0 31 30 30q31 0 31 -30v-793q0 -31 -31 -31t-30 31v365h-341q-100 0 -176 64q-78 66 -78 165z" />
<glyph unicode="&#x448;" horiz-adv-x="1316" d="M132 28v797q0 29 31 29t31 -30v-762h433v762q0 31 31 30q31 0 31 -30v-762h434v762q0 31 31 30q31 0 31 -30v-793q0 -31 -28 -31h-996q-29 0 -29 28z" />
<glyph unicode="&#x449;" horiz-adv-x="1316" d="M132 31v793q0 31 31 30q31 0 31 -30v-762h433v762q0 31 31 30q31 0 31 -30v-762h434v762q0 31 31 30q31 0 31 -30v-1057q0 -31 -31 -31t-31 31v233h-960q-31 0 -31 31z" />
<glyph unicode="&#x44a;" horiz-adv-x="1096" d="M0 824q0 31 31 30h496q31 0 31 -30v-322h216q110 0 192 -69q86 -73 87 -182q0 -109 -87 -182q-82 -70 -193 -70l-247 1q-30 0 -30 31v762h-465q-31 0 -31 31zM558 62l215 -1q85 0 149 52q69 55 69 138q0 82 -69 137q-63 52 -148 52h-216v-378z" />
<glyph unicode="&#x44b;" horiz-adv-x="920" d="M132 31v793q0 31 31 30q31 0 31 -30v-322h216q111 0 193 -69q85 -73 86 -182q0 -109 -86 -182q-82 -70 -193 -70l-247 1q-31 0 -31 31zM194 62l216 -1q85 0 149 52q68 55 68 138q0 82 -68 137q-64 52 -149 52h-216v-378zM727 31v793q0 31 31 30q31 0 30 -30v-793 q0 -31 -30 -31q-31 0 -31 31z" />
<glyph unicode="&#x44c;" horiz-adv-x="732" d="M132 31v793q0 31 31 30q31 0 31 -30v-322h216q111 0 193 -69q85 -73 86 -182q0 -109 -86 -182q-82 -70 -193 -70l-247 1q-31 0 -31 31zM194 62l216 -1q85 0 149 52q68 55 68 138q0 82 -68 137q-64 52 -149 52h-216v-378z" />
<glyph unicode="&#x44d;" horiz-adv-x="889" d="M44 230q0 30 33 30q14 0 25 -15q13 -21 44 -62q107 -122 272 -121q191 0 301 156l-659 381q-14 8 -14 26q0 55 89 123q73 56 141 80q73 26 142 26q177 0 302.5 -125t125.5 -302t-125.5 -302t-302.5 -125q-114 0 -213.5 57.5t-156.5 155.5q-4 9 -4 17zM119 636l631 -364 q34 73 34 155q0 152 -107 259t-259 107q-190 0 -299 -157z" />
<glyph unicode="&#x44e;" horiz-adv-x="1338" d="M132 31v793q0 31 31 30q31 0 31 -30v-366h237q14 175 134 285.5t297 110.5q186 0 309.5 -120.5t123.5 -306.5t-123.5 -306.5t-309.5 -120.5q-177 0 -297 110t-134 286h-237v-365q0 -31 -31 -31t-31 31zM491 427q0 -159 105.5 -262t265.5 -103t265.5 103t105.5 262 t-105 262.5t-266 103.5q-160 0 -265.5 -103.5t-105.5 -262.5z" />
<glyph unicode="&#x44f;" horiz-adv-x="733" d="M44 32q0 12 11 22l336 298h-68q-110 0 -192 70q-86 73 -86 181t86 182q82 70 192 69h249q30 0 30 -30v-793q0 -31 -31 -31t-31 31v762h-217q-85 0 -149 -52q-68 -55 -67 -138q0 -83 67 -138q63 -51 149 -51l149 1q31 0 31 -32q0 -13 -15 -26l-392 -349q-10 -9 -20 -9 q-32 0 -32 33z" />
<glyph unicode="&#x451;" horiz-adv-x="889" d="M44 427q0 177 125 302t302 125q70 0 143 -25q68 -25 141 -80q90 -69 90 -124q0 -18 -15 -26l-659 -381q109 -157 300 -156q166 0 272 121l44 62q11 15 27 15q32 0 32 -30q0 -8 -5 -17q-56 -98 -156 -155.5t-214 -57.5q-177 0 -302 125t-125 302zM106 427q0 -82 34 -156 l632 365q-109 157 -301 157q-152 0 -258.5 -107t-106.5 -259zM210 1121q0 63 63 64q64 0 64 -64t-64 -64q-63 0 -63 64zM606 1121q0 63 63 64q64 0 65 -64q0 -64 -65 -64q-63 0 -63 64z" />
<glyph unicode="&#x452;" horiz-adv-x="876" d="M0 1022q0 31 31 31h167v167q0 31 31 31t31 -31v-167h167q31 0 31 -31t-31 -31h-167v-251q89 115 233 114q122 0 208.5 -86.5t86.5 -208.5v-726q0 -94 -67 -161.5t-162 -67.5q-103 0 -162 67q-10 11 -9 21q0 32 31 31q3 0 49 -29t91 -29q69 0 118.5 49.5t49.5 118.5v726 q0 96 -69 165t-165 69t-164.5 -69t-68.5 -165v-528q0 -31 -31 -31t-31 31v960h-167q-31 0 -31 31z" />
<glyph unicode="&#x453;" horiz-adv-x="733" d="M132 31v793q0 31 31 30h495q32 0 32 -30q0 -31 -32 -31h-464v-762q0 -31 -31 -31t-31 31zM248 1089q0 16 17 26q28 18 144 75q123 62 134 62q31 0 31 -33q0 -16 -17 -26q-28 -18 -145 -75q-123 -62 -135 -62q-29 0 -29 33z" />
<glyph unicode="&#x454;" horiz-adv-x="827" d="M44 427q0 177 125 302t302 125q189 0 302 -125q10 -11 10 -21q0 -32 -32 -31q5 0 -87 58t-193 58q-142 0 -247 -96.5t-117 -238.5h643q31 0 31 -31t-31 -31h-643q12 -142 117 -238t247 -96q100 0 193 58t86 58q32 0 32 -32q0 -11 -9 -22q-113 -124 -302 -124 q-177 0 -302 125t-125 302z" />
<glyph unicode="&#x455;" horiz-adv-x="597" d="M44 181q0 30 33 30q17 0 27 -21l20 -38q57 -90 168 -90q83 0 141.5 59t58.5 141q0 86 -62 143t-148 57q-79 0 -135 58.5t-56 137.5q0 81 57.5 138.5t138.5 57.5q113 0 169 -96q4 -9 5 -17q0 -30 -32 -30q-7 0 -47 41t-95 41t-95 -40t-40 -95q0 -60 42.5 -97t104.5 -37 q106 0 180 -78t74 -184q0 -107 -76.5 -184.5t-184.5 -77.5q-82 0 -149 46t-96 123q-3 6 -3 12z" />
<glyph unicode="&#x456;" horiz-adv-x="325" d="M98 1186q0 26 19.5 45.5t45.5 19.5t45.5 -19.5t19.5 -45.5q0 -63 -65 -63t-65 63zM132 31v793q0 31 31 30q31 0 31 -30v-793q0 -31 -31 -31t-31 31z" />
<glyph unicode="&#x457;" horiz-adv-x="325" d="M-99 1121q0 63 64 64q64 0 64 -64t-64 -64t-64 64zM132 31v793q0 31 31 30q31 0 31 -30l-1 -793q0 -31 -30 -31q-31 0 -31 31zM297 1121q0 63 63 64q64 0 65 -64q0 -64 -65 -64q-63 0 -63 64z" />
<glyph unicode="&#x458;" horiz-adv-x="325" d="M-207 -308q0 32 32 31q2 0 48.5 -29t91.5 -29q69 0 118 49.5t49 118.5v991q0 31 31 30q31 0 31 -30v-991q0 -94 -67.5 -161.5t-161.5 -67.5q-104 0 -162 67q-10 11 -10 21zM98 1186q0 26 19.5 45.5t45.5 19.5t45.5 -19.5t19.5 -45.5q0 -63 -65 -63t-65 63z" />
<glyph unicode="&#x459;" horiz-adv-x="1240" d="M44 31q0 10 7 18l591 789q12 17 27 16q32 0 32 -36v-316h217q110 0 192 -69q86 -73 86 -182t-86 -181q-82 -70 -193 -70h-247q-31 0 -30 31v700l-540 -719q-10 -13 -24 -13q-32 0 -32 32zM701 62h217q85 0 149 51q68 55 68 138q0 82 -68 137q-64 52 -149 52h-217v-378z " />
<glyph unicode="&#x45a;" horiz-adv-x="1327" d="M132 31v793q0 31 31 30q31 0 31 -30v-322h533v322q0 31 31 30q31 0 30 -30v-322h217q111 0 193 -69q85 -73 85 -182t-85 -182q-82 -69 -193 -69h-247q-31 0 -31 31v409h-533v-409q0 -31 -31 -31t-31 31zM788 62h217q85 0 149 51q68 55 68 138q0 82 -68 137 q-64 52 -149 52h-217v-378z" />
<glyph unicode="&#x45b;" horiz-adv-x="876" d="M0 1022q0 31 31 31h167v167q0 31 31 31t31 -31v-167h167q31 0 31 -31t-31 -31h-167v-251q89 115 233 114q122 0 208.5 -86.5t86.5 -208.5v-528q0 -31 -30 -31q-31 0 -31 31v528q0 96 -69 165t-165 69t-164.5 -69t-68.5 -165v-528q0 -31 -31 -31t-31 31v960h-167 q-31 0 -31 31z" />
<glyph unicode="&#x45c;" horiz-adv-x="696" d="M132 31v793q0 31 31 30q31 0 31 -30v-793q0 -31 -31 -31t-31 31zM194 427q0 13 9 22l396 397q10 10 22 9q32 0 32 -31q0 -12 -10 -22l-375 -375l375 -374q10 -10 10 -22q0 -32 -32 -32q-12 0 -22 10l-396 396q-9 9 -9 22zM267 1089q0 16 17 26q29 18 144 75 q123 62 135 62q31 0 31 -33q0 -16 -18 -26q-28 -18 -144 -75q-123 -62 -135 -62q-30 0 -30 33z" />
<glyph unicode="&#x45e;" horiz-adv-x="810" d="M88 295v529q0 31 31 30q31 0 31 -30v-529q0 -96 68.5 -164.5t164.5 -68.5t165 68.5t69 164.5v529q0 31 30 30q31 0 31 -30v-925q0 -122 -86.5 -208.5t-208.5 -86.5q-173 0 -255 146q-4 9 -5 17q0 30 33 30q11 0 40 -34q37 -43 66 -63q52 -34 121 -35q96 0 165 69t69 165 v216q-89 -115 -234 -115q-122 0 -208.5 86.5t-86.5 208.5zM153 1220q0 31 33 31q9 0 76.5 -66t120.5 -66q51 0 120 66t77 66q33 0 33 -31q0 -12 -27 -41q-112 -121 -204 -121t-202 121q-27 29 -27 41z" />
<glyph unicode="&#x45f;" horiz-adv-x="820" d="M132 31v793q0 31 31 30q31 0 31 -30v-762h433v762q0 31 31 30q31 0 31 -30v-793q0 -31 -31 -31h-217v-233q0 -31 -31 -31t-30 31v233h-217q-31 0 -31 31z" />
<glyph unicode="&#x490;" horiz-adv-x="854" d="M132 31v1189q0 31 31 31h630v233q0 31 31 31t30 -31v-264q0 -31 -30 -31h-630v-1158q0 -31 -31 -31t-31 31z" />
<glyph unicode="&#x491;" horiz-adv-x="732" d="M132 31v793q0 31 31 30h464v234q0 31 31 31t31 -31v-264q0 -31 -31 -31h-464v-762q0 -31 -31 -31t-31 31z" />
<glyph unicode="&#x1e80;" horiz-adv-x="1890" d="M44 1221q0 30 33 30q18 0 26 -17l567 -1134l263 525q-294 587 -294 596q0 30 32 30q18 0 27 -17l269 -540l270 540q9 17 26 17q33 0 33 -30q0 -9 -294 -596l263 -525l566 1134q9 17 27 17q33 0 32 -30q0 -11 -275 -564q-274 -550 -320 -635q-12 -22 -31 -22q-18 0 -30 22 l-267 535l-267 -535q-11 -22 -30 -22q-18 0 -30 22q-47 85 -321 635q-275 553 -275 564zM804 1615q0 33 30 33q11 0 135 -62q115 -57 144 -74q17 -11 17 -27q0 -33 -30 -32q-11 0 -135 61q-115 57 -144 75q-17 10 -17 26z" />
<glyph unicode="&#x1e81;" horiz-adv-x="1471" d="M44 824q0 30 33 30q18 0 26 -16l369 -738l230 458q-129 258 -129 266q0 30 32 30q18 0 27 -16l369 -738l368 738q9 17 26 16q33 0 33 -30q0 -7 -397 -802q-11 -22 -31 -22q-18 0 -30 22l-234 468l-234 -468q-11 -22 -31 -22q-18 0 -30 22q-397 795 -397 802zM573 1219 q0 33 30 33q12 0 134 -62q116 -57 145 -75q18 -11 17 -26q0 -33 -30 -33q-12 0 -134 62q-116 57 -145 75q-17 10 -17 26z" />
<glyph unicode="&#x1e82;" horiz-adv-x="1890" d="M44 1221q0 30 33 30q18 0 26 -17l567 -1134l263 525q-294 587 -294 596q0 30 32 30q18 0 27 -17l269 -540l270 540q9 17 26 17q33 0 33 -30q0 -9 -294 -596l263 -525l566 1134q9 17 27 17q33 0 32 -30q0 -11 -275 -564q-274 -550 -320 -635q-12 -22 -31 -22q-18 0 -30 22 l-267 535l-267 -535q-11 -22 -30 -22q-18 0 -30 22q-47 85 -321 635q-275 553 -275 564zM804 1485q0 16 17 27q29 18 144 74q123 62 135 62q30 0 30 -33q0 -16 -17 -26q-29 -18 -144 -75q-123 -62 -135 -61q-30 -1 -30 32z" />
<glyph unicode="&#x1e83;" horiz-adv-x="1471" d="M44 824q0 30 33 30q18 0 26 -16l369 -738l230 458q-129 258 -129 266q0 30 32 30q18 0 27 -16l369 -738l368 738q9 17 26 16q33 0 33 -30q0 -7 -397 -802q-11 -22 -31 -22q-18 0 -30 22l-234 468l-234 -468q-11 -22 -31 -22q-18 0 -30 22q-397 795 -397 802zM573 1089 q0 16 17 26q28 18 145 75q122 62 134 62q30 0 30 -33q0 -16 -17 -26q-28 -18 -145 -75q-122 -62 -134 -62q-30 0 -30 33z" />
<glyph unicode="&#x1e84;" horiz-adv-x="1890" d="M44 1221q0 30 33 30q18 0 26 -17l567 -1134l263 525q-294 587 -294 596q0 30 32 30q18 0 27 -17l269 -540l270 540q9 17 26 17q33 0 33 -30q0 -9 -294 -596l263 -525l566 1134q9 17 27 17q33 0 32 -30q0 -11 -275 -564q-274 -550 -320 -635q-12 -22 -31 -22q-18 0 -30 22 l-267 535l-267 -535q-11 -22 -30 -22q-18 0 -30 22q-47 85 -321 635q-275 553 -275 564zM706 1518q0 63 63 63q64 0 64 -63q0 -64 -64 -65q-63 1 -63 65zM1102 1518q0 63 63 63q64 0 65 -63q0 -64 -65 -65q-63 1 -63 65z" />
<glyph unicode="&#x1e85;" horiz-adv-x="1471" d="M44 824q0 30 33 30q18 0 26 -16l369 -738l230 458q-129 258 -129 266q0 30 32 30q18 0 27 -16l369 -738l368 738q9 17 26 16q33 0 33 -30q0 -7 -397 -802q-11 -22 -31 -22q-18 0 -30 22l-234 468l-234 -468q-11 -22 -31 -22q-18 0 -30 22q-397 795 -397 802zM475 1121 q0 63 63 64q64 0 65 -64q0 -64 -65 -64q-63 0 -63 64zM871 1121q0 63 64 64q64 0 64 -64t-64 -64t-64 64z" />
<glyph unicode="&#x1ef2;" horiz-adv-x="1031" d="M44 1220q0 32 32 32q14 0 24 -14l438 -562l438 562q10 13 24 14q32 0 31 -32q0 -10 -7 -19l-455 -586v-584q0 -31 -31 -31t-31 31v584l-456 586q-7 9 -7 19zM374 1615q0 33 31 33q11 0 134 -62q116 -57 145 -74q18 -11 17 -27q0 -33 -30 -32q-11 0 -135 61 q-116 57 -144 75q-18 10 -18 26z" />
<glyph unicode="&#x1ef3;" horiz-adv-x="810" d="M88 295v529q0 31 31 30q31 0 31 -30v-529q0 -96 68.5 -164.5t164.5 -68.5t165 68.5t69 164.5v529q0 31 30 30q31 0 31 -30v-925q0 -122 -86.5 -208.5t-208.5 -86.5q-173 0 -255 146q-4 9 -5 17q0 30 33 30q11 0 40 -34q37 -43 66 -63q52 -34 121 -35q96 0 165 69t69 165 v216q-89 -115 -234 -115q-122 0 -208.5 86.5t-86.5 208.5zM220 1219q0 33 30 33q11 0 135 -62q115 -57 144 -75q17 -11 17 -26q0 -33 -30 -33q-11 0 -135 62q-115 57 -144 75q-17 10 -17 26z" />
<glyph unicode="&#x2010;" horiz-adv-x="546" d="M44 427q0 31 31 31h396q31 0 31 -31t-31 -31h-396q-31 0 -31 31z" />
<glyph unicode="&#x2013;" horiz-adv-x="678" d="M44 427q0 31 31 31h528q31 0 31 -31t-31 -31h-528q-31 0 -31 31z" />
<glyph unicode="&#x2014;" horiz-adv-x="1206" d="M44 427q0 31 31 31h1057q31 0 31 -31t-31 -31h-1057q-31 0 -31 31z" />
<glyph unicode="&#x2015;" horiz-adv-x="1206" d="M44 427q0 31 31 31h1057q31 0 31 -31t-31 -31h-1057q-31 0 -31 31z" />
<glyph unicode="&#x2017;" horiz-adv-x="1145" d="M44 -70h1057v-62h-1057v62zM44 -203h1057v-61h-1057v61z" />
<glyph unicode="&#x2018;" horiz-adv-x="266" d="M44 956q0 82 33 164q35 88 93 139q11 10 21 9q32 0 32 -31q0 -11 -10 -22q-107 -130 -107 -259q0 -31 -31 -31t-31 31z" />
<glyph unicode="&#x2019;" horiz-adv-x="266" d="M44 939q0 11 10 22q107 130 107 259q0 31 31 31t31 -31q0 -82 -33 -165q-35 -88 -93 -138q-11 -10 -21 -10q-32 0 -32 32z" />
<glyph unicode="&#x201a;" horiz-adv-x="266" d="M44 -250q0 11 10 22q107 130 107 259q0 31 31 31t31 -31q0 -82 -33 -165q-35 -88 -93 -138q-11 -10 -21 -10q-32 0 -32 32z" />
<glyph unicode="&#x201b;" horiz-adv-x="266" d="M44 1220q0 31 31 31t31 -31q0 -129 107 -259q10 -11 10 -22q0 -32 -32 -32q-11 0 -21 10q-58 50 -93 138q-33 83 -33 165z" />
<glyph unicode="&#x201c;" horiz-adv-x="663" d="M44 956q0 82 33 164q35 88 93 139q11 10 21 9q32 0 32 -31q0 -11 -10 -22q-107 -130 -107 -259q0 -31 -31 -31t-31 31zM440 956q0 82 33 164q35 88 93 139q11 10 22 9q32 0 31 -31q0 -11 -9 -22q-107 -130 -108 -259q0 -31 -31 -31t-31 31z" />
<glyph unicode="&#x201d;" horiz-adv-x="663" d="M44 939q0 11 10 22q107 130 107 259q0 31 31 31t31 -31q0 -82 -33 -165q-35 -88 -93 -138q-11 -10 -21 -10q-32 0 -32 32zM440 939q0 11 10 22q107 130 108 259q0 31 30 31q31 0 31 -31q0 -82 -32 -165q-35 -88 -94 -138q-11 -10 -21 -10q-32 0 -32 32z" />
<glyph unicode="&#x201e;" horiz-adv-x="663" d="M44 -250q0 11 10 22q107 130 107 259q0 31 31 31t31 -31q0 -82 -33 -165q-35 -88 -93 -138q-11 -10 -21 -10q-32 0 -32 32zM440 -250q0 11 10 22q107 130 108 259q0 31 30 31q31 0 31 -31q0 -82 -32 -165q-35 -88 -94 -138q-11 -10 -21 -10q-32 0 -32 32z" />
<glyph unicode="&#x2020;" d="M176 824q0 31 31 30h233v366q0 31 31 31t31 -31v-366h234q31 0 30 -30q0 -31 -30 -31h-234v-762q0 -31 -31 -31t-31 31v762h-233q-31 0 -31 31z" />
<glyph unicode="&#x2021;" d="M176 427q0 31 31 31h233v335h-233q-31 0 -31 31t31 30h233v366q0 31 31 31t31 -31v-366h234q31 0 30 -30q0 -31 -30 -31h-234v-335h234q31 0 30 -31q0 -31 -30 -31h-234v-365q0 -31 -31 -31t-31 31v365h-233q-31 0 -31 31z" />
<glyph unicode="&#x2022;" d="M33 562q0 55 22 106q28 65 75 65q48 0 75 -65q23 -51 23 -106q0 -56 -21 -107q-27 -63 -77 -63q-49 0 -75 63q-22 51 -22 107zM129 224q0 118 116 194q102 69 226 69t227 -69q116 -77 116 -194q0 -70 -24 -127q-32 -75 -92 -75q-17 0 -48 13.5t-49 13.5q-26 0 -65 -24.5 t-65 -24.5t-64.5 24.5t-64.5 24.5q-18 0 -49 -13.5t-48 -13.5q-61 0 -93 75q-23 57 -23 127zM252 684q0 55 23 106q27 64 75 64q47 0 75 -64q22 -51 22 -106q0 -57 -22 -106q-27 -64 -75 -64q-49 0 -77 64q-21 49 -21 106zM496 684q0 55 22 106q28 64 75 64q48 0 75 -64 q23 -51 23 -106q0 -57 -22 -106q-27 -64 -76 -64q-48 0 -76 64q-21 49 -21 106zM714 562q0 55 23 106q27 65 75 65q47 0 75 -65q22 -51 22 -106q0 -56 -21 -107q-26 -63 -76 -63q-49 0 -76 63q-22 51 -22 107z" />
<glyph unicode="&#x2026;" horiz-adv-x="1321" d="M155 65q0 63 65 63t65 -63q0 -26 -19 -45.5t-46 -19.5q-26 0 -45.5 19.5t-19.5 45.5zM595 65q0 63 66 63q65 0 65 -63q0 -26 -19.5 -45.5t-45.5 -19.5t-46 19.5t-20 45.5zM1036 65q0 63 65 63t65 -63q0 -26 -19 -45.5t-46 -19.5q-26 0 -45.5 19.5t-19.5 45.5z" />
<glyph unicode="&#x2030;" horiz-adv-x="2066" d="M44 31q0 12 10 22l1189 1189q10 10 21 10q32 0 32 -32q0 -12 -10 -22l-1189 -1189q-10 -10 -21 -10q-32 0 -32 32zM45 956q0 122 86.5 208.5t208.5 86.5t208.5 -87t86.5 -208q0 -122 -86.5 -208.5t-208.5 -86.5t-208.5 86.5t-86.5 208.5zM107 956q0 -96 68 -165t165 -69 q96 0 164.5 69t68.5 165t-68.5 164.5t-164.5 68.5q-97 0 -165 -68.5t-68 -164.5zM706 295q0 122 86 208.5t209 86.5q122 0 208.5 -86.5t86.5 -208.5t-87 -208.5t-208 -86.5q-122 0 -208.5 86.5t-86.5 208.5zM767 295q0 -96 68.5 -164.5t165.5 -68.5q96 0 164.5 68.5 t68.5 164.5t-68.5 165t-164.5 69q-97 0 -165.5 -69t-68.5 -165zM1432 295q0 122 86.5 208.5t208.5 86.5t208.5 -86.5t86.5 -208.5t-86.5 -208.5t-208.5 -86.5t-208.5 86.5t-86.5 208.5zM1494 295q0 -96 68 -164.5t165 -68.5q96 0 165 68.5t69 164.5t-69 165t-165 69 q-97 0 -165 -69t-68 -165z" />
<glyph unicode="&#x2032;" horiz-adv-x="282" d="M44 889q0 9 61.5 165.5t72.5 176.5t28 20q33 0 33 -30q0 -9 -62 -166t-73.5 -176.5t-26.5 -19.5q-33 0 -33 30z" />
<glyph unicode="&#x2033;" horiz-adv-x="613" d="M44 889q0 9 61.5 165.5t72.5 176.5t28 20q33 0 33 -30q0 -9 -62 -166t-73.5 -176.5t-26.5 -19.5q-33 0 -33 30zM374 889q0 9 62 165.5t73 176.5t27 20q33 0 33 -30q0 -9 -61.5 -166t-73 -176.5t-27.5 -19.5q-33 0 -33 30z" />
<glyph unicode="&#x2039;" horiz-adv-x="347" d="M44 427l2 14l198 397q9 17 26 16q33 0 33 -30q0 -9 -196 -397q196 -389 196 -397q0 -30 -33 -30q-18 0 -26 17l-198 396q-2 3 -2 14z" />
<glyph unicode="&#x203a;" horiz-adv-x="347" d="M44 30q0 9 195 397q-195 388 -195 397q0 30 33 30q18 0 26 -16l198 -397q2 -4 2 -14l-2 -14l-198 -396q-9 -17 -26 -17q-33 0 -33 30z" />
<glyph unicode="&#x203c;" horiz-adv-x="590" d="M98 65q0 63 65 63t65 -63q0 -26 -19.5 -45.5t-45.5 -19.5t-45.5 19.5t-19.5 45.5zM132 361v859q0 31 31 31t31 -31v-859q0 -31 -31 -31t-31 31zM362 65q0 63 65 63t65 -63q0 -26 -19 -45.5t-46 -19.5q-26 0 -45.5 19.5t-19.5 45.5zM396 361v859q0 31 31 31t31 -31v-859 q0 -31 -31 -31t-31 31z" />
<glyph unicode="&#x203e;" horiz-adv-x="401" />
<glyph unicode="&#x2044;" horiz-adv-x="1339" d="M44 31q0 12 10 22l1189 1189q10 10 21 10q32 0 32 -32q0 -12 -10 -22l-1189 -1189q-10 -10 -21 -10q-32 0 -32 32z" />
<glyph unicode="&#x207f;" horiz-adv-x="546" d="M44 665v555q0 31 31 31q32 0 31 -69q68 69 167 69q92 0 160.5 -62t68.5 -154v-370q0 -31 -31 -31t-31 31v370q0 66 -50 110t-117 44t-117 -44t-50 -110v-370q0 -31 -31 -31t-31 31z" />
<glyph unicode="&#x20a3;" horiz-adv-x="1008" d="M44 339q0 31 31 31h167v850q0 31 31 31h661q31 0 31 -31t-31 -31h-630v-533h498q31 0 30 -31q0 -31 -30 -30h-498v-225h167q31 0 31 -31t-31 -31h-167v-277q0 -31 -31 -31t-31 31v277h-167q-31 0 -31 31z" />
<glyph unicode="&#x20a4;" horiz-adv-x="943" d="M44 31q0 31 32 31q70 0 118.5 49t48.5 118v300h-167q-31 0 -31 30q0 31 31 31h167v203h-167q-31 0 -31 31t31 30h167v168q0 94 67.5 161.5t161.5 67.5q105 0 162 -67q10 -11 10 -22q0 -31 -32 -31q-2 0 -48.5 29t-91.5 29q-69 0 -118 -49t-49 -118v-168h167q31 0 31 -30 q0 -31 -31 -31h-167v-203h167q31 0 31 -31t-31 -30h-167v-300q0 -100 -72 -167h636q31 0 30 -31q0 -31 -30 -31h-793q-32 0 -32 31z" />
<glyph unicode="&#x20a7;" horiz-adv-x="1619" d="M132 31v1189q0 31 31 31h330q150 0 255.5 -106t105.5 -255q0 -150 -105.5 -255.5t-255.5 -105.5h-268q-31 0 -31 30q0 31 31 31h268q124 0 212 87.5t88 212.5q0 124 -88 211.5t-212 87.5h-299v-1158q0 -31 -31 -31t-31 31zM776 586q0 31 31 31h118v246q0 31 31 31t31 -31 v-246h117q31 0 31 -31t-31 -31h-117v-386q0 -46 35 -76.5t82 -30.5q41 0 90 36q-16 26 -16 39q0 30 32 29q8 0 50 -52t111 -52q56 0 99 37.5t43 93.5t-43.5 93t-101.5 37q-63 0 -109 42.5t-46 104.5t46 104.5t109 42.5q92 0 133 -73q5 -9 5 -16q0 -31 -32 -31q-8 0 -37.5 29 t-68.5 29q-37 0 -65 -24.5t-28 -60.5q0 -40 31 -63q29 -21 69 -21q81 0 140.5 -56.5t59.5 -136.5q0 -82 -61 -137.5t-143 -55.5q-80 0 -139 51q-48 -51 -128 -51q-72 0 -125.5 49t-53.5 120v386h-118q-31 0 -31 31z" />
<glyph unicode="&#x20ac;" horiz-adv-x="1319" d="M44 493q0 31 31 31h131q-8 50 -8 101t8 102h-131q-31 0 -31 31t31 30h144q55 204 224 333.5t381 129.5q121 0 239 -48q126 -50 203 -135q10 -11 9 -22q0 -32 -31 -31q-11 0 -22 9q-102 85 -183 122q-96 43 -215 43q-186 0 -336.5 -111.5t-203.5 -289.5h672q31 0 31 -30 q0 -31 -31 -31h-687q-9 -50 -9 -102q0 -51 9 -101h555q31 0 30 -31q0 -31 -30 -31h-540q54 -178 204 -289t336 -111q120 0 215 43q80 36 183 121q11 10 22 10q32 0 31 -32q0 -11 -9 -21q-77 -85 -203 -135q-119 -48 -239 -48q-211 0 -380 129t-225 333h-144q-31 0 -31 31z " />
<glyph unicode="&#x2105;" horiz-adv-x="1339" d="M44 31q0 12 10 22l1189 1189q10 10 21 10q32 0 32 -32q0 -12 -10 -22l-1189 -1189q-10 -10 -21 -10q-32 0 -32 32zM45 943q0 131 99 221q96 87 229 87q146 0 231 -89q10 -11 10 -23q0 -32 -32 -32q3 0 -66.5 41t-142.5 41q-107 0 -185 -69q-81 -71 -81 -177 q0 -105 81 -178q78 -70 185 -69q73 0 142 40.5t67 40.5q32 0 32 -32q0 -11 -11 -22q-85 -89 -230 -89q-132 0 -229 87q-99 92 -99 222zM640 308q0 131 99 221q96 87 228 88q132 0 229 -88q100 -90 100 -221t-98.5 -219.5t-230.5 -88.5t-228 87q-99 90 -99 221zM701 308 q0 -105 81 -177q78 -70 185 -69q107 0 185 69q82 72 82 177t-82 177q-78 70 -185 70t-185 -70q-81 -72 -81 -177z" />
<glyph unicode="&#x2113;" horiz-adv-x="488" d="M44 229v842q0 74 53 127t127 53t126.5 -53t52.5 -127q0 -90 -297 -521v-321q0 -69 49 -118t118 -49q47 0 92 29t48 29q32 0 32 -32q0 -11 -10 -21q-63 -67 -162 -67q-94 0 -161.5 67.5t-67.5 161.5zM106 660q236 353 236 411q0 48 -35 83t-83 35t-83 -34.5t-35 -83.5 v-411z" />
<glyph unicode="&#x2116;" horiz-adv-x="1890" d="M132 1220q0 31 32 31q14 0 27 -16l867 -1114v1099q0 31 31 31t31 -31v-1189q0 -31 -32 -31q-14 0 -27 16l-866 1114v-1099q0 -31 -31 -31t-31 31zM1190 427q0 31 31 31h594q31 0 31 -31t-31 -31h-594q-31 0 -31 31zM1190 943q0 131 100 221q96 87 228 87t229 -87 q100 -90 99 -221q0 -131 -98 -220t-230 -89t-228 87q-100 91 -100 222zM1252 943q0 -105 81 -178q78 -70 185 -69q107 0 185 69q82 72 82 178q0 105 -82 177q-78 70 -185 69q-107 0 -185 -69q-81 -72 -81 -177z" />
<glyph unicode="&#x2122;" horiz-adv-x="1284" d="M44 1220q0 31 31 31h396q31 0 31 -31t-31 -31h-167v-564q0 -31 -31 -30q-31 0 -31 30v564h-167q-31 0 -31 31zM517 625q0 13 41 195l92 407q8 29 29 29q19 0 30 -24l169 -396l170 396q11 24 30 24q22 0 29 -29l132 -595q1 -4 1 -7q0 -30 -31 -30q-25 0 -30 23l-111 502 l-161 -375q-11 -23 -29 -23t-28 23l-160 375l-111 -502q-5 -24 -30 -23q-32 0 -32 30z" />
<glyph unicode="&#x2126;" horiz-adv-x="1338" d="M44 31q0 31 31 31h319l-184 160q-85 79 -122 159q-44 96 -44 244q0 259 183 442.5t442 183.5t442.5 -183.5t183.5 -442.5q0 -152 -44 -246q-36 -77 -123 -156l-184 -161h320q31 0 31 -31t-31 -31l-395 -1q-32 0 -32 32q0 13 13 25q103 85 292 268q92 107 91 301 q0 233 -165 398.5t-399 165.5q-233 0 -398 -165t-165 -399q0 -155 46 -237q35 -64 166 -176q184 -159 184 -181q0 -32 -32 -32l-395 1q-31 0 -31 31z" />
<glyph unicode="&#x212e;" horiz-adv-x="1115" d="M44 423q0 215 161 345q150 122 369 122q202 0 345 -117q152 -126 152 -324q0 -39 -35 -39h-793v-230q0 -49 91.5 -107t217.5 -58q182 0 332 152h107q-55 -91 -192 -149q-124 -54 -241 -53q-169 0 -316 92q-198 126 -198 366zM243 452h629v234q0 55 -86.5 104.5 t-218.5 49.5t-232 -61q-92 -55 -92 -112v-215z" />
<glyph unicode="&#x215b;" horiz-adv-x="1722" d="M44 1035q0 13 11 23l193 180q13 13 26 14q31 0 31 -38v-657h101q31 0 31 -31t-31 -31h-264q-31 0 -31 31t31 31h101v592l-147 -137q-9 -9 -20 -9q-32 0 -32 32zM231 31q0 12 9 22l1190 1189q10 10 22 10q32 0 31 -32q0 -12 -9 -22l-1189 -1189q-10 -10 -23 -10 q-31 0 -31 32zM1120 262q0 163 155 235q-106 63 -105 181q0 92 69 154q67 62 160 62q92 0 160.5 -62t68.5 -154q0 -118 -105 -181q155 -72 155 -235q0 -111 -83 -186.5t-196 -75.5q-112 0 -194 74q-85 77 -85 188zM1182 262q0 -85 65 -142.5t152 -57.5t150 56q67 58 67 144 t-67 144q-63 56 -150 56q-86 0 -151.5 -57t-65.5 -143zM1231 678q0 -66 52 -111q48 -43 116 -43q67 0 117 44t50 110t-50 110t-117 44t-116 -43q-52 -45 -52 -111z" />
<glyph unicode="&#x215c;" horiz-adv-x="1966" d="M44 515q0 31 33 31q11 0 39 -33q37 -41 70 -61q55 -33 125 -34q97 0 169.5 64t72.5 160q0 95 -72.5 159.5t-169.5 64.5q-63 0 -128 -38l-66 -38q-30 0 -30 31q0 14 13 25l400 343h-425q-31 0 -31 31t31 31h509q35 0 35 -27q0 -15 -15 -28l-316 -269q11 1 23 1 q122 0 211 -81q92 -84 93 -205q0 -122 -93 -204q-89 -81 -211 -81q-78 0 -150 37q-75 39 -112 105q-5 8 -5 16zM410 31q0 12 9 22l1189 1189q9 10 22 10q32 0 31 -32q0 -12 -9 -22l-1190 -1189q-10 -10 -21 -10q-31 0 -31 32zM1364 262q0 163 155 235q-106 63 -105 181 q0 92 68.5 154t160.5 62t160.5 -62t68.5 -154q0 -118 -105 -181q155 -72 155 -235q0 -111 -83 -186.5t-196 -75.5q-112 0 -194 74q-85 77 -85 188zM1426 262q0 -85 67 -144q63 -56 150 -56t150 56q67 58 67 144t-67 144q-63 56 -150 56q-86 0 -150 -56q-67 -58 -67 -144z M1475 678q0 -66 52 -111q49 -43 116 -43t117 44t50 110t-50 110t-117 44q-66 0 -116 -43q-52 -45 -52 -111z" />
<glyph unicode="&#x215d;" horiz-adv-x="1988" d="M44 527q0 31 33 31q13 0 24 -15l28 -37q78 -88 204 -88q107 0 186.5 71t79.5 176q0 106 -79.5 176.5t-186.5 70.5q-152 0 -230 -122q-3 -4 -13 -14q-5 -3 -14 -3q-32 0 -32 30l2 9l68 412q5 27 32 27h484q31 0 31 -31t-31 -31h-459l-48 -287q91 71 210 71q132 0 229 -87 q99 -90 99 -221q0 -130 -100 -221q-96 -87 -228 -87q-85 0 -162 40q-81 42 -122 113q-5 9 -5 17zM433 31q0 12 9 22l1189 1189q10 10 21 10q32 0 32 -32q0 -12 -9 -22l-1190 -1189q-9 -10 -21 -10q-31 0 -31 32zM1388 262q0 163 154 235q-105 63 -104 181q0 92 69 154 q67 62 160 62q92 0 160.5 -62t68.5 -154q0 -118 -106 -181q155 -72 155 -235q0 -111 -83.5 -186.5t-194.5 -75.5q-113 0 -196 75.5t-83 186.5zM1450 262q0 -85 66 -144q63 -56 151 -56q86 0 151 57t65 143t-65 143t-151 57q-87 0 -151 -56q-66 -58 -66 -144zM1499 678 q0 -66 50.5 -110t117.5 -44t117 44t50 110t-50 110t-117 44t-117.5 -44t-50.5 -110z" />
<glyph unicode="&#x215e;" horiz-adv-x="2002" d="M44 1220q0 31 31 31h594q33 0 33 -27q0 -10 -6 -19l-478 -832q-10 -16 -27 -16q-32 0 -32 30q0 8 5 16l452 786h-541q-31 0 -31 31zM446 31q0 12 9 22l1190 1189q9 10 21 10q32 0 31 -32q0 -12 -9 -22l-1189 -1189q-10 -10 -22 -10q-31 0 -31 32zM1401 262q0 163 155 235 q-106 63 -106 181q0 92 68.5 154t160.5 62t160.5 -62t68.5 -154q0 -118 -105 -181q155 -72 155 -235q0 -111 -83 -186.5t-196 -75.5q-112 0 -194 74q-84 77 -84 188zM1462 262q0 -85 67 -144q63 -56 150 -56t151 56q67 58 66 144q0 86 -66 144q-63 56 -151 56 q-86 0 -150 -56q-67 -58 -67 -144zM1512 678q0 -66 52 -111q49 -43 115 -43q67 0 117 44t50 110t-50 110t-117 44q-66 0 -115 -43q-52 -45 -52 -111z" />
<glyph unicode="&#x2190;" d="M44 525q0 13 13 27l261 260q9 10 21 10q32 0 32 -32q0 -11 -10 -21l-211 -211h718q31 0 30 -31q0 -31 -30 -31h-718l211 -212q10 -10 10 -22q0 -32 -32 -31q-12 0 -21 9l-261 260q-13 14 -13 25z" />
<glyph unicode="&#x2191;" d="M175 659q0 11 10 21l261 261q13 13 23 13q14 0 28 -13l261 -261q10 -10 9 -21q0 -32 -31 -32q-12 0 -23 10l-211 211v-719q0 -30 -31 -29q-31 0 -31 29v719l-211 -211q-10 -10 -22 -10q-32 0 -32 32z" />
<glyph unicode="&#x2192;" d="M44 526q0 31 31 31h718l-212 212q-10 10 -9 21q0 32 31 32q12 0 22 -10l260 -260q13 -14 13 -25q0 -12 -13 -27l-260 -260q-9 -10 -22 -9q-32 0 -31 31q0 11 9 22l212 211h-718q-31 0 -31 31z" />
<glyph unicode="&#x2193;" d="M175 394q0 32 32 31q12 0 22 -9l211 -212v718q0 31 31 31t31 -31v-718l211 212q10 10 23 9q32 0 31 -31q0 -11 -9 -21l-261 -261q-13 -13 -25 -13q-13 0 -26 13l-261 261q-10 10 -10 21z" />
<glyph unicode="&#x2194;" d="M43 525q0 13 14 27l260 260q10 10 22 10q32 0 32 -32q0 -11 -10 -21l-212 -211h644l-212 211q-10 10 -9 21q0 32 31 32q12 0 22 -10l260 -260q14 -14 14 -25q0 -12 -14 -27l-260 -260q-10 -10 -22 -9q-32 0 -31 31q0 11 9 22l212 212h-644l212 -212q10 -10 10 -22 q0 -32 -32 -31q-12 0 -22 9l-260 260q-14 14 -14 25z" />
<glyph unicode="&#x2195;" d="M175 394q0 32 32 31q12 0 22 -9l211 -212v644l-211 -211q-10 -10 -22 -10q-32 0 -32 32q0 11 10 21l261 261q13 13 23 13q14 0 28 -13l261 -261q10 -10 9 -21q0 -32 -31 -32q-12 0 -23 10l-211 211v-644l211 212q10 10 23 9q32 0 31 -31q0 -11 -9 -21l-261 -261 q-13 -13 -25 -13q-13 0 -26 13l-261 261q-10 10 -10 21z" />
<glyph unicode="&#x21a8;" d="M175 394q0 32 32 31q12 0 22 -9l211 -212v644l-211 -211q-10 -10 -22 -10q-32 0 -32 32q0 11 10 21l261 261q13 13 23 13q14 0 28 -13l261 -261q10 -10 9 -21q0 -32 -31 -32q-12 0 -23 10l-211 211v-644l211 212q10 10 23 9q32 0 31 -31q0 -11 -9 -21l-261 -261 q-13 -13 -25 -13q-13 0 -26 13l-261 261q-10 10 -10 21zM176 31q0 31 31 31h529q31 0 30 -31q0 -31 -30 -31h-529q-31 0 -31 31z" />
<glyph unicode="&#x2202;" d="M44 427q0 177 125 302t302 125q179 0 304 -127q-90 211 -281 336.5t-419 125.5q-31 0 -31 31t31 31q341 0 582 -241.5t241 -582.5q0 -177 -125 -302t-302 -125t-302 125t-125 302zM106 427q0 -152 107 -258.5t258 -106.5q152 0 259 107t107 258q0 152 -107 259t-259 107 t-258.5 -107t-106.5 -259z" />
<glyph unicode="&#x2206;" d="M-18 129q0 8 7 22l452 782q12 21 30 21t30 -21l452 -782q7 -13 7 -22q0 -31 -32 -30h-914q-32 -1 -32 30zM67 160h809l-405 701z" />
<glyph unicode="&#x220f;" horiz-adv-x="1206" d="M132 -366v1586q0 31 31 31h882q30 0 30 -31v-1586q0 -31 -31 -30q-31 0 -31 30v1555h-819v-1555q0 -31 -31 -30q-31 -1 -31 30z" />
<glyph unicode="&#x2211;" horiz-adv-x="1031" d="M44 -366q0 12 13 26l767 767l-767 767q-13 13 -13 26q0 32 32 32l881 -1q31 0 30 -31q0 -31 -30 -31h-807l740 -740q10 -10 9 -21q0 -13 -9 -23l-740 -740h806q31 0 31 -31t-31 -30l-880 -1q-32 -1 -32 31z" />
<glyph unicode="&#x2219;" d="M406 526q0 63 65 62q65 0 65 -62q0 -26 -19 -45.5t-46 -19.5q-26 0 -45.5 19.5t-19.5 45.5z" />
<glyph unicode="&#x221a;" d="M77 827q0 27 31 27q26 0 30 -25l102 -611l168 1006q4 27 32 27h397q29 0 29 -31t-31 -31h-371l-193 -1160q-5 -29 -31 -29t-30 29l-132 789q-1 4 -1 9z" />
<glyph unicode="&#x221e;" d="M-352 526q0 177 125 302t302 125q130 0 239 -73t157 -194q48 121 157 194t240 73q177 0 302 -125t125 -302q0 -176 -125 -301.5t-302 -125.5q-130 0 -239 73.5t-158 193.5q-48 -121 -157 -194t-239 -73q-177 0 -302 125.5t-125 301.5zM-291 526q0 -151 107 -258.5 t259 -107.5t258.5 107.5t106.5 258.5q0 152 -107 258.5t-258 106.5q-152 0 -259 -106.5t-107 -258.5zM502 526q0 -151 107 -258.5t259 -107.5t258.5 107.5t106.5 258.5q0 152 -107 258.5t-258 106.5q-152 0 -259 -106.5t-107 -258.5z" />
<glyph unicode="&#x221f;" d="M44 129q0 31 31 31h365v762q0 31 31 31t31 -31v-762h366q31 0 30 -31q0 -31 -30 -30h-793q-31 -1 -31 30z" />
<glyph unicode="&#x2229;" d="M44 129v397q0 177 125 302t302 125t302 -125t125 -302v-397q0 -30 -30 -29q-31 0 -31 29v397q0 152 -107 258.5t-259 106.5t-258.5 -107t-106.5 -258v-397q0 -30 -31 -29q-31 -1 -31 29z" />
<glyph unicode="&#x222b;" d="M101 -308q0 32 32 31q3 0 48.5 -29t91.5 -29q69 0 118 49.5t49 118.5v1189q0 94 67.5 161.5t161.5 67.5q103 0 163 -67q10 -11 9 -21q0 -32 -31 -32q-3 0 -49 29t-92 29q-69 0 -118 -49t-49 -118v-1189q0 -94 -67.5 -161.5t-161.5 -67.5q-103 0 -162 67q-10 10 -10 21z " />
<glyph unicode="&#x2248;" d="M43 393q0 14 17 32q57 65 213 66q85 0 205 -66t191 -66q126 0 168 45q19 21 30 21q33 0 32 -29q0 -14 -16 -33q-57 -66 -214 -66q-85 0 -205 66t-191 66q-126 0 -167 -45q-19 -21 -30 -21q-33 0 -33 30zM43 657q0 14 17 33q57 65 213 65q85 0 205 -66t191 -66 q126 0 168 46q19 21 30 21q33 0 32 -30q0 -14 -16 -33q-57 -66 -214 -66q-85 0 -205 66t-191 66q-126 0 -167 -45q-19 -21 -30 -21q-33 0 -33 30z" />
<glyph unicode="&#x22f2;" d="M43 393q0 14 17 32q57 65 213 66q85 0 205 -66t191 -66q126 0 168 45q19 21 30 21q33 0 32 -29q0 -14 -16 -33q-57 -66 -214 -66q-85 0 -205 66t-191 66q-126 0 -167 -45q-19 -21 -30 -21q-33 0 -33 30zM43 657q0 14 17 33q57 65 213 65q85 0 205 -66t191 -66 q126 0 168 46q19 21 30 21q33 0 32 -30q0 -14 -16 -33q-57 -66 -214 -66q-85 0 -205 66t-191 66q-126 0 -167 -45q-19 -21 -30 -21q-33 0 -33 30z" />
<glyph unicode="&#x2260;" d="M44 394q0 31 31 31h291l136 202h-427q-31 0 -31 31t31 31h468l167 251q10 14 25 14q33 0 32 -31q0 -9 -6 -17l-144 -217h251q31 0 30 -31q0 -31 -30 -31h-292l-136 -202h428q31 0 30 -31q0 -31 -30 -31h-468l-167 -250q-10 -14 -25 -14q-33 0 -33 30q0 9 6 18l145 216 h-251q-31 0 -31 31z" />
<glyph unicode="&#x2261;" d="M44 262q0 30 31 30h793q31 0 30 -30q0 -31 -30 -31l-793 1q-31 -1 -31 30zM44 526q0 31 31 31h793q31 0 30 -31q0 -31 -30 -31h-793q-31 0 -31 31zM44 790q0 31 31 31h793q31 0 30 -31q0 -31 -30 -31h-793q-31 0 -31 31z" />
<glyph unicode="&#x2264;" d="M44 31q0 31 31 31h793q31 0 30 -31q0 -31 -30 -31h-793q-31 0 -31 31zM44 295q0 31 31 31h793q31 0 30 -31q0 -31 -30 -31h-793q-31 0 -31 31zM44 956q0 18 22 30q63 35 424 215q367 183 379 183q30 0 29 -33q0 -18 -16 -26l-738 -369l738 -369q17 -9 16 -27 q0 -33 -29 -32q-11 0 -379 183q-361 180 -424 215q-22 12 -22 30z" />
<glyph unicode="&#x2265;" d="M44 31q0 31 31 31h793q31 0 30 -31q0 -31 -30 -31h-793q-31 0 -31 31zM44 295q0 31 31 31h793q31 0 30 -31q0 -31 -30 -31h-793q-31 0 -31 31zM44 560q0 18 17 27l738 369l-738 369q-17 9 -17 26q0 33 30 33q11 0 379 -183q361 -180 423 -215q22 -12 22 -30t-22 -30 q-63 -35 -423 -215q-367 -183 -379 -183q-30 -1 -30 32z" />
<glyph unicode="&#x2302;" horiz-adv-x="1796" d="M44 427l427 427h855l427 -427l-427 -427h-855zM471 427l427 -427l428 427l-428 427zM791 427q0 44 31.5 76t75.5 32t76 -32t32 -76t-31.5 -75.5t-76.5 -31.5q-44 0 -75.5 31.5t-31.5 75.5z" />
<glyph unicode="&#x2310;" d="M132 31v396q0 31 31 31h705q31 0 30 -31q0 -31 -30 -31h-674v-365q0 -31 -31 -31t-31 31z" />
<glyph unicode="&#x2320;" d="M440 -396v1418q0 94 67.5 161.5t161.5 67.5q104 0 163 -67q10 -11 9 -21q0 -32 -31 -32q-2 0 -49 29t-92 29q-69 0 -118 -49t-49 -118v-1418h-62z" />
<glyph unicode="&#x2321;" d="M101 -308q0 32 32 31q2 0 48.5 -29t91.5 -29q69 0 118 49.5t49 118.5v1814h62v-1814q0 -94 -67.5 -161.5t-161.5 -67.5q-104 0 -162 67q-10 11 -10 21z" />
<glyph unicode="&#x25a0;" horiz-adv-x="1039" d="M44 610q0 59 24 115q31 70 82 70t82 -70q24 -55 23 -115q0 -62 -22 -115q-30 -70 -83 -70t-83 70q-23 53 -23 115zM148 243q0 128 126 212q111 74 246 74t245 -74q126 -84 126 -212q0 -77 -25 -138q-34 -81 -101 -81q-18 0 -51.5 14.5t-52.5 14.5q-29 0 -71.5 -26.5 t-69.5 -26.5t-69.5 26.5t-71.5 26.5q-19 0 -53 -14.5t-52 -14.5q-66 0 -100 81q-26 61 -26 138zM282 743q0 59 24 114q31 70 82 71q51 0 81 -71q24 -55 24 -114q0 -62 -23 -116q-30 -70 -82 -69q-53 0 -83 69q-23 54 -23 116zM546 743q0 59 24 114q31 70 82 71q51 0 82 -71 q24 -55 24 -114q0 -62 -23 -116q-30 -70 -83 -69q-53 0 -83 69q-23 54 -23 116zM784 610q0 59 24 115q31 70 82 70t82 -70q24 -55 23 -115q0 -62 -23 -115q-30 -70 -82 -70q-53 0 -83 70q-23 53 -23 115z" />
<glyph unicode="&#x263c;" horiz-adv-x="2590" d="M44 0v366h366v-122h-244v-244h-122zM44 732v489h100l144 -145v-344h244v344l145 145h99v-489l-244 -244h-244zM288 0l122 122v-122h-122zM288 1221h244l-122 -123zM471 122v244h123v-244h121v244h123v-244l-123 -122h-121zM898 0v366h244l123 -122v-244h-123v244h-121 v-244h-123zM928 488v733h488l244 -244v-489h-244v489h-244v-489h-244zM1326 0v366h366v-122h-244v-122h244v-122h-366zM1753 0v366h122l244 -244v-122h-52l-192 193v-193h-122zM1814 488v733h244v-244h245v244h244v-244l-244 -245h-245v-244h-244zM2180 0v51l193 193h-122 l-71 70v52h367v-122l-123 -122h123v-122h-367zM2180 122v122l61 -61z" />
<glyph unicode="&#x2640;" d="M44 427q0 177 125 302t302 125t302 -125t125 -302q0 -167 -114.5 -290.5t-281.5 -135.5v-138h167q31 0 31 -30q0 -31 -31 -31h-167v-168q0 -31 -31 -30q-31 0 -31 30v168h-167q-31 0 -31 31t31 30h167v138q-167 12 -281.5 135.5t-114.5 290.5zM106 427q0 -152 107 -258.5 t258 -106.5q152 0 259 107t107 258q0 152 -107 259t-259 107t-258.5 -107t-106.5 -259z" />
<glyph unicode="&#x2642;" horiz-adv-x="1107" d="M44 427q0 177 125 302t302 125q159 0 279 -104l207 207h-206q-31 0 -30 30q0 31 30 31l280 1q32 0 32 -32l-1 -280q0 -31 -31 -30q-31 0 -30 30v206l-206 -207q104 -120 103 -279q0 -177 -125 -302t-302 -125t-302 125t-125 302zM106 427q0 -152 107 -258.5t258 -106.5 q152 0 259 107t107 258q0 152 -107 259t-259 107t-258.5 -107t-106.5 -259z" />
<glyph unicode="&#xe000;" horiz-adv-x="855" d="M0 855h855v-855h-855v855z" />
<glyph unicode="&#xe001;" horiz-adv-x="1039" d="M44 610q0 59 24 115q31 70 82 70t82 -70q24 -55 23 -115q0 -62 -22 -115q-30 -70 -83 -70t-83 70q-23 53 -23 115zM148 243q0 128 126 212q111 74 246 74t245 -74q126 -84 126 -212q0 -77 -25 -138q-34 -81 -101 -81q-18 0 -51.5 14.5t-52.5 14.5q-29 0 -71.5 -26.5 t-69.5 -26.5t-69.5 26.5t-71.5 26.5q-19 0 -53 -14.5t-52 -14.5q-66 0 -100 81q-26 61 -26 138zM282 743q0 59 24 114q31 70 82 71q51 0 81 -71q24 -55 24 -114q0 -62 -23 -116q-30 -70 -82 -69q-53 0 -83 69q-23 54 -23 116zM546 743q0 59 24 114q31 70 82 71q51 0 82 -71 q24 -55 24 -114q0 -62 -23 -116q-30 -70 -83 -69q-53 0 -83 69q-23 54 -23 116zM784 610q0 59 24 115q31 70 82 70t82 -70q24 -55 23 -115q0 -62 -23 -115q-30 -70 -82 -70q-53 0 -83 70q-23 53 -23 115z" />
<glyph unicode="&#xe002;" horiz-adv-x="2590" d="M44 0v366h366v-122h-244v-244h-122zM44 732v489h100l144 -145v-344h244v344l145 145h99v-489l-244 -244h-244zM288 0l122 122v-122h-122zM288 1221h244l-122 -123zM471 122v244h123v-244h121v244h123v-244l-123 -122h-121zM898 0v366h244l123 -122v-244h-123v244h-121 v-244h-123zM928 488v733h488l244 -244v-489h-244v489h-244v-489h-244zM1326 0v366h366v-122h-244v-122h244v-122h-366zM1753 0v366h122l244 -244v-122h-52l-192 193v-193h-122zM1814 488v733h244v-244h245v244h244v-244l-244 -245h-245v-244h-244zM2180 0v51l193 193h-122 l-71 70v52h367v-122l-123 -122h123v-122h-367zM2180 122v122l61 -61z" />
<glyph unicode="&#xfb00;" horiz-adv-x="1039" d="M44 824q0 31 31 30h167v168q0 94 67.5 161.5t161.5 67.5q131 0 198 -115q67 115 199 115q107 0 162 -67q10 -11 9 -22q0 -31 -31 -31q-1 0 -49.5 29t-90.5 29q-69 0 -118.5 -49t-49.5 -118v-168h168q31 0 30 -30q0 -31 -30 -31h-168v-762q0 -31 -31 -31t-30 31v762h-335 v-762q0 -31 -31 -31t-31 31v762h-167q-31 0 -31 31zM304 854h335v168q0 69 -49.5 118t-118.5 49t-118 -49t-49 -118v-168z" />
<glyph unicode="&#xfb01;" horiz-adv-x="832" d="M44 824q0 31 31 30h167v168q0 94 67.5 161.5t161.5 67.5q105 0 162 -67q10 -11 10 -22q0 -31 -32 -31q-2 0 -48.5 29t-91.5 29q-69 0 -118 -49t-49 -118v-168h365q31 0 31 -30v-793q0 -31 -31 -31t-30 31v762h-335v-762q0 -31 -31 -31t-31 31v762h-167q-31 0 -31 31z" />
<glyph unicode="&#xfb02;" d="M44 824q0 31 31 30h167v168q0 94 67.5 161.5t161.5 67.5t161.5 -67.5t67.5 -161.5v-793q0 -69 49.5 -118t118.5 -49q31 0 30 -31q0 -31 -30 -31q-94 0 -161.5 67.5t-67.5 161.5v793q0 69 -49.5 118t-118.5 49t-118 -49t-49 -118v-168h167q31 0 31 -30q0 -31 -31 -31h-167 v-762q0 -31 -31 -31t-31 31v762h-167q-31 0 -31 31z" />
<glyph unicode="&#xfb03;" horiz-adv-x="1228" d="M44 824q0 31 31 30h167v168q0 94 67.5 161.5t161.5 67.5q131 0 198 -115q67 115 199 115q107 0 162 -67q10 -11 9 -21q0 -32 -31 -32q-2 0 -50 29t-90 29q-69 0 -118.5 -49t-49.5 -118v-168h366q31 0 31 -30v-793q0 -31 -31 -31t-31 31v762h-335v-762q0 -31 -31 -31 t-30 31v762h-335v-762q0 -31 -31 -31t-31 31v762h-167q-31 0 -31 31zM304 854h335v168q0 69 -49.5 118t-118.5 49t-118 -49t-49 -118v-168z" />
<glyph unicode="&#xfb04;" horiz-adv-x="1338" d="M44 824q0 31 31 30h167v168q0 94 67.5 161.5t161.5 67.5q131 0 198 -115q67 115 199 115q94 0 161.5 -67.5t67.5 -161.5v-793q0 -69 49 -118t118 -49q31 0 31 -31t-31 -31q-94 0 -161.5 67.5t-67.5 161.5v793q0 69 -49.5 118t-117.5 49q-69 0 -118.5 -49t-49.5 -118v-168 h168q31 0 30 -30q0 -31 -30 -31h-168v-762q0 -31 -31 -31t-30 31v762h-335v-762q0 -31 -31 -31t-31 31v762h-167q-31 0 -31 31zM304 854h335v168q0 69 -49.5 118t-118.5 49t-118 -49t-49 -118v-168z" />
<glyph unicode="&#xfb05;" horiz-adv-x="1057" d="M132 31v935q0 118 83.5 201.5t200.5 83.5q107 0 182.5 -76t75.5 -182v-139h168q31 0 31 -30q0 -31 -31 -31h-168l1 -564q0 -69 49 -118t118 -49q44 0 91 29t48 29q32 0 32 -32q0 -10 -10 -21q-55 -67 -161 -67q-95 0 -162 67.5t-67 161.5l-1 564h-166q-31 0 -31 31t31 30 h166v139q0 81 -57 138.5t-139 57.5q-92 0 -157 -65t-65 -158v-935q0 -31 -31 -31t-31 31z" />
<glyph unicode="&#xfb06;" horiz-adv-x="1130" d="M44 181q0 30 33 30q16 0 27 -21q6 -13 20 -38q56 -90 168 -90q83 0 141.5 59t58.5 141q0 86 -62 143t-148 57q-79 0 -135 58.5t-56 137.5q0 81 57.5 138.5t138.5 57.5h398v366q0 31 31 31t31 -31v-366h167q31 0 31 -30q0 -31 -31 -31h-167v-564q0 -69 49.5 -118 t117.5 -49q42 0 91 29l49 29q32 0 32 -32q0 -10 -10 -21q-56 -67 -162 -67q-94 0 -161.5 67.5t-67.5 161.5v564h-398q-55 0 -95 -40t-40 -95q0 -60 44 -98q41 -36 103 -36q106 0 180 -78t74 -184q0 -107 -77 -184.5t-184 -77.5q-82 0 -149 46t-96 123q-3 6 -3 12z" />
<glyph horiz-adv-x="401" />
<glyph d="M44 1616q0 31 31 31h793q31 0 30 -31q0 -31 -30 -30h-793q-31 -1 -31 30z" />
<glyph horiz-adv-x="401" />
<glyph horiz-adv-x="44" />
<glyph horiz-adv-x="401" />
<glyph horiz-adv-x="401" />
<glyph horiz-adv-x="401" />
<glyph horiz-adv-x="401" />
<glyph horiz-adv-x="401" />
<glyph horiz-adv-x="401" />
<glyph horiz-adv-x="401" />
<glyph horiz-adv-x="401" />
<glyph horiz-adv-x="2590" d="M44 0v366h366v-122h-244v-244h-122zM44 732v489h100l144 -145v-344h244v344l145 145h99v-489l-244 -244h-244zM288 0l122 122v-122h-122zM288 1221h244l-122 -123zM471 122v244h123v-244h121v244h123v-244l-123 -122h-121zM898 0v366h244l123 -122v-244h-123v244h-121 v-244h-123zM928 488v733h488l244 -244v-489h-244v489h-244v-489h-244zM1326 0v366h366v-122h-244v-122h244v-122h-366zM1753 0v366h122l244 -244v-122h-52l-192 193v-193h-122zM1814 488v733h244v-244h245v244h244v-244l-244 -245h-245v-244h-244zM2180 0v51l193 193h-122 l-71 70v52h367v-122l-123 -122h123v-122h-367zM2180 122v122l61 -61z" />
</font>
</defs>
</svg>
